<?xml version="1.0" encoding="utf-8"?>
<!DOCTYPE svg PUBLIC "-//W3C//DTD SVG 20010904//EN" "http://www.w3.org/TR/2001/REC-SVG-20010904/DTD/svg10.dtd">
<svg version="1.0" xmlns="http://www.w3.org/2000/svg" width="863px" height="862px" viewBox="0 0 863 862" preserveAspectRatio="xMidYMid meet">
 <g fill="#000000">
  <path d="M0 431 l0 -431 431.5 0 431.5 0 0 431 0 431 -431.5 0 -431.5 0 0 -431z m452.7 390.5 c25.1 -2.3 38.4 -4.4 59.8 -9.5 44.1 -10.5 86.3 -28.9 125 -54.6 57.5 -38.2 102.5 -89 133.6 -150.7 7.9 -15.8 7.9 -15.8 7.9 -23.8 0 -8.6 1.1 -12.3 5.8 -19.1 3.9 -5.8 6.2 -13 6.2 -19.5 0 -6 1 -8.3 7.4 -17.5 3.4 -5 4.7 -8 6.1 -14.8 1.6 -7.9 1.6 -8.8 0.1 -12.4 -2.1 -5.1 -2 -14.6 0.4 -44.1 2.1 -25.2 2.7 -29.2 4.1 -30.1 0.5 -0.3 0.9 -1.5 0.9 -2.6 0 -1.1 0.6 -2.6 1.4 -3.2 1.6 -1.2 1 -11.1 -1.9 -34.5 -2.8 -21.8 -11.2 -59.5 -13.9 -62.4 -3.3 -3.5 -7 -10.7 -9.2 -18 -1.4 -4.5 -4.2 -11.5 -6.2 -15.6 -3.6 -7.2 -6.2 -9.6 -14.8 -13.7 -0.6 -0.3 -2.1 -2.7 -3.4 -5.5 -1.3 -2.7 -2.7 -4.9 -3.2 -4.9 -0.4 0 -0.8 -0.7 -0.8 -1.5 0 -2 -4 -9.9 -8.7 -17.2 -5.2 -8.2 -8 -15.9 -8.9 -24.2 l-0.7 -7.3 -5.6 -3.6 c-7.6 -5 -8.1 -5.6 -8.1 -9.1 0 -2.8 0.3 -3.1 3.1 -3.1 1.7 0 4 0.5 5.2 1.2 1.2 0.6 -0.2 -1.7 -3.4 -5.3 -3.1 -3.5 -6.8 -8.4 -8.4 -10.8 -1.5 -2.5 -3.6 -5.4 -4.6 -6.5 -1.1 -1.1 -1.9 -2.3 -1.9 -2.8 0 -0.4 -0.6 -0.8 -1.2 -0.8 -0.7 0 -2.6 -1.8 -4.1 -4 -1.6 -2.2 -3.4 -4 -4.2 -4 -0.7 0 -1.6 -0.9 -2 -1.9 -0.3 -1.1 -1.2 -2.1 -1.9 -2.3 -0.8 -0.2 -7.7 -6.1 -15.4 -13.2 -62 -56.7 -136 -91.2 -218.2 -101.5 -19.5 -2.5 -51.7 -4.1 -47 -2.4 2.3 0.9 6 4.5 6 6 0 0.7 2.1 2.4 4.8 3.8 7.4 3.9 9.2 5.8 9.2 9.9 0 3.4 -0.2 3.6 -3.2 3.6 -1.7 0 -4.5 -1 -6.2 -2.4 -1.7 -1.3 -5 -3.3 -7.3 -4.5 -2.4 -1.2 -4.3 -2.7 -4.3 -3.4 0 -1.6 -3.7 -5.1 -6.2 -6 -1.1 -0.4 -2.5 0.6 -4.4 3.1 -1.5 2 -4.7 5.7 -7 8.2 -2.4 2.5 -5.6 6.4 -7.3 8.7 -1.7 2.3 -4 4.7 -5.3 5.4 -1.2 0.6 -7.5 1.5 -14.1 2 -13.6 0.9 -15.8 1.9 -26.7 11.4 -5.9 5.2 -13.3 9.5 -16.3 9.5 -0.7 0 -6.6 2 -13.2 4.4 -10.2 3.7 -12.7 5 -16.6 9 -3.6 3.5 -5.4 4.6 -7.8 4.6 -2.9 0 -3.1 -0.2 -3.1 -3.9 0 -5.6 5.8 -11.1 15.4 -14.6 12.5 -4.7 17 -6.2 21.6 -7.6 3.9 -1.2 11.2 -6.2 17.5 -12.2 5.6 -5.3 9.9 -6.7 22.2 -7.6 6.6 -0.5 12.9 -1.3 14.1 -2 1.2 -0.6 3.7 -3.1 5.5 -5.6 1.9 -2.4 6.2 -7.4 9.6 -11.1 3.3 -3.7 6.1 -7.1 6.1 -7.7 0 -2.2 -32.1 1.4 -57.4 6.4 -34.2 6.9 -67.3 18.5 -99.1 34.7 -6.6 3.4 -10.7 5.9 -9.1 5.5 1.6 -0.3 4.8 -1.6 7 -2.9 2.3 -1.3 4.8 -2.4 5.6 -2.4 0.8 0 5.7 -1.6 10.9 -3.6 8.9 -3.3 10 -3.5 19 -3.2 5.3 0.3 12 1.1 14.9 1.8 4.9 1.4 5.2 1.6 5.2 4.7 0 3.2 -4.1 9.1 -9.3 13.3 -6.6 5.4 -9.8 7.8 -13 10 -3.3 2.2 -3.7 3 -3.7 6.8 l0 4.3 -3.7 -0.3 -3.8 -0.3 -0.3 -7 -0.2 -7 7.6 -5.5 c4.2 -3 9 -6.8 10.7 -8.4 l3.1 -3 -3 -1.3 c-1.6 -0.6 -3.8 -1.2 -4.9 -1.3 -2.3 0 -26 8.1 -30.2 10.3 -1.5 0.9 -5.9 2.6 -9.8 3.8 -8.2 2.5 -16.4 6.8 -21.9 11.5 -5.8 5 -9.6 6.4 -17.1 6.4 -6.1 0 -7.2 0.3 -11.4 3.5 -3.6 2.7 -5.2 4.9 -7.4 10.2 -1.6 3.7 -3.5 8.2 -4.2 9.8 -0.7 1.7 -3.3 5.8 -5.8 9.1 -3.4 4.7 -5.8 6.8 -9.9 8.7 -2.9 1.3 -7 4 -9.1 5.8 l-3.9 3.4 7.6 -0.3 c7 -0.3 7.8 -0.2 9.6 2 2.5 3.1 4 9.4 4 17.2 0 5.6 -0.3 6.7 -2.2 8 -1.2 0.9 -3.6 1.6 -5.4 1.6 -1.7 0 -5.3 0.7 -8 1.5 -6.3 1.9 -10.8 1.9 -12.4 0 -0.7 -0.8 -1.6 -1.5 -2.1 -1.5 -1.3 0 -1.1 4.8 0.3 5.2 0.6 0.2 1.3 3.1 1.6 6.5 0.4 5.9 0.2 6.5 -6.2 18.7 -8.4 16 -8.9 16.6 -14.4 16.6 -3.3 0 -4.9 0.6 -6.8 2.6 -1.5 1.4 -4.9 3.6 -7.8 4.8 -2.8 1.3 -6 3.3 -7 4.5 -4.1 4.6 -20.5 1.2 -20.7 -4.3 0 -1.2 -2.3 2.4 -5 7.8 -2.8 5.5 -5.7 10.6 -6.5 11.3 -0.8 0.8 -1.4 2.3 -1.4 3.2 0 1.9 -3.8 11.2 -4.9 12.1 -1.4 1.2 -4.1 7.4 -4.1 9.5 0 3.2 -1 5.5 -2.4 5.5 -0.7 0 -1.8 2.9 -2.5 6.7 -2.8 14 -5.7 24.3 -7.4 25.4 -0.5 0.3 -1.2 3.5 -1.7 7 -0.4 3.5 -2 12 -3.3 18.9 -6.8 33.5 -9.1 68.5 -6.7 98.7 1.8 21.7 6.9 54.9 9 58.3 0.5 0.9 4.7 1.9 11.2 2.7 5.7 0.7 13.2 1.9 16.8 2.8 3.6 0.8 10.9 1.5 16.3 1.5 l9.9 0 6.9 7.3 c3.8 3.9 7.7 8.3 8.6 9.7 0.8 1.4 5 5.1 9.2 8.2 11.8 8.7 30.9 24.4 37.8 30.9 5.5 5.2 6.7 5.9 10.3 5.9 4.4 0 6.1 1.5 14.3 12.2 3.5 4.7 3.7 5.4 3.7 12.4 0 7.1 -0.1 7.4 -3.8 11.4 -3.4 3.4 -4.5 4 -8.2 4 -3.9 0 -4.2 0.2 -3.6 2.3 0.3 1.2 1 4.7 1.7 7.7 1.7 8.1 10.1 24.3 15 29.1 5.3 5.1 8.1 6.5 14.9 7.4 13.8 1.8 26.5 6.9 34.9 13.9 2.4 2 4.7 3.6 5.2 3.6 0.4 0 2.3 1.3 4.1 2.9 1.8 1.5 4.7 3.5 6.3 4.4 4.5 2.3 6.7 4.6 11.2 11.9 2.6 4.1 4.4 8.5 4.9 11.5 0.4 2.6 1.7 8.2 3 12.4 1.2 4.2 2.5 10.3 2.9 13.5 0.4 3.3 2.2 11.9 4.1 19.2 2.3 8.8 3.4 15.5 3.4 20.1 0 4.9 0.5 7.4 1.5 8.5 0.8 0.8 1.5 1.9 1.5 2.5 0 1.8 24.9 10 46.5 15.1 40.7 9.7 80.9 12.9 118.2 9.5z m-177.7 -46.8 c-1.7 -6.4 -3.7 -15.8 -4.5 -20.9 -0.8 -5.1 -2.1 -11.3 -2.9 -13.7 -0.9 -2.4 -2.1 -7.2 -2.6 -10.7 -0.7 -4.5 -2.2 -8.3 -5.2 -13.1 -4.6 -7.4 -6.7 -9.7 -11.3 -12 -1.6 -0.9 -4.4 -2.8 -6.2 -4.2 -15.3 -12.6 -27.7 -18.4 -44.3 -20.6 -3 -0.4 -6.7 -1.3 -8.1 -2.1 -3.2 -1.6 -10.9 -8.9 -10.9 -10.2 0 -0.6 -0.3 -1.2 -0.7 -1.4 -1.9 -0.8 -8.4 -16.2 -10.8 -25.3 -3.9 -15.2 -4.6 -15.8 -17.7 -16.8 l-7.7 -0.5 0.6 6.4 c0.4 4.5 0.2 6.4 -0.6 6.4 -0.6 0 -1.1 0.7 -1.1 1.5 0 0.8 -0.8 1.5 -1.7 1.5 -1 0 -2.7 0.7 -3.7 1.5 -3 2.3 -7.7 1.8 -18.4 -1.6 -11.5 -3.8 -14 -5.4 -19.3 -12.6 -4.1 -5.4 -7.1 -7.4 -13.8 -8.8 l-3.4 -0.7 2 3.3 c2.1 3.5 4.1 7.3 6.3 12.1 0.7 1.5 2.1 3.6 3 4.5 0.9 1 3.3 4.5 5.4 7.8 2.1 3.3 7.6 11.2 12.2 17.6 4.6 6.4 8.4 12.3 8.4 13.1 0 0.9 0.9 1.8 2 2.1 1.3 0.3 2 1.4 2 2.9 0 1.4 1 2.9 2.4 3.8 1.3 0.8 5.7 5.3 9.7 10 4 4.7 8.1 9 9 9.5 3.2 1.8 24.7 22 25.4 23.8 0.3 0.9 1.2 1.7 1.8 1.7 1.4 0.1 5.7 3.5 5.7 4.5 0 1.5 14.1 12.5 15.9 12.5 0.9 0 7.1 4.2 20.6 14 2.7 1.9 5.3 3.8 5.9 4.1 0.6 0.3 2.2 1.2 3.6 1.9 7.4 3.9 13.6 7.4 14.5 8.1 1.7 1.2 19.3 9.9 30.5 15 l10.5 4.7 0.3 -3.8 c0.2 -2 -1.1 -8.9 -2.8 -15.3z m-140.2 -143.2 c0.2 -0.1 -0.2 -2.3 -0.8 -4.7 -0.6 -2.5 -1 -6 -0.8 -7.9 0.3 -3.1 0.6 -3.4 3.8 -3.7 1.9 -0.2 7 0.2 11.3 0.8 4.4 0.6 8.1 0.9 8.3 0.7 0.7 -0.7 -4.7 -6.1 -8.9 -8.9 l-3.9 -2.6 -6.6 1.9 c-3.7 1.1 -11.2 2.2 -16.8 2.6 l-10 0.6 -5.5 -8.4 c-7.3 -11.1 -7.9 -12.8 -7.9 -20.8 0 -7.4 -0.6 -8.4 -7 -11.5 -5.7 -2.9 -12.2 -4.6 -17.2 -4.6 l-4.8 0 0 4 c0 3.9 -0.1 4 -3.5 4 -1.9 0 -3.5 0.1 -3.5 0.3 0 1.1 5.1 13 9.9 23.1 l5.8 12.3 8.6 1.1 c11.7 1.5 14.7 3 19.6 9.6 4.8 6.4 7.2 8.2 15 11.3 4.1 1.6 6.8 2 10.1 1.6 2.5 -0.2 4.6 -0.6 4.8 -0.8z m44.1 -17.2 c2.9 -3.5 2.9 -3.7 1.4 -6.6 -0.8 -1.6 -4.1 -5.6 -7.3 -8.8 -5 -5.1 -6.3 -5.9 -9.5 -5.9 -2.3 0 -4.4 -0.7 -5.4 -1.7 -3.8 -4.2 -13.6 -12.7 -22.1 -19.3 -2.5 -1.9 -5.9 -4.7 -7.6 -6.2 -6.1 -5.5 -17.6 -13.8 -20 -14.4 -1.6 -0.4 -2.4 -1.3 -2.4 -2.8 0 -1.2 -2.9 -5.1 -7.3 -9.7 l-7.2 -7.6 -13 -0.6 c-7.2 -0.3 -15.2 -1.2 -18 -2 -5.9 -1.8 -14.5 -2.8 -14.5 -1.7 0 0.4 1.9 7 4.1 14.6 2.3 7.6 4.4 14.7 4.6 15.7 0.7 2.1 3.3 2.3 3.3 0.1 0 -1.3 0.9 -1.5 5.3 -1 2.8 0.4 9.5 1 14.7 1.5 9.8 0.9 13 1.7 19 4.6 6.4 3.3 7 4.2 7 11.6 0 8.2 0.7 10.1 7.2 20.1 4.9 7.3 5.4 7.8 8.8 7.8 1.9 0 6.7 -0.9 10.5 -2 3.8 -1.1 9.9 -2 13.5 -2 7.2 0 12 2.4 17 8.3 2.9 3.5 12.8 11.7 14 11.7 0.5 0 2.2 -1.6 3.9 -3.7z m592 -354.5 c-7.8 -15.6 -21.8 -39.3 -22.6 -38.4 -0.8 0.7 4.4 12.3 8 17.9 4.7 7.3 8.7 15.2 8.7 17.2 0 0.8 0.4 1.5 0.8 1.5 0.5 0 1.7 1.9 2.8 4.2 1.8 4.1 5 7.8 6.6 7.8 0.4 0 -1.5 -4.6 -4.3 -10.2z m-668.8 -14.6 c2.5 -1.1 5.8 -3.2 7.2 -4.6 2 -2 3.6 -2.6 6.9 -2.6 3.3 0 4.7 -0.6 6.5 -2.6 2.7 -3.2 13.6 -24.4 12.5 -24.4 -1.9 0 -12.9 12.5 -15.8 17.9 -2.7 5.2 -5.6 7.8 -9.5 8.6 -8.2 1.8 -13.8 4.6 -15.9 8 -2.6 4.2 -1.7 6.5 1.4 3.6 1.1 -1.1 4.2 -2.9 6.7 -3.9z m6.7 -17.8 c1.2 -1.3 2.2 -2.6 2.2 -2.9 0 -1.3 5.9 -9.2 11.9 -15.9 3.4 -3.8 6.1 -7.5 6.1 -8.1 0 -1.2 1.4 -1.9 7 -3.5 l2.5 -0.8 -2.7 -0.1 c-2.7 -0.1 -2.8 -0.3 -2.8 -5.3 0 -6.1 0.8 -9.8 2.2 -9.8 0.5 0 3.7 -1.9 7.1 -4.2 l6.2 -4.3 -4 -0.3 c-2.2 -0.2 -4.5 -0.8 -5.1 -1.3 -0.8 -0.7 -3.2 1.3 -7.8 6.6 -3.6 4.2 -6.6 8.2 -6.6 8.9 0 0.7 -2.6 4.5 -5.8 8.4 -5.1 6.4 -6.1 8.2 -8.2 16.3 -2.2 8.5 -2.7 9.5 -7.7 14.2 -2.9 2.8 -5.3 5.4 -5.3 5.8 0 1.5 8.6 -1.5 10.8 -3.7z m48.8 -36.4 c1.8 0 4.1 -0.8 5.3 -1.7 2 -1.6 2.1 -2.1 1 -5.3 -0.7 -1.9 -1.9 -4.4 -2.8 -5.6 -1.5 -2 -1.6 -2 -9 3.4 -4.2 3 -8.2 5.7 -9 6 -1.9 0.7 6.9 4.1 9.4 3.6 1.1 -0.2 3.4 -0.4 5.1 -0.4z m5.9 -42.4 c1.7 -1.8 4.1 -4.7 5.5 -6.6 l2.4 -3.5 -3.9 3.2 c-2.2 1.7 -6 5.2 -8.5 7.8 -4.2 4.4 -4.3 4.6 -1.5 3.4 1.7 -0.7 4.4 -2.6 6 -4.3z"/>
  <path d="M703 179.4 c-2.5 -2.5 -6.3 -5.5 -8.5 -6.6 -6.8 -3.5 -18.9 -11.1 -20.5 -12.8 -0.8 -0.8 -3.5 -3.1 -6 -5 -2.5 -1.9 -8.1 -7.1 -12.5 -11.6 -8.9 -9 -16.3 -14.3 -27.5 -19.5 -10.1 -4.8 -11.3 -5.2 -28.5 -9.4 -8.2 -2.1 -18.4 -5.3 -22.5 -7.2 -4.1 -1.9 -11.3 -4.2 -16 -5.1 -4.7 -0.9 -8.6 -2 -8.8 -2.4 -0.2 -0.5 -1 -0.8 -1.8 -0.8 -0.8 0 -3.3 -0.9 -5.6 -2.1 -2.3 -1.2 -7.6 -3.1 -11.7 -4.4 -4.2 -1.3 -11.2 -3.8 -15.6 -5.5 -4.4 -1.8 -9 -3.2 -10.3 -3.2 -2.1 0 -6.3 1.6 -16.7 6.2 -11.4 5.1 -27.6 8.1 -46.7 8.7 l-15.8 0.5 0 -4.1 c0 -2.5 0.5 -4.1 1.2 -4.1 2.7 0 10.6 -4.6 14.8 -8.6 2.5 -2.3 6.8 -5.3 9.5 -6.6 4.3 -2 5 -2.8 5.3 -5.6 0.4 -3.7 2.1 -4 10.9 -2 5.2 1.2 5.3 1.3 5.3 5 0 2.5 -0.5 3.8 -1.3 3.8 -2.6 0 -19.2 8.8 -21.6 11.4 l-2.4 2.6 2.4 0 c1.3 0 4 -0.5 5.9 -1 1.9 -0.6 6.6 -1.5 10.3 -2 6.4 -1 9.8 -2.2 23.7 -8.8 4.7 -2.2 6.9 -2.6 15 -2.6 8.5 -0.1 10.3 0.3 17.5 3.2 4.4 1.9 11.5 4.5 15.8 5.8 4.4 1.4 10.7 3.8 14 5.4 3.4 1.6 10 3.6 14.6 4.5 4.6 0.9 10.5 2.7 13 3.9 5.2 2.6 12.8 5.5 18.1 6.7 10.8 2.4 23.9 5.8 26.5 6.9 14.4 5.6 25.7 12.9 36 23.4 4.4 4.5 10 9.7 12.5 11.6 2.5 1.9 5.2 4.2 6 5 1.9 2 12.9 8.9 19 12 6.6 3.3 14 11.6 14 15.7 0 3.1 -0.2 3.3 -3.3 3.3 -2.6 0 -4.2 -1 -7.7 -4.6z"/>
 </g>
 <g fill="#22b14c">
  <path d="M275 796.9 c-4.1 -1.7 -12.5 -5.5 -18.7 -8.4 -6.1 -2.9 -11.4 -5 -11.7 -4.7 -0.4 0.3 -1.6 -0.4 -2.9 -1.5 -3.1 -2.8 -6.5 -4.5 -7.7 -3.8 -0.6 0.4 -0.9 0.2 -0.8 -0.5 0.2 -0.6 -2.6 -2.6 -6.2 -4.6 -3.6 -2 -6.9 -4 -7.4 -4.5 -0.6 -0.5 -1.8 -0.9 -2.7 -0.9 -0.9 0 -2.3 -0.7 -3 -1.6 -1.9 -2.3 -18.5 -13.4 -19.3 -12.8 -0.3 0.2 -0.4 0.1 -0.1 -0.2 0.6 -0.9 -4 -4.4 -5.8 -4.4 -2 0 -4.7 -3.3 -4.7 -5.8 0 -1.7 0.6 -2.2 2.8 -2.2 4.2 0.1 10.6 1.8 11 2.9 0.2 0.6 1.7 1.1 3.3 1.1 1.9 0 2.9 0.5 2.9 1.5 0 0.8 1.1 1.7 2.5 2.1 1.6 0.4 2.7 1.6 3.2 3.3 1.2 4.8 3.3 7.1 6.7 7.1 1.9 0 4.1 0.9 5.8 2.5 1.5 1.4 3.8 2.5 5.2 2.5 3.6 0 9.6 3.1 9.6 4.9 0.1 0.9 0.8 3.2 1.8 5.1 1.6 3.2 2 3.5 5.6 3.2 2.4 -0.2 4.2 0.2 4.8 1 0.7 1 1 0.9 1.9 -0.4 1.3 -2.3 8.9 -2.6 8.9 -0.3 0 0.8 0.6 1.5 1.4 1.5 0.8 0 1.6 0.7 2 1.5 0.5 1.5 3.6 2.1 3.6 0.7 0 -0.4 -0.5 -2.3 -1.1 -4.2 -1.2 -3.9 -2.7 -12.9 -3.6 -20.5 -0.3 -2.7 -0.9 -5.5 -1.4 -6.2 -0.6 -0.6 -1.6 -4.2 -2.4 -8 -0.7 -3.7 -1.4 -5.5 -1.4 -4 -0.1 2.7 -0.3 2.8 -4.8 2.5 l-4.8 -0.3 -0.9 -4.5 c-0.5 -2.5 -1 -6.4 -1 -8.7 -0.1 -2.4 -0.4 -4.3 -0.7 -4.3 -0.3 0 -0.9 -2.4 -1.2 -5.2 -0.4 -3 -1.3 -5.8 -2.2 -6.4 -0.8 -0.6 -1.5 -2.5 -1.5 -4.3 0 -3.8 -1.1 -3.9 -4.4 -0.6 -2.9 2.9 -9.6 3.6 -9.6 1 0 -0.9 -0.9 -1.5 -2.1 -1.5 -1.9 0 -2 -0.5 -1.7 -4.7 0.2 -3.9 0 -4.8 -1.4 -5.1 -1.1 -0.2 -1.8 0.3 -1.8 1.2 0 1.2 -1 1.6 -4 1.6 -3.3 0 -4 -0.3 -4 -2 0 -1.4 -0.7 -2 -2.2 -2 -1.3 0 -3.4 -1.2 -4.7 -2.6 -3.7 -3.9 -9 -6.1 -13.9 -5.6 -2.7 0.3 -4.2 0.9 -4.2 1.8 0 0.9 -1.2 1.4 -3.5 1.4 -3 0 -3.5 -0.3 -3.5 -2.4 0 -2.1 -0.6 -2.4 -5.7 -3.1 -7.2 -0.9 -9.5 -3.2 -9.1 -9 0.3 -3.3 0.7 -4.1 2.7 -4.3 3.5 -0.5 7.1 0.7 7.1 2.3 0 1 1 1.5 3 1.5 1.7 0 3 -0.3 3 -0.7 -0.1 -2.6 -1.4 -5.3 -2.6 -5.3 -0.8 0 -1.6 -0.6 -1.8 -1.2 -1.9 -6.7 -3 -9.8 -3.6 -9.8 -0.4 0 -1 -0.9 -1.3 -1.9 -0.4 -1.6 -1.1 -1.8 -5.1 -1.4 -4.5 0.6 -4.6 0.5 -4.6 -2.3 0 -1.6 -0.5 -3.6 -1 -4.4 -0.8 -1.2 -1 -1.1 -1 0.6 0 1.8 -0.8 2.3 -4.5 2.8 -2.4 0.4 -4.7 1.1 -5 1.7 -0.4 0.5 -2.6 0.9 -5.1 0.9 -2.9 0 -4.4 0.4 -4.4 1.3 0 1.6 3.6 4.7 5.5 4.7 1.1 0 1.5 1.1 1.5 3.6 l0 3.6 -7.2 -0.7 c-9.8 -0.9 -15.8 -4.5 -15.8 -9.3 0 -2.5 0.6 -3.5 2.3 -4.2 2.1 -0.8 2.1 -0.9 -0.5 -0.9 -4.4 -0.1 -7.8 -2.2 -7.8 -4.6 0 -2 -0.7 -2.3 -6.9 -2.9 -6.7 -0.7 -7 -0.8 -7.6 -3.7 -0.4 -1.6 -1.1 -2.9 -1.6 -2.9 -0.5 0 -0.9 -0.6 -0.9 -1.4 0 -0.7 -0.9 -1.6 -2 -1.9 -1.3 -0.3 -2 -1.4 -2 -2.8 0 -1.8 -0.3 -2 -1.2 -1.1 -0.7 0.7 -2 1.2 -3 1.2 -1 0 -1.8 0.7 -1.8 1.5 0 0.8 0.5 1.5 1 1.5 0.6 0 1 0.8 1 1.9 0 1 0.9 2.1 2 2.4 1.2 0.3 2 1.4 2 2.6 0 1.2 0.6 2.1 1.5 2.1 0.8 0 1.9 0.9 2.5 2 0.6 1.1 1.7 2 2.6 2 0.8 0 1.9 1.1 2.4 2.4 0.5 1.3 1.4 2.7 2 3.1 0.7 0.4 2 2.6 3.1 4.9 1.1 2.2 2.6 5.2 3.4 6.6 0.8 1.4 1.5 3.5 1.5 4.6 0 1.2 0.7 2.4 1.5 2.8 0.9 0.3 1.5 1.9 1.5 4.1 0 2.8 -0.4 3.5 -2 3.5 -1.3 0 -2 -0.7 -2 -1.9 0 -1.1 -0.5 -2.3 -1.2 -2.7 -0.7 -0.4 -0.8 -0.3 -0.4 0.4 0.4 0.7 0.5 1.2 0.2 1.2 -0.3 0 -1 -1 -1.7 -2.1 -0.9 -1.7 -0.8 -2 0.3 -1.3 0.7 0.4 -0.4 -1.4 -2.4 -4.1 -2.1 -2.8 -7 -9.7 -10.9 -15.5 -4 -5.8 -7.6 -10.4 -8.1 -10.2 -0.5 0.1 -0.6 -0.3 -0.2 -0.9 0.3 -0.6 0.2 -1.4 -0.3 -1.8 -1.3 -0.9 -5.3 -6.8 -5.3 -7.8 0 -0.5 -2.3 -5.1 -5.1 -10.2 -2.9 -5 -5 -9.4 -4.7 -9.6 0.8 -0.8 14.6 1.4 18.2 2.9 2 0.8 5.1 3.7 7.5 6.9 5.3 7.3 7.8 8.8 19.4 12.6 l9.9 3.2 3.1 -2 c1.8 -1.2 2.6 -2.1 1.8 -2.1 -0.8 0 -2.2 0.7 -3.1 1.5 -1.2 1.1 -2.3 1.2 -4.6 0.5 -1.6 -0.5 -5.8 -1.9 -9.4 -3.1 -8.3 -2.8 -11.1 -4.8 -16.1 -11.6 -4.8 -6.4 -7.8 -7.9 -19.2 -9.4 -11.3 -1.5 -12.7 -3.3 -1.9 -2.4 12.3 1 17.6 2.8 20.9 7.3 6.5 8.7 10.5 11.6 19.3 14.4 5.1 1.6 8.9 2.3 9.5 1.7 0.5 -0.5 2 -0.9 3.3 -0.9 2.3 0 2.4 -0.3 1.8 -3.7 -1.9 -10 -1.9 -12.2 -0.2 -12.9 0.9 -0.4 6.6 -0.1 12.7 0.6 6 0.7 11.1 1.1 11.4 0.9 0.7 -0.7 -7 -8.6 -11.2 -11.3 l-4.1 -2.8 -7.4 2.1 c-4.1 1.2 -11.5 2.4 -16.4 2.7 l-9.1 0.7 -5.6 -8.4 c-7 -10.6 -7.7 -12.5 -7.7 -20.8 0 -7.4 -0.6 -8.4 -7 -11.5 -6.3 -3.2 -12.4 -4.6 -19.5 -4.6 -3.8 0 -7.7 -0.5 -8.5 -1 -1.9 -1.2 -1.5 -1.2 9 -1 8.7 0.1 14.8 1.5 21 4.6 6.4 3.2 7 4.1 7 11.5 0 8 0.7 9.7 7.9 20.8 l5.4 8.3 7.4 -0.7 c4.1 -0.4 10.5 -1.5 14.1 -2.6 3.7 -1 7.8 -1.9 9.2 -1.9 3.1 0 9.2 4 14.5 9.5 12 12.6 17.2 14.2 23.7 7.5 3.2 -3.5 3.8 -4.8 3.8 -8.4 0 -3.5 -0.7 -5.4 -3.7 -9.4 -8.2 -10.7 -9.9 -12.2 -14.3 -12.2 -3.6 0 -4.8 -0.7 -10.3 -5.9 -6.9 -6.5 -26 -22.2 -37.8 -30.9 -4.2 -3.1 -8.4 -6.8 -9.2 -8.2 -0.9 -1.4 -4.8 -5.8 -8.6 -9.7 l-6.9 -7.3 -9.9 0 c-5.4 0 -12.7 -0.7 -16.3 -1.5 -3.6 -0.9 -11.1 -2.1 -16.7 -2.8 -9.5 -1.2 -12.3 -2 -11.2 -3.2 0.7 -0.7 22.9 2.2 26.9 3.5 1.9 0.6 9.3 1.4 16.5 1.7 l13 0.6 6.3 6.6 c3.5 3.6 7.5 8.3 8.9 10.4 1.4 2 2.9 3.7 3.3 3.7 0.9 0 13.9 9.7 18.4 13.8 1.7 1.5 5.1 4.3 7.6 6.2 8.5 6.6 18.3 15.1 22.1 19.3 1 1 3.1 1.7 5.2 1.7 4.2 0 10.8 5.4 15.7 12.8 2.5 3.8 3 5.5 3 10.8 0 6 -0.2 6.5 -3.8 10.4 -3.5 3.6 -4.4 4 -8.7 4 -3.8 0 -4.6 0.3 -4.1 1.5 0.3 0.9 1.5 5.2 2.6 9.6 2.6 10.6 9.8 24.9 15.1 30 5.3 5.1 8.1 6.5 14.9 7.4 16.6 2.2 29 8 44.3 20.6 1.8 1.4 4.6 3.3 6.2 4.2 4.6 2.3 6.7 4.6 11.3 12 3 4.8 4.5 8.6 5.2 13.1 0.5 3.5 1.7 8.3 2.6 10.7 0.8 2.4 2.1 8.6 2.9 13.7 0.8 5.1 2.7 14.3 4.4 20.5 2.8 10.8 4.8 29.7 3.1 29.7 -1.4 0 -2 -3 -2 -9.6 0 -4 -1.3 -11.3 -3.4 -19.6 -1.9 -7.3 -3.7 -15.9 -4.1 -19.2 -0.4 -3.2 -1.7 -9.3 -2.9 -13.5 -1.3 -4.2 -2.6 -9.8 -3 -12.4 -0.5 -3 -2.3 -7.4 -4.9 -11.5 -4.5 -7.3 -6.7 -9.6 -11.2 -11.9 -1.6 -0.9 -4.5 -2.9 -6.3 -4.4 -1.8 -1.6 -3.7 -2.9 -4.1 -2.9 -0.5 0 -2.8 -1.6 -5.2 -3.6 -8.4 -7 -21.1 -12.1 -34.9 -13.9 -3 -0.4 -6.7 -1.3 -8.1 -2.1 -8.8 -4.5 -18.3 -20.1 -22.5 -37.2 -3.5 -14 -5.5 -16.2 -15 -16.2 -2.5 0 -7.7 -0.5 -11.6 -1.1 -4.4 -0.7 -7.4 -0.7 -8 -0.1 -0.5 0.5 -0.3 3.4 0.8 7.6 2.1 8.3 3 8.1 1.1 -0.3 -0.8 -3.4 -1.2 -6.3 -0.8 -6.5 0.8 -0.5 19.7 1.3 23.5 2.2 4.2 1 6.3 4.5 9.1 15.7 2.4 9.1 8.9 24.5 10.8 25.3 0.4 0.2 0.7 0.8 0.7 1.4 0 1.3 7.7 8.6 10.9 10.2 1.4 0.8 5.1 1.7 8.1 2.1 16.6 2.2 29 8 44.3 20.6 1.8 1.4 4.6 3.3 6.2 4.2 4.6 2.3 6.7 4.6 11.3 12 3 4.8 4.5 8.6 5.2 13.1 0.5 3.5 1.7 8.3 2.6 10.7 0.8 2.4 2.1 8.6 2.9 13.7 0.8 5.1 2.8 14.4 4.5 20.7 2 7.5 3 13.8 3 18.4 0 5 0.4 7.4 1.6 8.5 2.1 2.2 1.1 2 -7.6 -1.5z m-89.2 -116.1 c-0.5 -3.2 -2.8 -3.5 -2.8 -0.4 0 1.7 0.5 2.6 1.6 2.6 1 0 1.4 -0.7 1.2 -2.2z m-26.3 -43.7 c-0.3 -1.2 -1.5 -2.1 -2.6 -2.1 -2.5 0 -2.7 4.7 -0.1 5.3 2.4 0.5 3.5 -0.7 2.7 -3.2z"/>
  <path d="M173 735.8 c0 -0.6 -0.3 -0.8 -0.7 -0.5 -0.3 0.4 -1.2 -0.2 -2 -1.3 -0.8 -1.1 -2 -2 -2.8 -2 -0.7 0 -1.7 -0.8 -2 -1.7 -0.7 -1.7 -23.8 -23.4 -25.7 -24.2 -2.6 -1 -7.7 -7.8 -7.8 -10.4 0 -2.7 0.1 -2.8 4.8 -2.5 4.3 0.3 4.8 0.5 5.6 3.5 0.7 2.4 1.6 3.3 3.5 3.5 1.8 0.2 3 1.3 4 3.6 1.1 2.3 2.1 3.2 3.9 3.2 1.5 0 2.6 0.7 2.9 2 0.3 1.1 0.9 2 1.4 2 0.5 0 0.9 0.6 0.9 1.4 0 0.7 0.9 1.6 2 1.9 1.1 0.3 2.3 1.3 2.7 2.4 0.3 1 1.5 3 2.5 4.5 1 1.4 1.8 3.6 1.8 4.7 0 1.6 0.6 2.1 2.4 2.1 4.5 0 5.6 1 5.6 5.1 0 2.8 -0.4 3.9 -1.5 3.9 -0.8 0 -1.5 -0.5 -1.5 -1.2z"/>
  <path d="M230.7 731.3 c-0.4 -0.3 -0.7 -1.5 -0.7 -2.6 0 -1.1 -0.7 -2.5 -1.6 -3.2 -1.4 -1 -1.5 -2.2 -1 -6.8 l0.7 -5.7 4 0 c2.8 0 3.9 0.4 3.9 1.5 0 0.8 0.5 1.5 1.1 1.5 3.5 0 5.1 8.1 2.7 13.3 -1.1 2.2 -2 2.7 -4.9 2.7 -2 0 -3.9 -0.3 -4.2 -0.7z"/>
  <path d="M202 724.5 c0 -3.3 0.2 -3.5 3.5 -3.5 3.3 0 3.5 0.2 3.5 3.5 0 3.3 -0.2 3.5 -3.5 3.5 -3.3 0 -3.5 -0.2 -3.5 -3.5z"/>
  <path d="M186.7 698.3 c-0.4 -0.3 -0.7 -2.2 -0.7 -4 0 -3.3 0.1 -3.4 3.8 -3.1 3.5 0.3 3.7 0.5 4 4.1 0.3 3.6 0.2 3.7 -3.1 3.7 -1.8 0 -3.7 -0.3 -4 -0.7z"/>
  <path d="M154.3 670.3 c-1.3 -0.5 -1.8 -6 -0.7 -8.7 0.4 -1 1.8 -1.6 3.9 -1.6 3.6 0 4.5 1.5 4.5 7.8 0 3 -0.2 3.2 -3.2 3.1 -1.8 0 -3.9 -0.3 -4.5 -0.6z"/>
  <path d="M165.9 616.6 c-3.5 -2.9 -7.3 -6.4 -8.4 -7.8 -3.4 -4.1 -9.7 -7.8 -13.5 -7.8 -1.9 0 -6.4 0.8 -10 1.9 -3.6 1 -9.5 2.1 -13.1 2.5 l-6.7 0.7 -5.5 -8.3 c-7 -10.5 -7.7 -12.4 -7.7 -20.7 0 -7.4 -0.6 -8.3 -7 -11.6 -6.1 -3 -9.2 -3.7 -19 -4.5 -5.2 -0.4 -10.5 -1.1 -11.8 -1.5 -1.3 -0.4 -2.2 -0.4 -2.1 0.1 0.5 2.7 -0.3 3.4 -2.8 2.9 l-2.8 -0.5 2.7 1.3 c2.6 1.2 2.6 1.3 0.8 2.5 -4 2.5 -4.8 1.5 -8.4 -9.5 -1.9 -6 -4.6 -15.3 -6.1 -20.8 -1.4 -5.5 -2.8 -10.7 -3.1 -11.6 -0.4 -1.4 0.7 -1.4 9.8 -0.3 5.7 0.7 11.9 1.8 13.8 2.4 1.9 0.6 9.3 1.4 16.5 1.7 l13 0.6 6.3 6.6 c8 8.3 10.8 12.1 9 12.1 -0.7 0 0.5 0.9 2.7 1.9 3.2 1.5 19.6 13.7 21.5 16 0.3 0.4 2.5 2.2 5 4.1 8.3 6.4 18.2 15.1 22.1 19.3 1 1 3.1 1.7 5.2 1.7 4.2 0 10.8 5.4 15.7 12.8 4.2 6.4 4 10.1 -0.8 15.2 -5.2 5.4 -7.3 5.2 -15.3 -1.4z"/>
  <path d="M780 584.6 c0 -9.4 0.7 -11.8 5.3 -19.1 4.4 -6.8 6.7 -13.9 6.7 -20.5 0.1 -3.3 0.8 -6.7 1.8 -8.5 3.9 -6.9 6.8 -10.5 8.5 -10.5 1.6 0 1.4 0.7 -1.6 4.9 -5.5 7.6 -6.7 10.6 -6.7 16.4 0 6.5 -2.3 13.7 -6.2 19.5 -4.6 6.7 -5.8 10.5 -5.8 18.7 0 4.3 -0.4 7.5 -1 7.5 -0.6 0 -1 -3.5 -1 -8.4z"/>
  <path d="M783 584.8 c0 -6.6 0.9 -9.4 5.3 -16.3 4.3 -6.7 6.7 -13.9 6.7 -20.3 0 -5.6 1.3 -9 6.2 -15.6 3 -4 3 -4 2.4 -1.1 -2.8 12.3 -16.2 51.5 -19.7 57.5 -0.5 1 -0.8 -0.5 -0.9 -4.2z"/>
  <path d="M55 569 c0 -1.2 0.8 -1.2 3.5 0 1.8 0.8 1.7 0.9 -0.7 0.9 -1.6 0.1 -2.8 -0.3 -2.8 -0.9z"/>
  <path d="M60.2 568.1 c-0.8 -0.5 -0.6 -1.2 0.7 -2.3 2 -1.7 3.1 -1.4 3.1 0.8 0 1.5 -2.3 2.4 -3.8 1.5z"/>
  <path d="M805.2 498 c-1.7 -5.5 -1.5 -13.6 0.8 -41.5 2.2 -25.5 2.7 -29.5 4.1 -29.5 0.5 0 0.9 -1.3 0.9 -3 0 -2.6 0.4 -3 2.8 -3 2.4 0.1 2.5 0.2 1 1.4 -1 0.7 -1.8 2.3 -1.8 3.4 0 1.1 -0.4 2.3 -0.9 2.6 -1.4 0.9 -2 4.9 -4.1 30.1 -2.4 28.8 -2.4 33.2 -0.5 37.8 1.8 4.4 1.9 5.7 0.2 5.7 -0.6 0 -1.8 -1.8 -2.5 -4z"/>
  <path d="M808.1 494.3 c-1.2 -4 -1.2 -7.9 0.3 -28.2 1.9 -25.3 3.3 -36.1 4.7 -36.1 0.5 0 0.9 -1.3 0.9 -3 0 -1.6 0.5 -3 1 -3 1.3 0 1.3 21.7 0 37 -1.3 16.3 -4.2 38 -4.9 38 -0.4 0 -1.3 -2.1 -2 -4.7z"/>
  <path d="M41.8 338.8 c-0.3 -3 0.7 -6.5 2.3 -7.8 1.3 -1.2 4.5 -12.9 7 -25.2 0.7 -3.9 1.8 -6.8 2.5 -6.8 1.4 0 2.4 -2.3 2.4 -5.5 0 -2.1 2.7 -8.3 4.1 -9.5 1.1 -0.9 4.9 -10.2 4.9 -12 0 -0.9 1.1 -3 2.5 -4.6 l2.5 -2.9 0 10.2 0 10.2 -4.5 4.2 c-2.4 2.3 -4.7 5 -5 6 -0.4 1.1 -1.2 1.9 -2 1.9 -1.4 0 -1.9 2.9 -3.4 19.5 -0.8 10.3 -3 16.3 -7.1 20 -1.1 1 -2 2.6 -2 3.7 0 1.1 -0.7 1.8 -1.9 1.8 -1.5 0 -2.1 -0.8 -2.3 -3.2z"/>
  <path d="M791.2 313.8 c-1.1 -1.8 -3.4 -7.8 -5.1 -13.3 -5.1 -16.3 -8.4 -20.7 -19.7 -26.1 -0.6 -0.3 -2.1 -2.7 -3.4 -5.5 -1.3 -2.7 -2.7 -4.9 -3.2 -4.9 -0.4 0 -0.8 -0.7 -0.8 -1.5 0 -2 -4 -9.9 -8.7 -17.2 -5.2 -8.2 -8 -15.9 -8.9 -24.2 l-0.7 -7.3 -5.6 -3.6 c-7.4 -4.7 -8.1 -5.5 -8.1 -9.1 0 -2.9 0.2 -3.1 3.8 -3.1 3.9 0 9.2 1.9 9.2 3.3 0 0.4 0.6 0.7 1.4 0.7 1.3 0 2.8 2.2 3 4.5 0.1 0.6 3.5 6.2 7.7 12.5 17.5 26.7 32.8 58.1 43 87.9 1.6 4.7 2.9 8.7 2.9 9 0 0.3 -1.1 -1 -2.5 -2.9 -1.3 -1.9 -4 -8.4 -6 -14.5 -5.7 -17.5 -8.7 -21.6 -20.1 -27.1 -0.6 -0.3 -2.1 -2.7 -3.4 -5.5 -1.3 -2.7 -2.7 -4.9 -3.2 -4.9 -0.4 0 -0.8 -0.7 -0.8 -1.5 0 -2 -4 -9.9 -8.7 -17.2 -5.2 -8.2 -8 -15.9 -8.9 -24.2 l-0.7 -7.3 -6.1 -3.9 c-3.3 -2.1 -6.2 -3.6 -6.5 -3.4 -0.2 0.3 -0.2 0.6 0 0.8 0.2 0.1 2.9 1.9 6 3.9 l5.6 3.6 0.7 7.3 c0.9 8.3 3.7 16 8.9 24.2 4.7 7.3 8.7 15.2 8.7 17.2 0 0.8 0.4 1.5 0.8 1.5 0.5 0 1.9 2.2 3.2 4.9 1.3 2.8 2.8 5.2 3.4 5.5 8.6 4.1 11.2 6.5 14.8 13.7 2 4.1 4.8 11.2 6.3 15.8 1.4 4.6 3.4 9.6 4.5 11.1 2.4 3.3 2.5 4 0.6 4 -0.8 0 -2.3 -1.5 -3.4 -3.2z"/>
  <path d="M86.3 256 c-4.6 -2.7 -4.5 -7 0.2 -14.2 l3.5 -5.3 -2.5 -0.3 c-1.4 -0.2 -2.5 -0.8 -2.5 -1.3 0 -0.5 0.3 -0.8 0.8 -0.8 2.4 0.4 4.2 -0.9 11.7 -8.6 8.1 -8.4 8.3 -8.8 10.5 -17.3 1.2 -4.8 2.6 -9.1 3.1 -9.6 1.6 -1.7 1 3.6 -1.3 12.3 -1.8 7 -2.8 8.9 -6 12 -2.1 2 -5.4 5.4 -7.3 7.7 l-3.4 4.1 7.2 -2.1 c7.7 -2.3 10.1 -4 13.1 -9.7 3.4 -6.4 16.1 -20.3 18.8 -20.5 1.3 -0.1 0.7 1.1 -2.5 4.8 -9.2 10.6 -13.5 16 -14.8 18.6 -2.5 4.7 -5 7 -8.7 7.7 -1.9 0.4 -5.9 1.5 -8.7 2.6 -4.6 1.7 -5.8 2.8 -9.5 8.5 -4.6 7.1 -4.6 6.8 1.2 9.9 3.8 2.1 7.2 1.9 9.4 -0.6 1 -1.2 4.2 -3.2 7 -4.5 2.9 -1.2 6.3 -3.4 7.8 -4.8 1.9 -2 3.5 -2.6 6.8 -2.6 5.5 0 6 -0.7 14.3 -16.4 6.3 -12.1 7.5 -15.8 5.5 -17.1 -0.6 -0.4 -0.8 -1 -0.5 -1.5 0.3 -0.5 -0.6 -1.2 -2 -1.6 -2.4 -0.6 -3.1 -1.5 -1.9 -2.6 0.7 -0.8 5.5 1.7 6.5 3.4 2.2 3.4 0.8 9 -5.1 20.7 -7.8 15.3 -9.3 17.1 -14.8 17.1 -3.3 0 -4.9 0.6 -6.8 2.6 -1.5 1.4 -4.9 3.6 -7.8 4.8 -2.8 1.3 -6 3.3 -7 4.5 -2.5 2.8 -9.8 2.9 -14.3 0.1z"/>
  <path d="M89.2 253 c-1.9 -1.1 -3.2 -2.4 -3 -2.8 0.2 -0.4 1.8 -3 3.6 -5.9 2.7 -4.3 4.2 -5.5 8.5 -7.1 2.9 -1.1 6.7 -2.3 8.6 -2.7 3.9 -0.8 6.8 -3.4 9.5 -8.6 2 -3.8 4.3 -6.7 12.6 -15.8 3.9 -4.2 5.1 -5 5.6 -3.7 0.3 0.9 1 1.6 1.6 1.6 0.5 0 0.6 -0.6 0.2 -1.2 -0.6 -0.9 -0.3 -0.9 0.9 0 3.3 2.7 2.9 4.9 -3.3 17 -7.8 15.4 -9.3 17.2 -14.8 17.2 -3.3 0 -4.9 0.6 -6.8 2.6 -1.5 1.4 -4.9 3.6 -7.8 4.8 -2.8 1.3 -6 3.3 -7 4.5 -2.4 2.6 -4.2 2.6 -8.4 0.1z"/>
  <path d="M91.1 224.8 c5.9 -9.5 17.3 -25.8 17.7 -25.4 0.1 0.2 -0.7 4 -1.9 8.4 -2.1 7.8 -2.5 8.5 -10.5 16.7 -4.5 4.7 -8.7 8.5 -9.3 8.5 -0.6 0 1.2 -3.7 4 -8.2z"/>
  <path d="M142 196.9 c-1.9 -1 -4.5 -1.9 -5.7 -1.9 -2.1 0 -2.3 -0.5 -2.3 -5.1 0 -5.7 -0.1 -5.6 12.3 -14.4 7.3 -5.1 8.2 -5.5 13.5 -5.5 4.7 0.1 6 0.4 7.3 2.3 2.6 3.7 3.9 8.7 3.9 15.2 0 7.4 -1 8.5 -8.3 9.7 -11.9 1.8 -17 1.8 -20.7 -0.3z m11.4 -0.4 c2.7 -0.8 6.3 -1.5 8 -1.5 4.9 0 7.6 -2.5 7.6 -6.8 0 -2 -0.5 -5.5 -1.1 -7.6 -3 -10.8 -7.9 -11.4 -20.1 -2.6 -4.6 3.3 -8.8 6 -9.4 6 -1.2 0 -2.4 3.2 -2.4 6.6 0 1.7 0.8 2.3 3.9 2.8 2.1 0.3 4.9 1.5 6.2 2.6 1.3 1 2.4 1.9 2.4 2 0 0 2.2 -0.7 4.9 -1.5z"/>
  <path d="M145 193.9 c-1.9 -1 -4.5 -1.9 -5.7 -1.9 -1.7 0 -2.3 -0.6 -2.3 -2.1 0 -2.4 1.5 -3.7 12.3 -11.4 8.6 -6.1 12.2 -6.8 14.8 -3.2 3.8 5.4 5.1 14.5 2.3 16.8 -0.8 0.7 -3.9 1.6 -6.7 2 -2.9 0.4 -6.5 1 -8.2 1.2 -1.9 0.3 -4.3 -0.2 -6.5 -1.4z"/>
  <path d="M700.9 175.4 c-0.7 -0.8 -3.6 -2.7 -6.3 -4.1 -6.7 -3.4 -17.7 -10.3 -19.6 -12.3 -0.8 -0.8 -3.5 -3.1 -6 -5 -2.5 -1.9 -8.1 -7.1 -12.5 -11.6 -10.3 -10.5 -21.6 -17.8 -36 -23.4 -2.6 -1.1 -15.7 -4.5 -26.5 -6.9 -5.3 -1.2 -12.9 -4.1 -18.1 -6.7 -2.5 -1.2 -8.4 -3 -13 -3.9 -4.6 -0.9 -11.2 -2.9 -14.6 -4.5 -3.3 -1.6 -9.6 -4 -14 -5.4 -4.3 -1.3 -11.4 -3.9 -15.8 -5.7 -9.5 -3.9 -13.2 -4 -20.5 -0.6 -3 1.4 -8.1 3.7 -11.2 5.1 -3.1 1.4 -8.7 3 -12.5 3.6 -3.7 0.5 -8.4 1.4 -10.3 2 -1.9 0.6 -9.9 1.4 -17.7 1.7 -11.9 0.5 -14.3 0.4 -14.3 -0.8 0 -1.1 2.3 -1.4 11.3 -1.4 14.8 0 33.1 -3.5 44.2 -8.5 17.7 -7.9 20.7 -8.2 33 -3.1 4.4 1.8 11.4 4.3 15.6 5.6 4.1 1.3 9.4 3.2 11.7 4.4 2.3 1.2 4.8 2.1 5.6 2.1 0.8 0 1.6 0.3 1.8 0.8 0.2 0.4 4.1 1.5 8.8 2.4 4.7 0.9 11.9 3.2 16 5.1 4.1 1.9 14.3 5.1 22.5 7.2 17.2 4.2 18.4 4.6 28.5 9.4 11.2 5.2 18.6 10.5 27.5 19.5 4.4 4.5 10 9.7 12.5 11.6 2.5 1.9 5.2 4.2 6 5 1.6 1.8 13.8 9.3 20.5 12.8 2.2 1.1 5.1 3.2 6.4 4.6 2.4 2.5 2.4 2.6 0.4 2.6 -1.1 0 -2.6 -0.7 -3.4 -1.6z"/>
  <path d="M705 174 c-1.2 -1.7 -4.5 -4.2 -7.3 -5.7 -6.8 -3.4 -17.8 -10.3 -19.7 -12.3 -0.8 -0.8 -3.5 -3.1 -6 -5 -2.5 -1.9 -8.1 -7.1 -12.5 -11.6 -10.3 -10.5 -21.6 -17.8 -36 -23.4 -2.6 -1.1 -15.7 -4.5 -26.5 -6.9 -5.3 -1.2 -12.9 -4.1 -18.1 -6.7 -2.5 -1.2 -8.4 -3 -13 -3.9 -4.6 -0.9 -11.2 -2.9 -14.6 -4.5 -3.3 -1.6 -9.6 -4 -14 -5.4 -4.3 -1.3 -11.4 -3.9 -15.8 -5.7 -10.4 -4.3 -18.3 -4.5 -26.5 -0.7 -14.4 6.8 -17.3 7.9 -23.7 8.8 -3.7 0.5 -8.4 1.4 -10.3 2 -1.9 0.6 -8.7 1.3 -15 1.6 l-11.5 0.6 5 -2.5 c2.8 -1.4 6.6 -4.2 8.5 -6.2 3.3 -3.5 19.7 -12.5 22.7 -12.5 3 0 0.9 -1.6 -3.4 -2.7 -5.6 -1.3 -7 -0.8 -2.4 0.8 l3.3 1.2 -8.9 4.2 c-5 2.4 -10.3 5.9 -12.3 8 -1.9 2 -5.8 4.7 -8.6 6.1 -5.8 2.8 -6.4 2.9 -6.4 1.2 0 -0.7 2 -2.1 4.3 -3.2 2.3 -1 6.2 -3.8 8.7 -6.1 2.5 -2.4 7.2 -5.7 10.5 -7.4 3.3 -1.6 5.2 -3 4.3 -3.1 -1.4 0 -1.8 -0.8 -1.8 -3.4 0 -4.2 -0.8 -6.6 -2.4 -6.6 -0.6 0 -3.8 -1.4 -7 -3 -3.2 -1.7 -6 -3 -6.1 -3 -0.2 0 -0.1 0.9 0.2 2 0.3 1.1 1.4 2 2.4 2 1.5 0 1.9 0.7 1.9 3.6 l0 3.7 -5.1 -0.5 c-3.1 -0.3 -6.1 -1.4 -7.7 -2.7 -1.5 -1.1 -4.8 -3.2 -7.4 -4.6 -2.7 -1.4 -4.8 -3.1 -4.8 -3.8 0 -1.6 -4.2 -5.7 -5.8 -5.7 -0.6 0 -1.5 -0.8 -2 -1.7 -0.8 -1.4 -1.2 -1.2 -2.6 1.5 -0.9 1.7 -4.1 5.8 -7.1 9.1 -3.1 3.2 -7.1 8 -9.1 10.5 -1.9 2.5 -4.4 5.1 -5.6 5.7 -1.2 0.7 -7.5 1.5 -14.1 2 -12.3 0.9 -16.6 2.3 -22.2 7.6 -6.3 6 -13.6 11 -17.5 12.2 -4.6 1.4 -9.1 2.9 -21.6 7.5 -8.5 3.2 -13.8 7.9 -14.8 13 -0.5 2.7 -1.3 3.7 -3.2 4.2 -3.7 0.9 -19.6 0 -21.9 -1.3 -1.1 -0.7 -2.8 -1.4 -3.8 -1.7 -1.4 -0.4 -1.7 -1.7 -1.7 -6.4 l0 -5.8 6.7 -5 c3.6 -2.7 7.6 -5.6 8.7 -6.4 2.4 -1.7 6.6 -6.2 6.6 -7.1 0 -0.9 -7.3 -2.9 -10.4 -2.9 -1.4 0 -6.7 1.6 -11.8 3.5 -5.1 1.9 -9.9 3.5 -10.6 3.5 -0.7 0 -3.2 1 -5.5 2.2 -2.3 1.2 -8.4 3.6 -13.5 5.4 -8.7 3 -12.1 4.9 -24.6 13.9 -4.6 3.4 -5.1 3.5 -13.7 3.5 -5.3 0 -8.9 -0.4 -8.9 -1 0 -0.6 3 -1 7.1 -1 7.9 0 11.6 -1.3 17.5 -6.4 5.5 -4.7 13.7 -9 21.9 -11.5 3.9 -1.2 8.3 -2.9 9.8 -3.8 1.6 -0.8 8.6 -3.5 15.5 -5.9 14.1 -4.9 18.7 -5.3 27.4 -2.6 l5.7 1.8 -5.3 5.4 c-2.9 3 -8.8 8 -12.9 11 -7.1 5.1 -7.6 5.8 -7.7 9.2 0 2 0.4 3.9 0.9 4.2 0.5 0.4 0.7 -1 0.4 -3.2 -0.5 -3.5 -0.2 -3.9 4.4 -7.1 2.6 -1.9 6.2 -4.6 7.9 -6 1.8 -1.4 4 -3.3 5 -4.1 1.1 -0.8 3.7 -3.5 5.8 -5.9 l3.9 -4.4 -4.9 -1.4 c-2.7 -0.8 -8 -1.7 -11.9 -2 -6.3 -0.4 -8 -0.1 -16.5 3.1 -5.2 2 -10.1 3.6 -10.8 3.6 -0.7 0 -3.2 1 -5.5 2.2 -2.3 1.2 -8.4 3.6 -13.5 5.4 -8.7 3 -12.1 4.9 -24.6 13.9 -4.3 3.1 -5.5 3.5 -11 3.5 l-6.1 0 3 -2.4 c5.9 -4.8 31.2 -20.1 45 -27.3 48.3 -25 96.5 -38.6 153 -43.3 6.6 -0.5 12.6 -1 13.3 -1 1.9 0 1.4 4.1 -0.9 7.9 -1.2 1.9 -4.3 5.8 -6.9 8.5 -2.7 2.8 -6.5 7.2 -8.5 9.8 -1.9 2.6 -4.5 5.3 -5.7 5.9 -1.2 0.7 -7.5 1.5 -14.1 2 -12.3 0.9 -16.6 2.3 -22.2 7.6 -6.3 6 -13.6 11 -17.5 12.2 -4.6 1.4 -9.1 2.9 -21.6 7.6 -6.9 2.5 -15.4 9 -15.4 11.7 0 0.6 2.1 -1.1 4.8 -3.7 4 -4.1 6.4 -5.4 16.7 -9.1 6.6 -2.4 12.5 -4.4 13.2 -4.4 3 0 10.4 -4.3 16.3 -9.5 10.9 -9.5 13.1 -10.5 26.7 -11.4 6.6 -0.5 12.9 -1.4 14.1 -2 1.3 -0.7 3.6 -3.1 5.3 -5.3 1.6 -2.3 5.2 -6.6 7.9 -9.5 6.9 -7.4 10.5 -13.1 10.2 -16 -0.5 -3.5 1 -2.8 3.6 1.7 1.2 2.2 2.8 4 3.6 4 1.5 0 5.6 4.2 5.6 5.8 0 0.6 1.9 2.1 4.3 3.3 2.3 1.2 5.7 3.3 7.5 4.7 1.7 1.3 3.2 2.1 3.2 1.7 0 -1.2 -4.3 -4.4 -9.2 -7 -2.7 -1.4 -4.8 -3.1 -4.8 -3.8 0 -1.5 -3.7 -5.1 -6 -5.9 -0.8 -0.3 -2.3 -2 -3.3 -3.7 l-1.8 -3.1 12.8 0 c55.4 0.1 114.6 13.8 166.1 38.5 35.3 17 67.4 38.5 94 63 5.6 5.3 10.7 9.3 11.1 9 0.5 -0.2 1.4 0.2 2.1 1 0.7 0.8 0.9 1.5 0.4 1.5 -0.4 0 0.3 1.1 1.6 2.5 1.3 1.4 2.9 2.5 3.6 2.5 0.7 0 1.5 0.9 1.9 1.9 0.3 1 1.5 2.1 2.5 2.4 1.4 0.3 2 1.4 2 3.1 0 1.4 -0.4 2.6 -0.9 2.6 -0.6 0 -1.1 1.7 -1.3 3.7 -0.4 4.7 -2 5.2 -4.8 1.3z m-383.2 -104.9 c3.2 -1.7 9.3 -1.4 10.8 0.7 1.2 1.6 1.4 1.6 4.2 0 1.7 -1 3.9 -1.8 4.9 -1.8 2.9 0 6.3 -2.9 6.3 -5.4 0 -1.4 0.9 -2.7 2.3 -3.4 5.1 -2.5 -1.8 -1.1 -13.1 2.7 -6.4 2.1 -14.5 4.7 -17.9 5.6 -6 1.7 -7.1 2.4 -5.7 3.7 0.6 0.7 5.2 -0.5 8.2 -2.1z"/>
  <path d="M139.4 168.5 c-0.9 -1.4 -1.3 -3.2 -1 -4.2 0.6 -1.4 1 -1.1 2.6 1.5 1.1 1.8 2.6 3.2 3.3 3.2 0.7 0 3.5 -2.1 6.2 -4.7 2.7 -2.5 7.3 -5.7 10.3 -7.1 4.1 -1.9 6.4 -3.8 9.9 -8.6 2.5 -3.3 5.1 -7.4 5.8 -9.1 6.2 -14.6 7.5 -17 7.5 -14 0 3.7 -5.2 16.6 -8.8 22 -4.7 6.9 -7.2 9.3 -12.9 12 -3 1.5 -7.5 4.7 -10.1 7.1 -5.6 5.3 -10.1 6 -12.8 1.9z"/>
  <path d="M142.6 165.8 c-0.9 -1.2 -1.6 -3 -1.6 -3.9 0 -1.7 19.6 -20.3 33.5 -31.8 6.6 -5.5 7.5 -6 6.2 -3.4 -0.9 1.6 -2.5 5.4 -3.6 8.3 -3.9 10.2 -10.2 17.8 -17.8 21.5 -3 1.5 -7.5 4.7 -10.1 7.1 -2.5 2.4 -4.7 4.4 -4.9 4.4 -0.1 0 -0.9 -1 -1.7 -2.2z"/>
 </g>
 <g fill="#a48054">
  <path d="M267 791.8 c0 -0.9 -0.5 -2 -1 -2.3 -0.6 -0.4 -0.9 -1.4 -0.8 -2.3 0.2 -1.3 -0.3 -1.6 -2.5 -1.4 -1.5 0.2 -2.7 0 -2.6 -0.5 0.4 -2.1 -0.2 -3.3 -1.6 -3.3 -0.8 0 -1.5 -0.7 -1.5 -1.5 0 -2.2 -0.9 -1.9 -4.1 1.6 -2.1 2.2 -3.4 2.9 -4.7 2.4 -0.9 -0.4 -2.4 -0.8 -3.2 -0.9 -4.2 -0.3 -13 -10.2 -11.4 -12.7 0.5 -0.8 -1.1 -1.3 -1.9 -0.6 -0.2 0.1 -1.2 -0.7 -2.3 -1.7 -1.9 -2 -1.9 -1.9 -2.2 0.7 -0.2 1.9 -0.9 2.7 -2.3 2.7 -1 0 -1.8 -0.3 -1.7 -0.7 0.4 -1.3 -2.4 -5.7 -4.6 -7.3 -2.6 -1.9 -3.1 -1.9 -3.2 0 -0.2 3 -0.4 3.2 -2 1.9 -2.3 -1.9 -6 -7.9 -6.7 -11 -0.7 -2.8 -3.6 -4.2 -5.8 -2.8 -0.8 0.5 -0.9 0.9 -0.4 0.9 1.1 0 -1.6 2 -2.8 2 -0.4 0 -0.3 -0.9 0.3 -2 1.2 -2.3 0.6 -4 -1.6 -4 -0.8 0 -1.4 -0.6 -1.4 -1.4 0 -0.8 -0.7 -1.7 -1.6 -2 -1.9 -0.7 -5.7 1.1 -4.9 2.5 1.2 1.9 -0.8 0.8 -6.8 -3.8 -7.6 -5.8 -8.7 -6.9 -8.7 -8.3 0 -0.6 -0.4 -0.8 -1 -0.5 -0.5 0.3 -1 0.2 -1 -0.4 0 -0.5 0.6 -1.2 1.3 -1.4 2 -0.9 -1.1 -2.5 -3.8 -2 -1.7 0.4 -2.5 -0.1 -3 -1.9 -0.5 -1.2 -0.8 -2.5 -0.8 -2.8 0.1 -0.3 -0.9 -1.8 -2.1 -3.5 -1.1 -1.6 -2.1 -3.4 -2.1 -4 0 -0.5 -1 -1.4 -2.2 -2 -1.3 -0.5 -2.3 -1.5 -2.3 -2.2 0 -0.7 -0.4 -1.3 -0.9 -1.3 -0.5 0 -1.1 -0.9 -1.4 -2.1 -0.5 -1.7 -0.9 -1.9 -2.4 -1 -1.5 0.8 -2.1 0.4 -3.8 -3.2 -1.6 -3.1 -2.6 -4.1 -4 -3.9 -1.1 0.2 -2.3 0.9 -2.6 1.4 -1 1.6 -2.3 0.7 -6.3 -4 -3.7 -4.5 -4.4 -6.2 -2.6 -6.2 0.6 0 1 -1.3 1 -3 0 -2.8 0.3 -3 3.5 -3 3.3 0 3.5 0.2 3.5 3.5 0 2.8 0.4 3.5 2 3.5 1.1 0 2 0.7 2 1.5 0 1.1 1.1 1.5 4 1.5 3.6 0 4 0.3 4 2.5 0 1.6 0.6 2.5 1.5 2.5 1 0 1.5 1 1.5 2.9 0 2.2 0.6 3 2.5 3.5 1.4 0.4 2.5 1.3 2.5 2.1 0 0.8 0.7 1.5 1.5 1.5 0.8 0 1.5 0.6 1.5 1.3 0 0.8 0.9 2.5 2 3.8 1.1 1.3 2.3 2.9 2.8 3.4 0.4 0.6 1.1 1.8 1.5 2.8 0.4 1.1 1.7 1.7 3.7 1.7 1.9 0 3 0.5 3 1.4 0 0.9 1.2 1.6 3.3 1.8 3.2 0.3 3.2 0.4 3.2 5.6 0 2.8 0.3 5.2 0.8 5.2 0.4 0 0.7 -0.7 0.7 -1.5 0 -1.9 5.2 -2 8 -0.3 1.6 1.1 2.2 0.9 3.3 -0.6 1 -1.4 2.3 -1.8 5.1 -1.4 3.6 0.4 3.7 0.4 3.1 -2.6 -0.3 -1.7 -1 -4 -1.4 -5.1 -0.5 -1.1 -1.4 -3.8 -2.1 -6 -0.7 -2.2 -2.1 -4.6 -3.1 -5.3 -2.4 -1.7 -2.7 -8.2 -0.3 -8.2 1.8 0 1.1 -3.5 -1.2 -5.8 -0.8 -0.7 -1.4 -1.7 -1.4 -2.2 0 -0.5 -2.4 -1 -5.2 -1.2 -5.2 -0.3 -5.3 -0.3 -6.8 -4.5 -1 -3.1 -2.2 -4.5 -4.2 -5.2 -1.5 -0.6 -2.8 -1.7 -2.8 -2.5 0 -1.1 -1 -1.6 -3.1 -1.6 -3.6 0 -7.9 -3.9 -7.9 -7.1 0 -2 -1.8 -2.3 -11.7 -1.9 -4.2 0.1 -4.2 0.1 -5.4 -4.4 -1 -4.1 -1.4 -4.6 -4.1 -4.6 -1.8 0 -3.1 -0.6 -3.6 -1.7 -0.5 -1.4 -0.8 -0.9 -1.2 1.7 l-0.5 3.5 -7.3 0.3 -7.2 0.3 0 -4.6 c0 -4.4 0.1 -4.5 3.3 -4.6 2.5 -0.1 2.7 -0.3 0.9 -0.6 -2.2 -0.4 -2.4 -0.9 -2 -5.4 0.2 -3.3 -0.1 -4.9 -0.9 -4.9 -2.2 0 -6.3 -2.3 -6.3 -3.6 0 -0.6 -1.1 -1.5 -2.5 -1.8 -1.4 -0.4 -2.5 -1.1 -2.5 -1.6 0 -0.5 -2.2 -1.2 -5 -1.6 -3.3 -0.4 -5 -1.1 -5 -2.1 0 -0.7 -1.1 -1.8 -2.4 -2.2 -2.6 -1.1 -3.5 -2.9 -3.7 -7.4 -0.1 -3 -0.2 -3 -0.9 0.8 -0.4 2.2 -0.4 4.1 0.1 4.3 0.5 0.2 0.9 1.2 0.9 2.3 0 1 0.7 1.9 1.5 1.9 0.8 0 1.5 0.5 1.5 1 0 0.6 0.6 1 1.4 1 1.6 0 2.6 2.1 2.6 5.6 0 1.7 0.6 2.4 2 2.4 1.6 0 2 0.7 2 3.7 l0 3.6 -2.5 -2.3 c-1.4 -1.3 -2.5 -3 -2.5 -3.7 0 -0.7 -1.1 -1.8 -2.5 -2.3 -1.4 -0.5 -2.5 -1.4 -2.5 -2 0 -0.6 -1.2 -1.5 -2.6 -2 -1.7 -0.7 -2.4 -1.5 -2 -2.5 0.4 -1 -0.3 -2 -2 -2.7 -1.4 -0.7 -2.3 -1.7 -2 -2.5 0.3 -0.7 0.2 -1.2 -0.2 -1 -0.4 0.1 -0.8 -0.2 -0.9 -0.6 -0.1 -0.5 -1 -1.5 -2 -2.3 -1.6 -1.2 -1.6 -1.5 -0.3 -2.6 0.9 -0.7 1.4 -2 1.2 -3 -0.4 -2.1 1.5 -3.3 3.2 -1.9 1.5 1.3 4.2 -1.1 3.2 -2.8 -1 -1.6 1 -2.2 3.7 -1.2 1.9 0.8 2.6 1.8 2.9 4.3 0.2 2.6 0.8 3.4 2.6 3.6 1.6 0.3 2.2 0.8 1.8 1.9 -0.5 1.1 -0.2 1.3 0.9 0.9 0.9 -0.3 1.3 -0.2 1 0.4 -1.2 1.9 0.6 5.8 2.8 5.8 1.2 0.1 3.7 0.4 5.4 0.8 2.2 0.4 3.3 0.2 3.3 -0.5 0 -1.7 3.2 -0.9 5.1 1.2 0.9 0.9 2.1 1.7 2.7 1.7 0.5 0 1.3 0.8 1.7 1.8 0.6 1.6 0.7 1.6 1.9 0 0.9 -1.2 1.6 -1.4 2.3 -0.7 0.7 0.7 1.4 0.5 2.3 -0.6 1.6 -1.9 3 -1.9 3 0 0 0.8 0.4 1.5 0.9 1.5 0.6 0 0.8 0.9 0.6 1.9 -0.4 2.3 2.2 3.6 4 2.1 0.9 -0.8 1.4 -0.7 1.8 0.2 0.3 1 0.9 0.8 2.5 -0.5 1.1 -1.1 2.6 -1.6 3.1 -1.2 0.6 0.3 1.1 0.1 1.1 -0.5 0 -0.6 1 -0.8 2.5 -0.4 2.1 0.5 2.5 0.3 2.5 -1.6 0 -1.3 -0.8 -2.4 -2 -2.7 -1.2 -0.3 -2 -1.4 -2.1 -2.7 0 -1.5 -0.3 -1.1 -1.2 1.3 -0.7 1.9 -2 3.9 -3 4.5 -1.5 0.9 -2.2 0.6 -3.9 -1.4 -1.1 -1.3 -2.9 -2.5 -4.1 -2.5 -1.6 0 -2.3 -0.9 -3 -3.7 -0.5 -2.1 -1.3 -3.8 -1.7 -3.8 -0.4 0 -0.3 -1.1 0.3 -2.5 1.7 -3.5 2.9 -3.1 5.1 1.5 1.9 3.9 2 4 4.3 2.5 1.3 -0.9 3.2 -1.3 4.2 -1 1.2 0.3 2.1 0 2.5 -1 0.3 -1 -0.1 -1.5 -1.2 -1.5 -1.3 0 -1.4 -0.2 -0.3 -0.9 0.7 -0.5 2.2 -0.6 3.4 -0.3 1.2 0.3 1.8 0.1 1.4 -0.5 -0.4 -0.6 0.4 -1.3 1.8 -1.5 2.2 -0.5 2.5 -0.2 2.5 2.2 0 2.3 0.4 2.7 1.9 2.3 1.3 -0.3 2 0.2 2.6 1.9 0.9 2.8 0.6 6.2 -0.5 6.6 -0.5 0.2 -0.3 1.8 0.4 3.5 0.8 1.8 1.1 3.9 0.8 4.7 -0.3 1 0.2 0.8 1.5 -0.5 1.1 -1.1 1.8 -2.6 1.5 -3.2 -0.2 -0.7 0.3 -1.3 1.2 -1.3 2.7 0 3.1 0.4 2.8 2.6 -0.1 1.2 0.4 2.4 1.3 2.8 0.8 0.3 1.5 1.2 1.5 2.1 0 0.8 0.4 1.5 0.9 1.5 0.5 0 1.2 1.1 1.5 2.5 0.4 1.4 1 2.3 1.5 2.1 0.5 -0.3 0.7 0.8 0.5 2.5 -0.3 2.4 0.1 3.2 1.6 3.6 1.1 0.3 2 1.1 2 1.9 0 0.7 0.8 1.8 1.8 2.4 1.2 0.8 1.4 1.3 0.4 1.7 -1.8 0.7 0.5 3.4 2.3 2.7 0.8 -0.4 1.7 0.8 2.5 3 0.6 2 1.6 3.6 2.1 3.6 1.9 0 13.5 5.9 15.8 8.1 2.5 2.3 5.6 3.6 4.5 1.8 -0.3 -0.5 -1 -0.7 -1.5 -0.4 -1.5 1 -1 -2.2 0.6 -3.5 1.9 -1.5 4.5 -0.6 4.5 1.6 0 0.9 0.8 2.3 1.7 3 1.5 1 2 0.9 3.3 -1.1 1.3 -1.9 1.7 -2.1 2.8 -0.9 0.7 0.8 1 1.4 0.6 1.4 -0.3 0 -0.1 0.6 0.5 1.4 2.4 2.8 5.9 10.9 5.4 12.2 -0.8 2.1 0.7 1.7 2.8 -0.8 1.2 -1.3 3.7 -2.4 6.4 -2.8 4 -0.6 4.7 -0.4 6 1.6 1.3 2.1 1.3 2.4 -0.3 3.3 -1.6 0.9 -1.5 1.1 0.5 2.6 1.2 0.8 2 2.1 1.7 2.9 -0.3 0.7 0.2 1.9 1 2.6 0.9 0.7 1.3 1.7 1 2.4 -0.3 0.6 0.1 0.3 0.9 -0.7 2.3 -2.8 6.4 -0.3 5.8 3.5 0 0.4 0.7 0.4 1.6 0.1 1.2 -0.5 1.5 -0.2 1.1 0.9 -0.4 0.9 -0.1 2.6 0.5 3.9 1.7 3.2 2.1 8.9 0.8 8.9 -2 0 -1.2 4.7 0.9 5.3 1.3 0.3 2 1.4 2 2.9 0 1.2 0.7 3.7 1.6 5.3 0.9 1.7 1.8 5.1 1.9 7.8 0.2 2.6 0.6 5.1 0.9 5.5 0.3 0.5 0.6 2.6 0.7 4.8 0.1 2.1 0.5 4.4 0.8 4.9 0.3 0.6 0.6 1.5 0.7 2.2 0.1 0.7 1.2 5.2 2.5 10.1 1.2 4.9 1.9 9.7 1.6 10.6 -0.9 2.2 -5.7 1.8 -5.7 -0.6z m-1 -14.8 c0 -0.6 -0.7 -1.3 -1.5 -1.6 -0.9 -0.4 -1.5 -1.9 -1.5 -3.9 0 -1.9 -0.4 -3.7 -1 -4 -0.5 -0.3 -1 -1.5 -1 -2.6 0 -1.1 -0.7 -2.2 -1.5 -2.5 -1 -0.4 -1.5 -2 -1.5 -5 0 -3.5 0.4 -4.4 1.8 -4.5 1 0 1.2 -0.3 0.5 -0.6 -0.7 -0.2 -1.3 -1.8 -1.3 -3.4 0 -2.2 -0.5 -2.9 -2 -2.9 -1.1 0 -2 -0.6 -2 -1.4 0 -0.8 -1 -1.6 -2.2 -1.8 -1.6 -0.2 -2.4 -1.1 -2.6 -3 -0.3 -2.3 0 -2.6 1.8 -2.1 1.9 0.5 2.1 0.2 1.9 -3.6 -0.2 -2.3 -0.9 -4.7 -1.7 -5.3 -1.6 -1.3 -4.4 -2 -3.9 -1 0.2 0.4 0.9 2 1.7 3.5 1.9 3.8 0.4 6.1 -4.3 6.5 -3.1 0.3 -3.6 0.7 -4.2 3.8 -0.6 3.3 -0.8 3.5 -4.3 3.2 -3.6 -0.3 -3.7 -0.4 -4 -5 -0.2 -2.9 -0.8 -4.8 -1.8 -5.2 -1.1 -0.4 -1.4 0.4 -1.4 3.6 l0 4.1 -4.4 -0.5 c-6.1 -0.7 -9.5 -3.4 -9.6 -7.5 0 -2.6 -0.4 -3.3 -2 -3.3 -1.1 0 -2 0.7 -2 1.5 0 0.8 0.4 1.5 0.9 1.5 0.5 0 1.2 2.2 1.6 5 0.4 2.7 1.1 5.2 1.6 5.6 0.5 0.3 0.9 1.8 0.9 3.5 0 1.6 0.5 2.9 1.1 2.9 1.9 0 3.8 3.3 3.9 6.5 0 2.9 0.1 3 4.4 2.7 3.5 -0.3 4.5 0 5 1.5 1.4 3.7 3.1 6.3 4.2 6.3 0.6 0 1.7 0.7 2.4 1.5 0.7 0.9 2.9 1.5 5 1.5 2.1 0 4 0.4 4.2 0.9 0.2 0.5 1.5 0.7 3.1 0.4 2.2 -0.4 2.7 -1.1 2.7 -3.4 0 -2.6 0.3 -2.9 3.5 -2.9 3.3 0 3.5 0.2 3.5 3.5 0 1.9 -0.4 3.5 -0.9 3.5 -0.5 0 -0.4 1.1 0.2 2.5 0.9 1.8 2 2.5 4 2.5 1.5 0 2.7 -0.5 2.7 -1z m-38.9 -54.2 c-2.2 -2.3 -3 -9.8 -1.1 -9.8 0.6 0 1 -0.4 1 -1 0 -0.5 -1.1 -1 -2.5 -1 -2.1 0 -2.5 0.5 -2.5 3 0 2.8 -0.2 3 -4.1 3 -4 0 -9.9 -2.6 -9.9 -4.3 0 -0.4 -0.5 -0.5 -1.1 -0.1 -0.8 0.5 -0.6 1 0.5 1.6 0.9 0.5 1.6 1.8 1.6 2.9 0 5.1 5.1 8.3 6.3 3.9 0.4 -1.5 1.4 -2 4.1 -2 2.9 0 3.6 0.4 3.6 2 0 1.2 0.7 2 1.6 2 0.9 0 2.1 1.4 2.7 3.1 1 2.7 1.2 2.8 1.5 1.1 0.2 -1.2 -0.6 -3.1 -1.7 -4.4z m9.4 4 c1.6 -4.9 0.4 -7.7 -3.1 -7 -3 0.6 -4 2 -2 2.8 0.9 0.3 1.6 1.6 1.6 2.8 0 4 2.3 4.9 3.5 1.4z m7.8 0.5 c-0.7 -0.2 -1.3 -1.3 -1.3 -2.4 0 -1 -0.4 -1.9 -1 -1.9 -0.5 0 -1 1.1 -1 2.5 0 1.9 0.5 2.5 2.3 2.4 1.2 0 1.6 -0.3 1 -0.6z m-105.4 -29.4 c-0.5 -1 -1.6 -1.9 -2.4 -1.9 -1.2 0 -1.2 0.5 -0.4 2.4 0.7 1.4 1.7 2.2 2.5 1.9 1 -0.4 1.1 -1 0.3 -2.4z m40.1 -16.9 c1.1 -0.7 1.2 -1.2 0.3 -2.1 -1.3 -1.3 -3.3 -0.4 -3.3 1.7 0 1.6 0.9 1.8 3 0.4z m-8 -1.5 c-0.7 -0.8 -1 -2.1 -0.7 -2.9 0.6 -1.6 -1.9 -3 -2.8 -1.6 -0.6 1 0 2.4 2 4.7 1.5 1.8 3 1.6 1.5 -0.2z m1 -13.6 c0 -4.9 -3.6 -9.9 -7.1 -9.9 -2.4 0 -2.9 -0.4 -2.9 -2.5 0 -1.4 -0.4 -2.5 -1 -2.5 -0.5 0 -1 0.6 -1 1.4 0 1.6 -7.8 3.3 -10.5 2.2 -0.9 -0.3 -1.5 0 -1.5 0.9 0 1 1.7 1.5 6.3 1.7 l6.2 0.3 1 4.2 c1.2 5.1 2.1 6 6 6.6 1.7 0.2 3.3 0.5 3.8 0.6 0.4 0 0.7 -1.3 0.7 -3z m-13.8 -0.9 c-0.8 -2.1 -0.9 -2.2 -1.6 -0.5 -0.4 1.1 -0.2 2.2 0.6 2.6 1.7 1.1 2 0.6 1 -2.1z m-18.7 -3 c0.3 -0.5 0.1 -1 -0.5 -1 -0.6 0 -1.5 -1.2 -2 -2.6 -0.8 -2.1 -1.3 -2.4 -2.4 -1.5 -0.9 0.8 -2.2 0.8 -3.9 0.2 -1.8 -0.7 -2.8 -0.7 -3.3 0.1 -0.4 0.6 -0.3 0.9 0.2 0.6 0.5 -0.3 2 0.7 3.4 2.1 2.6 2.8 7.4 3.9 8.5 2.1z m-3.2 -11.9 c1 -1 0.6 -1.2 -1.7 -0.9 -1.6 0.2 -3.1 0.8 -3.3 1.4 -0.5 1.5 3.4 1.1 5 -0.5z m22.7 -6.6 c0 -0.8 -0.4 -1.5 -1 -1.5 -0.5 0 -1 0.7 -1 1.5 0 0.8 0.5 1.5 1 1.5 0.6 0 1 -0.7 1 -1.5z"/>
  <path d="M125.3 690.8 c-1.6 -1.8 -4.2 -4.4 -5.7 -5.7 -2.7 -2.4 -3.6 -4.8 -1.3 -3.5 0.7 0.4 0.9 0.3 0.4 -0.2 -0.5 -0.5 -1.4 -0.9 -2 -0.9 -0.7 0 -1.2 -1.1 -1.2 -2.4 0 -1.4 -0.7 -2.7 -1.4 -2.9 -0.9 -0.3 -1.1 0 -0.7 0.9 0.4 0.8 0 0.5 -0.8 -0.5 -1.1 -1.3 -1.3 -2.3 -0.6 -3.1 1.2 -1.4 0.4 -4 -2.2 -7.4 -2.2 -2.9 -2.3 -4.1 -0.3 -4.1 1 0 1.5 -1 1.5 -3 0 -2.9 0.1 -3 5.1 -3 l5 0 -0.3 4.3 c-0.3 4.1 -0.4 4.2 -4 4.5 -4 0.3 -5.6 3.2 -1.8 3.2 1.3 0 2 0.7 2 1.9 0 1 0.9 2.1 2 2.4 1.5 0.4 2 1.4 2 3.6 0 2.1 0.5 3.1 1.5 3.1 0.8 0 1.5 0.9 1.5 2 0 1.1 0.5 2 1 2 0.6 0 1 1.1 1 2.5 0 1.6 0.6 2.5 1.5 2.5 1 0 1.5 1.1 1.5 3.5 0 1.9 -0.1 3.5 -0.3 3.5 -0.2 0 -1.7 -1.5 -3.4 -3.2z"/>
  <path d="M179.3 656.9 c-1.2 -2.7 -1.8 -4.9 -1.2 -4.9 0.5 0 0.9 0.7 0.9 1.5 0 0.7 0.7 1.8 1.6 2.3 1 0.5 1.4 1.9 1.2 3.4 -0.3 2.3 -0.6 2 -2.5 -2.3z"/>
  <path d="M173.7 645.6 c-0.4 -1 -0.5 -2.1 -0.2 -2.4 0.9 -0.9 1.7 0.6 1.3 2.5 -0.3 1.7 -0.4 1.7 -1.1 -0.1z"/>
  <path d="M741 206.5 c-0.7 -0.8 -1.9 -1.5 -2.6 -1.5 -0.8 0 -1.4 -0.3 -1.4 -0.7 0 -0.5 -1.1 -1.3 -2.4 -1.9 -2 -0.9 -2.6 -0.9 -3.1 0.4 -0.3 0.8 0 2 0.7 2.5 0.9 0.6 0.8 0.7 -0.5 0.3 -1 -0.3 -2.3 -0.6 -2.8 -0.6 -0.5 0 -0.9 -1.6 -0.9 -3.5 0 -1.9 0.4 -3.5 0.9 -3.5 1.6 0 -0.1 -4.8 -2 -5.3 -1.4 -0.4 -1.9 -1.4 -1.9 -4.1 0 -5.5 2.1 -4.6 9.6 4.2 9.8 11.5 10.6 12.8 9 14.1 -1 0.9 -1.6 0.8 -2.6 -0.4z"/>
  <path d="M705.7 180.1 c-1.5 -1.5 -2.7 -3.5 -2.7 -4.4 0 -0.9 -0.7 -1.7 -1.5 -1.7 -0.8 0 -1.5 -0.4 -1.5 -1 0 -0.5 -0.6 -1 -1.4 -1 -0.7 0 -1.9 -0.7 -2.6 -1.5 -0.7 -0.8 -0.9 -1.5 -0.6 -1.5 1.8 0 5.5 2.6 10.5 7.4 3 2.8 5 4.4 4.5 3.6 -0.4 -0.8 -1.9 -2.3 -3.1 -3.4 -1.9 -1.4 -2.1 -2.1 -1.2 -3.2 0.9 -1.1 0.6 -1.6 -1.6 -2.4 -1.6 -0.6 -2.3 -1.4 -1.9 -2.2 0.5 -0.7 0.2 -0.9 -0.9 -0.5 -1.8 0.7 -4.1 -1.6 -3.4 -3.5 0.2 -0.7 -0.7 -2.6 -1.9 -4.1 -2.6 -3.1 -3 -4.7 -1.3 -4.7 0.6 0 0.9 -0.7 0.5 -1.5 -0.3 -0.8 -0.2 -1.4 0.2 -1.4 2.2 0.4 3.2 -0.2 2.6 -1.3 -0.5 -0.9 -0.2 -0.8 1 0.1 1.2 1 1.4 1.7 0.6 2.5 -1.2 1.2 -1.4 2.7 -0.2 2.4 1.5 -0.5 7.2 2.8 7.8 4.4 0.3 1 1.2 1.8 1.9 1.8 0.8 0 2.6 1.8 4.2 4 1.5 2.2 3.4 4 4.1 4 0.6 0 1.2 0.3 1.2 0.8 0 0.4 1.4 2.3 3 4.2 5.1 5.9 4.3 6.9 -5.3 6.9 -7.6 -0.1 -8.4 -0.3 -11 -2.8z"/>
  <path d="M295 78.2 c0 -0.6 -0.2 -1.7 -0.5 -2.4 -0.6 -1.5 5.8 -4.4 7.5 -3.3 0.5 0.3 1 -0.1 1 -0.9 0 -2.5 2.1 -3 10.2 -2.7 6.5 0.2 7.8 0 7.8 -1.3 0 -1.2 1.1 -1.6 5 -1.6 3.7 0 5 0.4 5 1.5 0 1.8 6.1 0.9 7.3 -1.2 0.4 -0.7 2.5 -1.3 4.6 -1.3 3.5 0 3.8 -0.2 3.3 -2.5 -0.8 -4.2 0.6 -7 4.6 -9.3 3.8 -2.1 3.8 -2.1 5.5 -0.1 2.2 2.5 2.3 8.1 0.2 7.3 -0.8 -0.4 -1.5 -0.1 -1.5 0.4 0 0.6 -0.9 1.4 -2 1.7 -1.4 0.4 -2 1.4 -1.8 2.7 0.4 2.5 -3.4 5.5 -7.6 6.2 -1.6 0.3 -3.4 1 -4 1.6 -0.5 0.5 -2.2 1 -3.7 1 -1.5 0 -3 0.6 -3.3 1.3 -0.3 0.8 -0.9 0.7 -2 -0.7 -0.8 -1 -1.7 -2.4 -1.9 -3 -0.3 -1 -2.2 -0.4 -11.2 3.5 -2 0.9 -5 0.8 -6 -0.2 -0.7 -0.8 -13.7 2 -15.2 3.3 -0.9 0.7 -1.3 0.7 -1.3 0z"/>
  <path d="M458 72.5 c0 -0.8 -0.5 -1.5 -1 -1.5 -0.6 0 -1.6 -1.2 -2.2 -2.7 -1.3 -2.9 -4.5 -6.3 -6 -6.3 -0.4 0 -0.8 2.3 -0.8 5.1 l0 5 -3.6 -0.3 c-2.4 -0.2 -4.1 -1 -4.8 -2.3 -0.6 -1.1 -1.4 -2.2 -1.7 -2.5 -0.3 -0.3 -0.9 -1.4 -1.2 -2.4 -0.6 -1.6 -0.5 -1.7 0.7 -0.7 1 0.8 1.6 0.9 2.1 0.1 1.1 -1.8 -0.5 -5 -2.7 -5 -1.5 0 -1.9 -0.5 -1.5 -1.9 0.4 -1.5 0.1 -1.8 -1.2 -1.3 -1.4 0.5 -1.4 0.4 -0.2 -1.2 0.8 -0.9 2 -1.5 2.6 -1.2 0.7 0.2 1.8 -0.1 2.4 -0.7 0.8 -0.8 1.1 -0.4 1.1 1.6 0 2 0.5 2.7 2 2.7 1.1 0 2 -0.7 2 -1.5 0 -1.8 2.1 -2 3.8 -0.3 0.7 0.7 1.2 0.9 1.2 0.4 0 -0.4 1.3 0.2 3 1.4 1.6 1.2 3.4 1.8 4 1.5 0.5 -0.3 1 -0.1 1 0.4 0 0.6 0.6 1.1 1.3 1.1 0.7 0 2 1.2 2.9 2.8 1.2 2.1 1.3 3.1 0.4 4.5 -0.9 1.5 -0.7 2.2 1.2 3.7 3 2.5 2.8 3 -1.3 3 -2.4 0 -3.5 -0.5 -3.5 -1.5z"/>
  <path d="M362.6 59.5 c-0.3 -0.9 -1 -1.3 -1.6 -1 -0.5 0.3 -1 -0.3 -1 -1.3 0 -1.3 0.9 -2.2 2.5 -2.6 1.4 -0.4 3.4 -1.5 4.5 -2.6 1.6 -1.6 2.4 -1.7 5.5 -0.9 4.2 1.2 4.1 2.3 -0.6 6 -4.4 3.6 -8.4 4.6 -9.3 2.4z"/>
 </g>
 <g fill="#fe7e00">
  <path d="M179.6 734.5 c-0.4 -1.1 -1.3 -1.4 -3.1 -0.9 -2.1 0.5 -2.7 0.2 -3.2 -1.5 -0.6 -2.4 -1.4 -2.6 -3.1 -0.9 -0.9 0.9 -1.8 -0.3 -3.9 -5 -1.6 -3.4 -3.2 -6.1 -3.7 -6.2 -1.6 0 -11.2 -10.6 -10.8 -11.8 0.2 -0.7 -0.6 -1.2 -1.8 -1.2 -1.9 0 -2.1 -0.4 -1.7 -2.6 0.3 -1.9 0.1 -2.4 -1 -2 -1.9 0.8 -6.3 -0.3 -6.3 -1.5 0 -1.5 -3.4 -4.9 -4.8 -4.9 -0.7 0 -1.1 0.3 -0.9 0.8 0.3 0.4 -0.1 1.2 -0.7 1.8 -1 0.9 -2.3 -0.1 -5.6 -4.1 -2.4 -2.9 -5.9 -6.5 -7.7 -7.9 -3.7 -3 -4.1 -4.2 -1.6 -4.9 1.7 -0.4 1.7 -0.5 0.1 -0.6 -1.3 -0.1 -1.8 -1 -1.8 -3 0 -1.7 -0.4 -3.3 -1 -3.6 -1.4 -0.9 -1.2 -6.7 0.4 -8.7 2.1 -2.8 11.6 -2 11.6 0.9 0 1.3 0.3 1.3 1.6 0.3 1.3 -1.1 1.6 -1 2.1 0.8 0.6 2.6 2.3 1.9 2.3 -0.9 0 -2.9 6.5 -2.7 8.3 0.3 7.5 12.3 8 12.8 11 12.8 1.7 0 3.9 0.7 4.9 1.7 1.7 1.5 1.8 1.5 1.8 -0.1 0 -2.2 2.1 -4.3 4.6 -4.8 1.2 -0.2 1.9 0.3 1.9 1.2 0 1.7 4.3 6.6 5.1 5.7 0.8 -0.8 -1.6 -4.8 -2.6 -4.2 -0.4 0.3 -0.6 -0.4 -0.3 -1.5 0.6 -2.2 3.3 -2.8 3.3 -0.6 0 0.7 1.1 3.3 2.4 5.7 1.4 2.4 2.8 6.2 3.2 8.4 0.4 2.2 1.7 6.3 2.9 9 1.2 2.8 2.6 6.7 2.9 8.8 0.4 2.1 1.6 5.8 2.7 8.3 2.1 5.1 2.4 9.1 0.8 14.7 -0.9 3.3 -1.3 3.7 -4.3 3.7 -2.1 0 -3.6 -0.6 -4 -1.5z"/>
 </g>
 <g fill="#b77955">
  <path d="M266.5 790.3 c-0.5 -1.5 -0.8 -3.2 -0.7 -3.6 0.1 -0.4 -0.5 -1 -1.3 -1.3 -0.8 -0.4 -1.5 -1.5 -1.5 -2.6 0 -1.2 -0.6 -1.9 -1.7 -1.7 -3.2 0.3 -4.3 -0.1 -4.3 -1.4 0 -2 -3.7 -5 -5.1 -4.1 -0.9 0.5 -0.7 1 0.5 2 2.6 1.8 1.6 5 -1.3 4.6 -1.3 -0.2 -2.8 0.2 -3.2 1 -0.8 1.2 -1.1 0.2 -0.9 -2.7 0.1 -0.3 -0.7 -1.9 -1.7 -3.5 -1.9 -3.4 -3.8 -4 -2.8 -1.1 0.7 2.3 -1.1 3.7 -2.9 2.2 -0.7 -0.6 -1.7 -0.7 -2.1 -0.3 -0.5 0.4 -0.5 -0.1 -0.2 -1.1 0.5 -1.3 -0.7 -3 -4.3 -6.4 -2.8 -2.6 -5 -5.3 -5 -6 0 -0.7 -0.3 -1.3 -0.7 -1.3 -0.5 0 -0.8 2 -0.7 4.5 0.1 3.9 -0.2 4.5 -2 4.4 -1.2 0 -1.5 -0.3 -0.8 -0.6 1.7 -0.7 1.5 -2.3 -0.3 -2.3 -0.8 0 -1.5 -0.8 -1.5 -1.8 0 -1.1 -1.1 -2.4 -2.5 -3 -2.2 -1 -2.4 -1.5 -1.5 -3.1 1.3 -2.5 1.2 -3.2 -0.5 -5.4 -1 -1.5 -1.8 -1.7 -3.2 -0.8 -1 0.6 -1.2 1.1 -0.5 1.1 1.9 0 1.4 1.7 -0.8 2.3 -2.5 0.6 -2.6 2.7 -0.2 2.7 1.3 0 2.2 1.2 3 3.6 0.8 2.6 0.8 3.4 -0.1 3.1 -2.2 -0.7 -7.6 -9.2 -7.6 -12 -0.1 -1.6 -0.5 -2.6 -1.1 -2.2 -0.5 0.3 -1 -0.1 -1 -1 0 -0.9 -0.4 -1.4 -0.9 -1.1 -0.5 0.3 -1.2 -0.5 -1.5 -1.9 -0.4 -1.4 -1.1 -2.5 -1.6 -2.5 -0.6 0 -1 -0.8 -1 -1.7 0 -0.9 -0.3 -1.3 -0.6 -1 -0.4 0.3 -1.5 0.2 -2.4 -0.3 -1.3 -0.7 -2.7 -0.5 -4.7 0.5 -3.8 2 -5.2 1.9 -4.6 -0.4 0.3 -1 0 -2.2 -0.6 -2.5 -0.6 -0.4 -1.1 0 -1.1 0.8 0 0.9 -0.7 1.6 -1.5 1.6 -0.8 0 -1.5 0.5 -1.5 1.1 0 1.1 -3.4 -1.2 -8.2 -5.4 -3.4 -3 -3.5 -3.6 -0.3 -2.9 1.4 0.2 2.5 1.1 2.6 2.1 0 1 0.4 0.7 1 -0.8 1.4 -3.5 0.4 -5.4 -2.3 -4.6 -2.1 0.5 -2.1 0.5 0.2 -0.9 1.5 -0.9 2.9 -1.1 3.5 -0.5 1.9 1.8 3.4 0.8 4.5 -3 0.8 -3.2 0.7 -4.7 -0.9 -8.5 -1.1 -2.5 -2.3 -6.2 -2.7 -8.3 -0.3 -2.1 -1.7 -6 -2.9 -8.8 -1.2 -2.7 -2.5 -6.8 -2.9 -9 -0.4 -2.1 -1.4 -5.2 -2.2 -6.7 -0.8 -1.6 -1.2 -3.3 -0.9 -3.8 0.3 -0.6 -0.2 -2.3 -1.2 -4 -1.7 -2.9 -1.7 -3 0.2 -4.5 1.7 -1.3 1.8 -1.6 0.5 -2.4 -0.9 -0.6 -1.8 -0.7 -2.4 -0.1 -0.6 0.6 -1.4 0.3 -2 -0.6 -0.9 -1.2 -1.7 -1.3 -4.4 -0.3 -3.3 1.1 -4.4 2.9 -1.7 2.9 0.8 0 1.5 -0.4 1.5 -1 0 -2.4 3.5 -0.4 4.4 2.6 0.4 1.3 -0.1 2.7 -1.3 4 -1.2 1.4 -1.7 3 -1.4 4.7 0.4 1.9 -0.1 2.8 -1.7 3.7 -2.5 1.3 -5 0.7 -5 -1.3 0 -2.3 -3.3 -4.7 -5 -3.7 -2.6 1.7 -3.9 1.1 -6 -2.7 -5.5 -10.2 -7.6 -12.8 -9.8 -12.5 -1.5 0.2 -2.2 -0.2 -2.2 -1.2 0 -0.9 -0.6 -1.6 -1.3 -1.6 -0.9 0 -1.2 1 -0.9 3 0.4 2.9 0.3 3 -2.7 2.7 -1.8 -0.2 -3.7 -1 -4.4 -1.7 -0.9 -1 -0.9 -1.1 0.1 -0.6 0.7 0.4 1.2 0.2 1.2 -0.6 0 -0.8 -1.3 -1.3 -3 -1.4 -1.7 -0.1 -2.8 0.1 -2.5 0.4 0.2 0.3 -0.3 1 -1.1 1.7 -1.5 1 -1.5 1.5 -0.2 4.1 2.3 4.7 1.8 6.9 -1.7 6.9 -2 0 -3.1 -0.6 -3.3 -1.8 -0.3 -1.2 0.1 -1.5 1.3 -1.1 1.3 0.5 1.6 0.2 1.3 -1.2 -0.2 -1.2 -1.2 -1.9 -2.6 -2 -1.6 -0.1 -2.1 0.3 -1.8 1.2 0.8 2.2 -0.2 1.6 -1.5 -0.7 -0.6 -1.2 -0.7 -1.9 -0.1 -1.5 0.5 0.3 1.2 -0.3 1.5 -1.4 0.3 -1.1 0.2 -2 -0.3 -2 -0.4 0 -1 -0.8 -1.4 -1.7 -0.7 -2.4 -6.5 -12.6 -7.4 -13.3 -0.4 -0.3 -1.6 -2.2 -2.7 -4.2 -1.1 -2.1 -2.5 -3.8 -3.2 -3.8 -0.7 0 -1.3 -0.5 -1.3 -1.1 0 -0.8 -0.5 -0.8 -1.5 0.1 -1.5 1.3 -1.6 1.2 -1.9 -2.7 -0.1 -2.4 -3.2 -5.7 -4.5 -4.9 -0.5 0.4 -1.3 0.1 -1.7 -0.5 -0.5 -0.8 -0.3 -0.9 0.6 -0.4 1 0.6 1.2 0.4 0.7 -0.8 -0.3 -1 -0.2 -1.7 0.4 -1.7 0.5 0 0.7 -1 0.4 -2.3 -0.5 -1.7 0.1 -2.8 2.5 -4.6 3.9 -2.8 7.9 -2.2 8.1 1.2 0.1 1.2 0.2 2.7 0.4 3.2 0.1 0.6 0.3 1.6 0.3 2.3 0.1 0.7 1.5 1.8 3.1 2.3 2.1 0.8 2.8 1.5 2.4 2.6 -0.5 1.3 -0.1 1.5 2 0.9 1.4 -0.3 2.9 -0.2 3.2 0.4 0.3 0.5 1.3 1 2.1 1 0.9 0 2.2 0.7 3 1.5 1.7 1.7 4.4 2 4.4 0.5 0 -0.5 0.5 -1 1.2 -1 0.9 0 0.9 0.3 0 1.2 -1.8 1.8 -1.4 3.4 1.1 4.5 2.6 1.2 5.4 0.2 4.3 -1.6 -0.4 -0.7 -0.1 -0.9 0.8 -0.5 1.8 0.7 2.9 3.4 1.4 3.4 -2.1 0 0.1 1.3 2.4 1.4 2.4 0.1 3.5 3 2 5.4 -0.6 0.9 -1.5 1 -3.5 0.3 -1.7 -0.7 -2.8 -0.7 -3.2 -0.1 -0.4 0.6 -0.1 1 0.5 1 0.6 0 0.8 0.5 0.5 1 -0.3 0.6 0.1 1 1 1 0.9 0 2.7 0.7 4 1.6 3.4 2.2 9.5 1.1 9.5 -1.7 0 -1.1 -0.4 -1.8 -0.9 -1.4 -1.2 0.7 -1.7 -0.1 -2.6 -4.2 -0.4 -2.1 -0.3 -3.3 0.4 -3.3 0.6 0 1.1 1.1 1.1 2.4 0 1.4 0.5 2.8 1.1 3.2 1.3 0.8 3.1 -1.6 2.5 -3.3 -0.3 -0.6 0.3 -1.8 1.3 -2.7 1.4 -1.3 2.1 -1.3 4.1 -0.3 1.4 0.7 3.5 1.1 4.8 0.9 2 -0.3 2.2 -0.8 1.7 -3.3 -0.4 -1.7 -1.3 -4.2 -2.1 -5.7 -1.8 -3.6 -1.8 -5.2 0.4 -6.8 1.4 -1.1 1.5 -1.6 0.4 -3.3 -1.1 -1.8 -1 -2.1 0.8 -2.2 1.1 -0.1 2.5 -0.2 3 -0.3 0.6 -0.1 1 0.3 1 0.7 -0.1 0.4 0.6 1.5 1.5 2.3 0.8 0.9 1.5 2.4 1.5 3.5 0 1 0.4 1.9 0.9 1.9 1.2 0 0.1 4.3 -1.2 5.2 -0.7 0.4 -0.6 1.2 0.2 2.2 0.8 0.9 1 1.6 0.5 1.6 -0.4 0 -0.3 0.5 0.3 1.1 0.6 0.6 0.9 1.7 0.7 2.4 -0.3 0.7 -0.1 1.6 0.5 2 1 0.6 1.5 -0.6 0.9 -2.1 -0.2 -0.3 0.5 -1 1.6 -1.6 1.3 -0.7 1.5 -1.2 0.6 -1.8 -0.8 -0.5 -0.5 -0.9 0.9 -1.3 2.2 -0.5 2.4 0 2.1 4.5 -0.2 3.1 2.8 8.8 4.7 8.8 1.5 0 3.2 3.1 2.6 4.8 -0.3 0.6 -1.2 1.2 -2.1 1.3 -1 0 -1.2 0.3 -0.5 0.5 0.7 0.3 0.9 1.2 0.6 2 -0.3 0.8 0.1 1.4 1 1.4 1.7 0 4.7 5.2 4.7 8.2 0 1.1 0.5 2.8 1 3.9 0.8 1.5 0.7 1.9 -0.4 1.9 -0.9 0 -1.9 -1.2 -2.2 -2.7 -0.8 -3.1 -2.2 -5.3 -3.5 -5.3 -1.5 0 -1 6.7 0.5 7.3 0.9 0.4 1.2 1.4 0.9 2.6 -0.4 1.6 0.1 2.3 2.3 3.1 5.7 2.1 5.9 2.2 4.8 2.7 -1.3 0.4 -0.7 4.3 0.7 4.3 0.5 0 0.8 0.6 0.6 1.2 -0.3 1.9 3.9 2.2 4.6 0.4 0.4 -0.9 0.2 -1.6 -0.3 -1.6 -0.6 0 -1 -0.5 -1 -1.1 0 -0.5 0.5 -0.7 1 -0.4 0.6 0.3 1 0.1 1 -0.4 0 -0.6 -0.4 -1.1 -1 -1.1 -0.5 0 -1 -0.7 -1 -1.5 0 -0.8 -0.8 -1.5 -1.7 -1.5 -1.6 -0.1 -1.6 -0.2 0.1 -1.5 1.1 -0.8 1.6 -1.5 1.2 -1.5 -0.5 0 -0.4 -0.6 0.2 -1.3 0.6 -0.7 2.1 -1.3 3.4 -1.2 4.6 0.2 12.1 3.3 11.2 4.7 -0.3 0.4 0.6 1.2 2 1.8 3 1.1 9.6 7.8 9.6 9.7 0 1.2 1.4 1.8 3.4 1.4 1.9 -0.4 5.7 2.2 4.5 3 -0.9 0.5 -0.8 1.1 0.4 2.3 2.1 2.2 2.5 2 1.9 -0.9 -0.3 -1.9 0 -2.5 1.3 -2.5 1.2 0 1.6 0.6 1.2 2 -0.3 1.3 0.1 2.1 1.3 2.5 1.6 0.5 1.7 1 0.7 4.3 -0.6 2 -1.5 4 -2 4.3 -0.9 0.6 0.6 3.9 3.2 7.2 0.8 0.9 1.1 1.7 0.7 1.7 -0.4 0 -0.2 1 0.5 2.1 0.8 1.7 0.8 2.3 -0.1 2.9 -0.9 0.6 -0.6 1 0.9 1.5 1.1 0.3 2.1 1.4 2.1 2.3 0 1.4 0.2 1.4 0.9 0.3 0.5 -0.8 0.6 -2.4 0.1 -3.7 -0.5 -1.2 -0.6 -2.5 -0.3 -2.8 0.4 -0.3 0.7 -3.1 0.8 -6.1 0.3 -5.2 0.1 -5.5 -2.1 -5.5 -2.1 0 -2.4 -0.5 -2.4 -3.5 0 -2.2 0.8 -4.4 2 -5.7 1.1 -1.2 2 -2 2.1 -1.7 0.6 3 0.4 4.9 -0.5 4.9 -0.6 0 0 0.6 1.4 1.3 1.8 0.9 3 1 4.2 0.3 0.9 -0.6 2.1 -0.7 2.5 -0.2 0.4 0.4 0 1.2 -1 1.7 -2.5 1.5 -2.1 2.7 1.1 3.1 3.2 0.4 3.3 2 0 3 -1.6 0.4 -1.8 0.6 -0.5 0.7 0.9 0.1 1.7 0.8 1.7 1.7 0 0.8 0.7 2.2 1.5 3.1 0.8 0.8 1.3 1.9 1 2.4 -0.3 0.5 0 1.9 0.7 3.1 0.7 1.3 1.3 3.3 1.3 4.6 0 1.2 1 2.9 2.1 3.7 2 1.3 2.1 1.2 1.8 -2.3 -0.2 -2 -0.4 -3.9 -0.5 -4.2 -0.1 -0.3 -0.1 -0.9 0 -1.4 0.1 -0.5 -0.2 -1.2 -0.6 -1.5 -1.8 -1.3 -2.9 -4.7 -2.3 -7.1 0.4 -1.4 0.2 -3.5 -0.3 -4.8 -0.6 -1.2 -0.8 -2.5 -0.4 -2.8 1.1 -1.1 4.7 1.7 4.7 3.6 0 1.1 0.4 1.9 0.9 1.8 0.5 -0.2 1 0 1.1 0.4 0.1 0.4 0.5 2.1 1 3.8 0.6 2 0.5 3 -0.2 3 -0.6 0 -0.4 0.8 0.5 1.8 1.7 1.9 3.9 11 3.1 12.4 -0.3 0.5 -1.3 0.8 -2.2 0.9 -1.1 0.1 -0.9 0.3 0.6 0.7 1.3 0.4 2.3 1.2 2.3 1.7 0.1 0.6 0.5 1.6 1.1 2.3 0.8 0.8 0.7 1.2 -0.3 1.2 -0.9 0 -1 0.3 -0.3 0.8 1.3 0.8 3.4 4.6 3.4 6.1 0 0.6 -1.1 1.1 -2.5 1.1 -2.8 0 -2.9 1.8 -0.2 3.9 1 0.7 1.6 1.9 1.3 2.7 -0.3 0.7 0.1 1.7 0.8 2.1 1.8 1.1 3 6.3 1.4 6.3 -0.7 0 -0.6 0.5 0.4 1.3 1.3 1 2 2.6 3.3 7.7 2.1 8.7 2.7 11.2 2.4 11.5 -0.2 0.2 -1.6 0.6 -3 1 -2.3 0.6 -2.8 0.3 -3.4 -2.2z m-53 -41.3 c0 -0.7 -0.6 -1.5 -1.2 -1.7 -0.8 -0.3 -1.3 0.4 -1.3 1.7 0 1.3 0.5 2 1.3 1.8 0.6 -0.3 1.2 -1.1 1.2 -1.8z m-2 -7.2 c-0.4 -2.4 -1.2 -4.6 -1.7 -4.9 -0.5 -0.3 -1.1 -3 -1.4 -5.9 -0.2 -3 -0.7 -5.6 -1.2 -5.9 -0.4 -0.3 -0.9 -1.9 -1 -3.6 -0.2 -1.6 -1 -3.5 -1.8 -4.1 -0.8 -0.6 -1.4 -2.1 -1.4 -3.2 0 -1.1 -0.4 -2.4 -1 -2.7 -0.5 -0.3 -1 -0.1 -1 0.4 0 0.6 -0.8 1.1 -1.7 1.1 -1.6 0.1 -1.5 0.3 0.3 1.8 1.2 1 2.7 3.6 3.4 5.7 0.7 2.2 1.7 4.9 2.2 5.9 1 1.9 1.4 3.7 2.2 10.5 0.2 1.9 0.9 3.7 1.6 4.1 0.6 0.4 1 1.1 0.9 1.6 -0.3 2 0.2 3.4 1.2 3.4 0.7 0 0.8 -1.4 0.4 -4.2z m-10.5 0.4 c0 -1.3 -1.2 -2.2 -2.2 -1.6 -1 0.6 -0.1 2.4 1.3 2.4 0.5 0 0.9 -0.4 0.9 -0.8z m37.9 -4.9 c0.1 -2.1 -1.7 -1.5 -2.4 0.7 -0.9 2.7 0.6 5 1.6 2.4 0.4 -1 0.8 -2.5 0.8 -3.1z m-13.8 -6.6 c-2.1 -4.8 -2.7 -5.3 -4.8 -3.9 -1 0.7 -1 1.2 0.1 2.7 1.2 1.7 1.2 2.1 -0.3 3.2 -1.4 1.1 -1.4 1.4 0.9 3 6 4.4 7.4 2.7 4.1 -5z m21.2 2.8 c0.7 -1.8 -0.6 -2.7 -2.7 -1.9 -1.2 0.5 -1.3 0.9 -0.3 2 1.6 1.7 2.4 1.7 3 -0.1z m-27.3 -20.2 c0 -0.5 -1.4 -2.4 -3.1 -4.3 -2.5 -2.8 -2.9 -3.1 -2.4 -1.2 0.5 1.7 0.2 2.2 -1.2 2.2 -1.3 0 -1.1 0.5 1.2 2 3.1 2 5.5 2.6 5.5 1.3z m-15 -6.8 c-1.5 -1.6 -1.8 -2.5 -1 -3 0.7 -0.4 2.2 0.4 3.6 1.9 1.4 1.4 2.7 2.6 3 2.6 1.6 0 -1.4 -4.8 -5.7 -9.2 -4.1 -4.2 -5.1 -4.7 -6.3 -3.6 -0.7 0.7 -1.1 1.5 -0.7 1.8 0.3 0.3 0.6 1.1 0.7 1.8 0.2 2.6 0.5 2.8 3.5 2.4 2.2 -0.3 3 -0.1 2.5 0.7 -0.4 0.6 -1.4 1.1 -2.2 1.1 -1.8 0 -1.8 0.4 0.1 4 1 2 2 2.7 3.1 2.3 1.3 -0.5 1.2 -0.9 -0.6 -2.8z m-47.8 -34 c0.5 -0.7 1.7 -1.1 2.8 -0.8 2 0.5 2.7 -0.7 1.3 -2.1 -0.5 -0.4 -1.2 -2.6 -1.8 -4.9 -0.9 -3.7 -1.4 -4.2 -4.1 -4.5 -2.2 -0.2 -3.1 0.1 -3.1 1.2 0 0.9 0.4 1.6 0.9 1.6 1.5 0 0.8 2.9 -1 4.2 -1.5 1.1 -1.7 1.9 -1 4.6 0.8 2.8 1.2 3.2 3.1 2.6 1.2 -0.4 2.5 -1.2 2.9 -1.9z m-10.7 -7.5 c1.1 -1.7 -0.5 -3.2 -2.1 -1.9 -0.7 0.6 -1.1 1.5 -0.8 2 0.7 1.2 2.1 1.1 2.9 -0.1z m4.9 -0.5 c-0.4 -0.8 -1 -1.5 -1.5 -1.5 -0.5 0 -0.9 0.7 -0.9 1.5 0 0.8 0.7 1.5 1.5 1.5 0.9 0 1.2 -0.6 0.9 -1.5z m-32.6 -5.3 c0.2 -0.7 -0.6 -1.2 -1.7 -1.2 -2.1 0 -2.7 1.1 -1.4 2.4 0.9 0.9 2.6 0.2 3.1 -1.2z"/>
  <path d="M199.9 753.8 c-0.6 -2.1 -0.5 -3.9 0.2 -4.4 0.5 -0.3 0.8 0.6 0.7 2 -0.2 2.2 -0.6 3.3 -0.9 2.4z"/>
  <path d="M166.4 730.4 c0.4 -1 0.2 -1.3 -0.6 -0.8 -0.8 0.5 -0.9 0.2 -0.5 -1 0.4 -1 0.1 -2.4 -0.6 -3.1 -2.8 -3.2 -3.5 -4.3 -4.1 -6.3 -0.4 -1.3 -1.6 -2.2 -2.7 -2.2 -1.1 0 -1.8 -0.4 -1.4 -1 0.6 -1.1 -3.5 -5.7 -4.8 -5.2 -0.5 0.1 -0.6 -0.7 -0.2 -1.8 0.5 -1.5 0.2 -2 -1.3 -2 -2.6 0 -3.3 -1 -2.1 -3.1 0.6 -1.3 0.6 -1.9 -0.1 -1.9 -0.5 0 -1 0.4 -1 0.9 0 0.5 -1.1 0.9 -2.5 0.9 -1.6 0 -2.7 -0.8 -3.1 -2.1 -0.4 -1.1 -1.4 -2.9 -2.4 -4 -1.6 -1.6 -3.3 -6.7 -2.4 -6.7 0.2 0 2.1 1.8 4.2 3.9 2.1 2.2 5 4.3 6.4 4.6 1.4 0.4 3 1.5 3.4 2.6 1.1 2.5 13.4 14.9 14.8 15 0.6 0 2.5 2.9 4.1 6.4 2.8 5.9 2.9 6.4 1.3 7.4 -2.6 1.6 -5.1 1.4 -4.4 -0.5z"/>
  <path d="M136.5 703.4 c-1.6 -2.4 -1.6 -2.6 0 -2.2 1 0.1 2.4 1.3 3.3 2.6 1.3 1.9 1.3 2.2 -0.1 2.2 -0.8 0 -2.2 -1.2 -3.2 -2.6z"/>
  <path d="M233.6 703.1 c-0.3 -0.5 0.1 -1.2 1 -1.5 2 -0.8 2.9 -0.1 1.9 1.3 -0.8 1.3 -2.2 1.4 -2.9 0.2z"/>
  <path d="M240.2 702.1 c-1 -0.6 -0.9 -1 0.7 -1.4 1.4 -0.3 2.1 0 2.1 0.9 0 1.6 -0.9 1.8 -2.8 0.5z"/>
  <path d="M222.1 696 c-2.1 -4.9 -2.1 -7.7 0.1 -6.4 0.5 0.3 0.7 1.7 0.4 3 -0.5 1.8 -0.2 2.4 1 2.4 1 0 1.4 0.5 1 1.5 -0.3 0.9 0 1.5 0.9 1.5 0.7 0 1.7 0.5 2.1 1.2 0.5 0.7 0.3 0.8 -0.6 0.3 -0.7 -0.4 -1.5 -0.2 -2 0.4 -0.4 0.8 -1.5 -0.7 -2.9 -3.9z"/>
  <path d="M132.5 699 c-0.3 -0.6 0.1 -1.3 1 -1.6 2.1 -0.9 2.6 -0.2 1 1.3 -0.9 0.8 -1.6 0.9 -2 0.3z"/>
  <path d="M120.5 685.9 c-4.1 -3.7 -4.4 -4.8 -1 -4.1 1.7 0.3 2.5 1.1 2.5 2.5 0 1.1 0.8 2.6 1.8 3.3 0.9 0.7 1.4 1.4 1 1.4 -0.4 0 -2.3 -1.4 -4.3 -3.1z"/>
  <path d="M183 663.9 c0 -0.5 -0.6 -0.7 -1.2 -0.3 -0.7 0.4 -1 0.4 -0.6 -0.1 0.4 -0.4 0.1 -2.4 -0.7 -4.4 -1.3 -3.4 -1.3 -3.4 0.2 -1.3 0.8 1.2 2.2 2.2 2.9 2.2 0.8 0 1.4 1 1.4 2.5 0 1.4 -0.4 2.5 -1 2.5 -0.5 0 -1 -0.5 -1 -1.1z"/>
  <path d="M134 647.6 c0 -0.9 0.7 -1.2 2 -0.9 3.1 0.8 3.4 2.3 0.6 2.3 -1.6 0 -2.6 -0.6 -2.6 -1.4z"/>
  <path d="M173.5 645 c-0.4 -1.2 -0.5 -2.4 -0.2 -2.7 0.3 -0.2 0.8 0.5 1.2 1.7 0.4 1.2 0.5 2.4 0.2 2.7 -0.3 0.2 -0.8 -0.5 -1.2 -1.7z"/>
  <path d="M143.1 642.1 c-2 -1.7 -3 -3.5 -2.1 -3.7 0.3 0 1.5 -0.6 2.7 -1.2 1.9 -1 2 -0.9 1.5 1 -0.3 1.3 0.1 2.6 1.2 3.3 1.4 1.1 1.4 1.4 0.2 1.8 -0.8 0.3 -2.3 -0.2 -3.5 -1.2z"/>
  <path d="M136 636.6 c0 -0.9 -0.7 -1.6 -1.5 -1.6 -0.8 0 -1.5 -0.7 -1.5 -1.5 0 -1 1 -1.5 3 -1.5 2.3 0 3 0.5 3 1.9 0 1 -0.7 2.4 -1.5 3.1 -1.2 1 -1.5 1 -1.5 -0.4z"/>
  <path d="M719.7 198.1 c-4.2 -4.3 -7.7 -8.3 -7.7 -8.9 0 -1.2 -3.3 -5.2 -7.2 -9 -1.6 -1.4 -2.8 -3.3 -2.8 -4.3 0 -1 -0.8 -2.2 -1.7 -2.8 -1 -0.5 -1.4 -1.3 -1 -1.7 0.4 -0.4 1.8 0.2 3 1.4 1.3 1.2 2.6 2 2.9 1.7 0.3 -0.3 1.1 0.3 1.9 1.2 1.3 1.7 1.3 1.7 -0.6 0.3 -1.1 -0.8 -0.7 0 1 1.8 2.6 2.9 3.1 3.1 4.4 1.7 1.1 -1.1 1.2 -1.8 0.4 -2.6 -0.8 -0.8 -1.3 -0.8 -1.7 0 -1.3 2.1 -2.7 1.2 -1.5 -1 1 -2 2 -2.1 6.3 -0.4 1.6 0.7 1.7 0.5 1.1 -1.6 -0.8 -2.9 -10.2 -11.9 -12.3 -11.9 -0.4 0 -0.8 -0.8 -0.9 -1.9 -0.2 -2.5 3.4 -1.6 4.2 1 0.4 1 1.3 1.9 2.1 1.9 0.7 0 2.6 1.8 4 4 1.5 2.2 3.2 4 3.9 4 0.8 0 1.9 1.3 2.6 2.9 0.7 1.6 1.6 2.8 1.9 2.6 0.3 -0.1 2.3 2.5 4.6 6 2.2 3.5 3.5 6.1 2.7 5.8 -0.7 -0.3 -1.3 -0.2 -1.3 0.1 0 0.4 1.2 1.1 2.6 1.6 1.9 0.8 2.4 1.5 1.9 2.7 -0.3 1 -0.3 1.4 0.1 1.1 1 -1 4.6 1.1 3.9 2.3 -0.4 0.5 -0.2 0.8 0.3 0.7 1.1 -0.3 8.3 8.4 7.6 9.1 -0.3 0.3 -0.9 -0.1 -1.4 -0.8 -0.4 -0.8 -1.5 -1.1 -2.5 -0.8 -1.1 0.5 -1.4 0.3 -0.9 -0.6 0.6 -0.9 0.3 -0.8 -0.8 0.1 -1.4 1.1 -1.7 1 -2.3 -0.8 -0.3 -1.1 -1.1 -1.8 -1.6 -1.5 -0.5 0.4 -0.9 0.2 -0.9 -0.3 0 -1.2 -3.8 -0.4 -4.6 0.9 -0.3 0.5 0.3 0.6 1.2 0.2 1.2 -0.5 1.5 -0.3 0.9 0.6 -0.4 0.8 -0.2 1.7 0.6 2.2 1 0.6 0.5 0.9 -1.6 0.9 -2.4 0 -4.5 -1.5 -10.8 -7.9z m2.3 -19 c0 -0.5 -0.7 -1.4 -1.5 -2.1 -1.2 -1 -1.5 -1 -1.5 0.2 0 0.8 0.3 1.8 0.7 2.1 0.9 1 2.3 0.9 2.3 -0.2z"/>
  <path d="M705.4 171.2 c-1.7 -1 -2.9 -2.3 -2.7 -3 0.3 -0.7 -0.1 -2 -0.8 -2.9 -1.2 -1.4 -1 -1.5 2.1 -0.8 4.4 0.9 5.2 1.4 4.4 2.6 -0.3 0.5 -0.1 1.5 0.5 2.2 2 2.5 -0.2 3.6 -3.5 1.9z"/>
  <path d="M302.6 75.1 c-0.8 -1.3 1.4 -6.2 2.5 -5.5 0.5 0.3 0.9 0 0.9 -0.6 0 -0.6 0.4 -0.9 0.9 -0.5 0.5 0.3 1.6 -0.1 2.4 -0.9 0.7 -0.8 4.7 -2.4 8.8 -3.6 4.1 -1.2 11.9 -3.6 17.4 -5.5 9.2 -3 13.4 -4.2 16 -4.5 0.6 -0.1 1.6 -0.7 2.3 -1.3 0.9 -0.7 1.6 -0.7 2 0 1 1.5 7 1.2 7.7 -0.5 0.3 -0.8 1.2 -1.2 2.2 -0.8 0.9 0.4 2 0.1 2.5 -0.6 0.7 -1 1.1 -1 1.4 -0.1 0.4 0.9 1.3 0.9 3 0.2 3.3 -1.2 3.4 -1.2 3.4 0.9 0 2.3 -1.9 4.2 -3.5 3.5 -0.7 -0.2 -2.6 0.2 -4.3 1.1 -1.6 0.8 -4.2 1.7 -5.7 2 -1.6 0.3 -3.2 1.1 -3.6 1.7 -0.4 0.6 -1.2 0.8 -1.8 0.4 -0.7 -0.4 -1.7 -0.2 -2.4 0.4 -0.8 0.6 -1.8 0.6 -2.7 0.1 -2.6 -1.6 -2.9 -1.1 -1.6 2.2 1.8 4.2 0.4 5.7 -4.6 5 -3.3 -0.4 -3.9 -0.2 -4.7 2.1 -0.5 1.4 -1.4 2.8 -2 3.2 -0.7 0.4 -0.8 0 -0.4 -1.1 0.5 -1.4 0.2 -1.6 -1.8 -1.1 -1.3 0.4 -2.9 0.7 -3.6 0.7 -0.6 0 -1.3 1 -1.5 2.3 -0.4 2 -0.6 1.8 -2.3 -1.5 -1.2 -2.4 -2.6 -3.8 -3.8 -3.8 -1.5 0 -1.7 0.3 -0.8 1.4 0.9 1.1 0.7 1.5 -1.1 2.1 -3.5 1.2 -5.8 1.3 -5.8 0.4 0 -1.6 -2.2 -0.9 -4 1.3 l-1.7 2.2 -0.7 -2.2 c-0.4 -1.2 -1.4 -2.2 -2.3 -2.2 -0.9 0 -1.3 0.6 -0.9 1.5 0.3 0.9 0 1.5 -0.8 1.5 -0.8 0 -2.1 0.3 -2.9 0.6 -0.8 0.3 -1.8 0.1 -2.1 -0.5z"/>
  <path d="M448.5 75 c-0.3 -0.5 -1.4 -1 -2.3 -1 -1 0 -2.2 -1 -2.7 -2.2 -0.6 -1.3 -2.4 -2.6 -4.2 -3 -2.6 -0.7 -3.3 -1.4 -3.3 -3.4 0 -1.8 0.4 -2.3 1.2 -1.7 0.7 0.4 2.2 0.7 3.3 0.8 1.1 0 1.9 0.5 1.8 1.2 -0.1 0.6 0.4 1.7 1.2 2.3 1.3 1 1.5 0.8 1.5 -1.2 0 -2.5 -5.1 -7.8 -7.5 -7.8 -2.7 0 -2.7 -2.2 0 -5 2.6 -2.7 2.7 -2.8 5.7 -1.2 1.7 1 4.2 2.7 5.6 4 1.4 1.2 2.8 2.2 3.3 2.2 0.4 0 1.5 0.7 2.4 1.6 1.2 1.3 1.8 1.4 3.1 0.4 0.8 -0.7 1.6 -1.1 1.7 -0.9 0.1 0.2 0.9 1.3 1.7 2.3 1 1.4 1.1 1.7 0.2 1.2 -0.7 -0.4 -2 -0.5 -2.8 -0.2 -1.2 0.4 -1.3 1 -0.4 2.6 0.6 1.1 1.5 1.8 2.1 1.5 0.5 -0.4 0.9 0.1 0.9 1.1 0 0.9 0.7 2.2 1.7 2.9 0.9 0.7 1.4 1.9 1 2.9 -0.5 1.3 -2.1 1.6 -7.6 1.6 -3.8 0 -7.3 -0.4 -7.6 -1z"/>
  <path d="M298 74 c0 -1.2 2.8 -2.5 3.6 -1.7 0.3 0.3 -0.4 1 -1.5 1.7 -1.5 0.7 -2.1 0.7 -2.1 0z"/>
 </g>
 <g fill="#00a2e8">
  <path d="M394 824.9 c-29.7 -2.5 -58.9 -8 -86.1 -16.3 -15.5 -4.7 -22.9 -7.5 -22.9 -8.7 0 -0.6 -0.7 -1.7 -1.5 -2.5 -1 -1.1 -1.5 -3.6 -1.5 -8.5 0 -4.6 -1.1 -11.3 -3.4 -20.1 -1.9 -7.3 -3.7 -15.9 -4.1 -19.2 -0.4 -3.2 -1.7 -9.3 -2.9 -13.5 -1.3 -4.2 -2.6 -9.8 -3 -12.4 -0.5 -3 -2.3 -7.4 -4.9 -11.5 -4.5 -7.3 -6.7 -9.6 -11.2 -11.9 -1.6 -0.9 -4.5 -2.9 -6.3 -4.4 -1.8 -1.6 -3.7 -2.9 -4.1 -2.9 -0.5 0 -2.8 -1.6 -5.2 -3.6 -8.4 -7 -21.1 -12.1 -34.9 -13.9 -3 -0.4 -6.7 -1.3 -8.1 -2.1 -8.8 -4.5 -18.3 -20.1 -22.5 -37.2 -3.5 -14 -5.5 -16.2 -15 -16.2 -2.5 0 -7.7 -0.5 -11.6 -1.1 -4.4 -0.7 -7.4 -0.7 -8 -0.1 -0.6 0.6 -0.4 3.1 0.6 7 2.2 8.3 2.1 9.2 -1.1 9.2 -1.4 0 -3.4 0.7 -4.3 1.5 -1.2 1.1 -2.3 1.2 -4.6 0.5 -1.6 -0.5 -5.8 -1.9 -9.4 -3.1 -8.3 -2.8 -11.1 -4.8 -16.1 -11.6 -4.8 -6.5 -7.9 -8 -19.6 -9.5 l-8.6 -1.1 -5.7 -12.1 c-6.1 -12.8 -13.3 -30.6 -12.7 -31.3 0.3 -0.2 1.6 0.1 3.1 0.7 1.5 0.5 3.7 1 4.9 0.9 1.6 -0.1 1.2 -0.4 -1.2 -1 -3.2 -1 -3.3 -1.1 -1.5 -2.8 1.1 -1 2.6 -1.6 3.4 -1.4 1 0.3 0.8 -0.1 -0.4 -1.1 -2.3 -1.9 -2.5 -1.8 8.4 -1.6 8.7 0.1 14.8 1.5 21 4.6 6.4 3.2 7 4.1 7 11.5 0 8 0.7 9.7 7.9 20.8 l5.4 8.3 7.4 -0.7 c4.1 -0.4 10.5 -1.5 14.1 -2.6 3.7 -1 7.8 -1.9 9.2 -1.9 3.1 0 9.2 4 14.5 9.5 12 12.6 17.2 14.2 23.7 7.5 3.2 -3.5 3.8 -4.8 3.8 -8.4 0 -3.5 -0.7 -5.4 -3.7 -9.4 -8.2 -10.7 -9.9 -12.2 -14.3 -12.2 -3.6 0 -4.8 -0.7 -10.3 -5.9 -6.9 -6.5 -26 -22.2 -37.8 -30.9 -4.2 -3.1 -8.4 -6.8 -9.2 -8.2 -0.9 -1.4 -4.8 -5.8 -8.6 -9.7 l-6.9 -7.3 -9.9 0 c-5.4 0 -12.7 -0.7 -16.3 -1.5 -3.6 -0.9 -11.1 -2.1 -16.8 -2.8 -6.5 -0.8 -10.7 -1.8 -11.2 -2.7 -1.1 -1.7 -4.5 -20.2 -6.4 -34.5 -6.4 -47.5 -4.2 -93.2 6.9 -142.5 1 -4.2 2.7 -8.6 3.9 -10 4.6 -5.4 5.9 -9.1 6.6 -19.4 0.9 -13 4.2 -21.6 10.6 -27.6 4.3 -4 4.4 -4.2 4.4 -10.6 0 -6.1 0.5 -7.4 7 -20.2 7.7 -15.2 11.3 -21.4 12.3 -21.3 0.4 0.1 1.2 0.1 1.8 0.1 0.6 0 4.8 -3.9 9.4 -8.6 8.2 -8.4 8.3 -8.6 10.6 -17.5 2 -7.8 3 -9.8 8.1 -16.1 6.2 -7.5 7.2 -9.3 3.6 -6.2 -2.9 2.4 8 -10.4 14.6 -17.3 l5 -5.2 1.8 2.9 c1 1.7 2.4 3 3.1 3 0.7 0 3.5 -2.1 6.2 -4.7 2.7 -2.5 7.3 -5.7 10.3 -7.1 4.1 -1.9 6.4 -3.8 9.9 -8.6 2.5 -3.3 5.1 -7.4 5.8 -9.1 0.7 -1.6 2.6 -6.1 4.2 -9.8 2.2 -5.3 3.8 -7.5 7.4 -10.2 4.2 -3.2 5.3 -3.5 11.4 -3.5 7.5 0 11.3 -1.4 17.1 -6.4 5.5 -4.7 13.7 -9 21.9 -11.5 3.9 -1.2 8.3 -2.9 9.8 -3.8 1.6 -0.8 8.6 -3.5 15.5 -5.9 14.1 -4.9 18.7 -5.3 27.4 -2.6 l5.7 1.8 -5.3 5.4 c-2.9 3 -8.8 8 -12.9 11 -7.1 5.1 -7.6 5.8 -7.7 9.2 0 4.1 0.8 5.1 3 3.8 1 -0.6 2 -0.4 3.1 0.6 1.8 1.6 12.5 3 16.2 2 1.5 -0.3 2.7 -1.6 3.1 -3 0.3 -1.4 2.5 -4.3 4.9 -6.7 3.4 -3.4 6.4 -5 16.2 -8.5 6.6 -2.4 12.5 -4.4 13.2 -4.4 3 0 10.4 -4.3 16.3 -9.5 10.9 -9.5 13.1 -10.5 26.7 -11.4 6.6 -0.5 12.9 -1.4 14.1 -2 1.3 -0.7 3.6 -3.1 5.3 -5.3 1.6 -2.3 5.2 -6.6 7.9 -9.5 6.9 -7.4 10.5 -13.1 10.2 -16 -0.5 -3.5 1 -2.8 3.6 1.7 1.2 2.2 2.8 4 3.6 4 1.5 0 5.6 4.2 5.6 5.8 0 0.6 1.9 2.1 4.3 3.3 2.3 1.2 5.6 3.2 7.3 4.5 1.7 1.3 3.5 2.4 3.9 2.4 0.5 0 1.9 1 3.2 2.2 1.4 1.3 2.3 1.7 2.3 0.9 0 -1.1 0.3 -1.1 1.5 -0.1 0.8 0.7 1.2 1.6 0.9 2.1 -0.3 0.5 0.2 0.9 1.1 0.9 0.8 0 2.4 0.6 3.5 1.3 1.7 1 2.2 0.9 3 -0.3 1.3 -2.1 5 -2.2 4.2 -0.1 -0.5 1.3 -0.3 1.4 1 0.4 1.1 -1 2.3 -1 4.7 -0.2 l3.3 1.2 -8.9 4.2 c-5 2.4 -10.3 5.9 -12.3 8 -3.2 3.4 -12.2 8.5 -14.8 8.5 -0.7 0 -1.2 0.4 -1.2 0.9 0 0.6 5 0.9 12.3 0.7 15.7 -0.3 33.4 -3.7 44.2 -8.6 17.7 -7.9 20.7 -8.2 33 -3.1 4.4 1.8 11.4 4.3 15.6 5.6 4.1 1.3 9.4 3.2 11.7 4.4 2.3 1.2 4.8 2.1 5.6 2.1 0.8 0 1.6 0.3 1.8 0.8 0.2 0.4 4.1 1.5 8.8 2.4 4.7 0.9 11.9 3.2 16 5.1 4.1 1.9 14.3 5.1 22.5 7.2 17.2 4.2 18.4 4.6 28.5 9.4 11.2 5.2 18.6 10.5 27.5 19.5 4.4 4.5 10 9.7 12.5 11.6 2.5 1.9 5.2 4.1 6 5 1.8 1.9 9.1 6.5 17.7 11.2 6.5 3.6 20.3 15.9 20.3 18.1 0 0.7 1.9 3.1 4.3 5.3 2.3 2.2 6 6 8.2 8.5 2.2 2.4 6.5 6.1 9.6 8.1 l5.6 3.6 0.7 7.3 c0.9 8.3 3.7 16 8.9 24.2 4.7 7.3 8.7 15.2 8.7 17.2 0 0.8 0.4 1.5 0.8 1.5 0.5 0 1.9 2.2 3.2 4.9 1.3 2.8 2.8 5.2 3.4 5.5 8.6 4.1 11.2 6.5 14.8 13.7 2 4.1 4.8 11.1 6.2 15.6 2.2 7.3 5.9 14.5 9.2 18 1.4 1.5 6.7 21.4 9.8 37.3 2.9 14.9 5.1 31.5 6.7 50.4 1 12.5 1 14.1 -0.5 15.1 -0.9 0.7 -1.6 2.2 -1.6 3.3 0 1.1 -0.4 2.3 -0.9 2.6 -1.4 0.9 -2 4.9 -4.1 30.1 -2.4 29 -2.5 33.2 -0.4 38 2.1 5.2 2.7 18.2 0.8 22 -0.8 1.7 -1.2 2.2 -0.9 1.2 0.3 -1 0.7 -3.7 1 -6 0.3 -2.5 -0.3 -1.2 -1.3 3 -1.2 4.9 -3.1 9.2 -6.3 14 -6.5 9.5 -6.9 10.5 -6.9 16.6 0 6.5 -2.3 13.7 -6.2 19.5 -4.7 6.8 -5.8 10.5 -5.8 19.1 0 8 0 8 -7.9 23.8 -16.9 33.5 -35.3 60.2 -61.1 88.8 -59.8 66 -144.9 111 -233.8 123.5 -26.1 3.7 -61.9 4.9 -85.2 2.9z m-295.4 -571 c1 -1.2 4.2 -3.2 7 -4.5 2.9 -1.2 6.3 -3.4 7.8 -4.8 1.9 -2 3.5 -2.6 6.8 -2.6 5.5 0 6 -0.7 14.3 -16.4 6.3 -12.1 7.5 -15.8 5.5 -17.1 -0.6 -0.4 -0.8 -1 -0.5 -1.5 0.3 -0.5 -0.6 -1.2 -2 -1.6 -2.9 -0.7 -3 -1.1 -0.8 -3.6 0.9 -1 1.1 -1.8 0.6 -1.8 -0.6 0 -1.6 0.7 -2.3 1.5 -0.7 0.8 -1.7 1.2 -2.3 0.8 -0.5 -0.3 -0.7 -0.2 -0.4 0.4 0.3 0.5 -2.3 4.3 -6 8.4 -6.2 7.1 -12.3 15.1 -12.3 16.3 0 1.8 -4.7 5.5 -7.8 6.1 -1.9 0.4 -5.9 1.5 -8.7 2.6 -4.6 1.7 -5.8 2.8 -9.5 8.5 -2.3 3.6 -4 6.7 -3.9 6.8 0.2 0.2 2 1.3 3.9 2.5 4.5 2.7 8.2 2.7 10.6 0z m54.8 -57.4 c2.7 -0.8 6.3 -1.5 8 -1.5 4.9 0 7.6 -2.5 7.6 -6.8 0 -2 -0.5 -5.5 -1.1 -7.6 -3 -10.8 -7.9 -11.4 -20.1 -2.6 -4.6 3.3 -8.8 6 -9.4 6 -1.2 0 -2.4 3.2 -2.4 6.6 0 1.7 0.8 2.3 3.9 2.8 2.1 0.3 4.9 1.5 6.2 2.6 1.3 1 2.4 1.9 2.4 2 0 0 2.2 -0.7 4.9 -1.5z"/>
 </g>
 <g fill="#ffffff">
  <path d="M381 845 c-0.8 -0.5 -1.2 -1.1 -0.9 -1.4 0.3 -0.3 1.4 0.1 2.5 0.9 2.1 1.6 0.8 2 -1.6 0.5z"/>
  <path d="M6 837.1 c-0.6 -1.2 -0.7 -2.1 -0.1 -2.1 1 0 2.4 3 1.7 3.7 -0.2 0.3 -0.9 -0.5 -1.6 -1.6z"/>
  <path d="M421.5 788 c-0.4 -0.6 -1.4 -0.9 -2.2 -0.6 -0.8 0.3 -1.1 0.1 -0.8 -0.4 0.3 -0.6 0 -1 -0.7 -1 -0.9 -0.1 -0.9 -0.3 0.2 -0.9 1.6 -0.9 14.9 -2.7 14 -1.9 -0.3 0.3 -2.6 1.7 -5.2 3.2 -3.1 1.8 -4.8 2.3 -5.3 1.6z"/>
  <path d="M357.5 773 c-0.8 -1.3 2.5 -1.3 4.5 0 1.2 0.8 0.9 1 -1.2 1 -1.5 0 -3 -0.4 -3.3 -1z"/>
  <path d="M462.4 767.6 c1.1 -0.9 2.8 -1.6 3.8 -1.6 1.1 0 3.1 -0.6 4.6 -1.4 3.2 -1.6 17.4 -5.7 18 -5.2 0.7 0.8 -9.2 4.7 -10.5 4.1 -0.8 -0.2 -1.2 -0.1 -0.9 0.4 0.7 1 -5.2 3.7 -6.1 2.7 -0.3 -0.3 -1.1 -0.2 -1.7 0.3 -0.6 0.5 -2.9 1.2 -5.1 1.6 -3.7 0.6 -3.9 0.5 -2.1 -0.9z"/>
  <path d="M336.7 755.7 c0.4 -0.6 -0.2 -0.8 -1.6 -0.4 -1.7 0.4 -2 0.3 -1.2 -0.7 0.6 -0.7 0.8 -1.6 0.4 -1.9 -0.3 -0.4 -0.1 -0.7 0.5 -0.7 0.7 0 1.2 0.4 1.2 0.9 0 0.6 1.5 1.1 3.3 1.3 4 0.4 3.8 2.3 -0.3 2.4 -1.7 0.1 -2.7 -0.3 -2.3 -0.9z"/>
  <path d="M536.9 740 c4.2 -3.9 7.6 -5.6 5.1 -2.5 -0.7 0.8 -1.9 1.5 -2.7 1.5 -0.8 0 -1.2 0.4 -0.8 1 0.3 0.5 -0.9 1.6 -2.7 2.5 -3.2 1.5 -3.1 1.4 1.1 -2.5z"/>
  <path d="M357.8 730.4 c0.6 -0.3 1 -1 0.7 -1.4 -0.6 -1 5.4 -4.4 6.3 -3.6 0.3 0.3 -0.1 0.6 -0.8 0.6 -0.7 0 -1.1 0.3 -0.7 0.6 0.9 0.9 -1.5 3 -4.3 3.8 -1.4 0.3 -1.9 0.3 -1.2 0z"/>
  <path d="M320.3 728.9 c-1.4 -1.4 -0.4 -5.9 1.3 -5.9 1.4 0 3.4 3 3.4 5.2 0 1.6 -3.3 2.1 -4.7 0.7z"/>
  <path d="M380.1 719.4 c0.6 -0.7 1.6 -1.1 2.1 -0.8 1.1 0.7 0.3 1.7 -1.8 2 -1.2 0.2 -1.3 -0.1 -0.3 -1.2z"/>
  <path d="M360.5 712 c-0.8 -1.3 0 -2.3 2.1 -2.6 0.9 -0.2 1.4 0.4 1.2 1.3 -0.4 2 -2.4 2.8 -3.3 1.3z"/>
  <path d="M375 702.9 c0 -0.9 0.8 -2.3 1.7 -3 1.1 -1 1.4 -1 0.9 -0.1 -0.4 0.7 -0.1 1.2 0.8 1.2 0.9 0 1.6 -0.7 1.6 -1.5 0 -1.4 1.2 -1.9 3.3 -1.6 0.9 0.1 0.9 -1.3 0 -2.2 -0.3 -0.4 -1.3 -0.1 -2.2 0.6 -1.4 1.1 -1.4 1 -0.2 -0.6 0.9 -1.1 2.1 -1.5 3.3 -1.1 1 0.3 1.8 0.2 1.7 -0.3 -0.3 -2 0.2 -2.5 1.6 -1.3 1.3 1.1 1.1 1.6 -1.5 4.1 -1.6 1.6 -3.4 2.9 -3.8 2.9 -0.5 0 -1.8 0.9 -3 2 -1.4 1.3 -2.2 1.6 -2.2 0.8 0 -0.9 -0.3 -0.9 -1 0.2 -0.8 1.3 -1 1.3 -1 -0.1z"/>
  <path d="M471 689.2 c0 -1.3 3 -5.2 4.1 -5.2 1.6 0 1 2.5 -1.1 4.3 -2.2 1.9 -3 2.1 -3 0.9z"/>
  <path d="M272.3 685.6 c-0.3 -0.5 -0.1 -0.6 0.5 -0.2 0.6 0.3 1.3 0.2 1.7 -0.4 0.3 -0.5 -0.1 -1 -0.9 -1 -2.5 0 -1.9 -2.4 0.9 -3.7 2 -0.9 3.1 -0.9 4.9 0.1 l2.4 1.2 -2.3 2.6 c-2.3 2.6 -6 3.4 -7.2 1.4z"/>
  <path d="M116.2 680.9 c-1.9 -3 -0.8 -3.4 1.2 -0.4 0.9 1.4 1.3 2.5 0.9 2.5 -0.5 0 -1.4 -0.9 -2.1 -2.1z"/>
  <path d="M301 679.7 c1.4 -1.3 3.3 -2.6 4.3 -3 0.9 -0.3 1.7 -1 1.7 -1.6 0 -0.5 0.9 -1.1 2 -1.4 1.1 -0.3 2 -0.1 2 0.4 0 0.5 -0.4 0.9 -0.9 0.9 -0.5 0 -3 1.6 -5.5 3.5 -5.2 4 -7.4 4.7 -3.6 1.2z"/>
  <path d="M511 678.9 c0 -0.7 0.8 -1.8 1.8 -2.5 1.6 -1.3 1.6 -1.4 -0.2 -0.7 -1.4 0.4 -1.7 0.3 -1.2 -0.6 0.5 -0.7 1.4 -1 2.1 -0.7 0.7 0.2 1.8 -0.1 2.4 -0.7 0.8 -0.8 1.1 -0.8 1.1 0 0 0.6 -1.1 2 -2.5 3.1 -1.3 1.1 -2.1 2.2 -1.8 2.6 0.3 0.3 0.1 0.6 -0.5 0.6 -0.7 0 -1.2 -0.5 -1.2 -1.1z"/>
  <path d="M344 677.1 c0 -0.7 -0.4 -1 -0.9 -0.6 -0.5 0.3 -1.2 0.1 -1.6 -0.5 -0.3 -0.5 0.1 -1 0.9 -1 1.7 0 3.1 1.8 2.2 2.7 -0.3 0.4 -0.6 0.1 -0.6 -0.6z"/>
  <path d="M274 663.9 c0 -0.6 0.5 -0.7 1 -0.4 0.6 0.3 1 0.2 1 -0.2 0 -0.5 1.5 -1 3.2 -1.1 4.1 -0.3 2.6 1.3 -1.9 2.1 -2 0.4 -3.3 0.2 -3.3 -0.4z"/>
  <path d="M285 661.5 c0.7 -0.8 2.4 -1.5 3.9 -1.5 2.2 0.1 2.4 0.2 0.8 1.1 -0.9 0.5 -2.2 0.7 -2.7 0.4 -0.6 -0.3 -1 -0.1 -1 0.4 0 0.6 -0.5 1.1 -1.1 1.1 -0.8 0 -0.8 -0.5 0.1 -1.5z"/>
  <path d="M457 660.7 c0 -1 0.7 -2 1.5 -2.3 0.8 -0.4 1.2 -1 0.9 -1.5 -0.7 -1.2 0.5 -3.1 1.7 -2.4 1 0.7 0.2 2.5 -2.5 6 -1.4 1.8 -1.5 1.8 -1.6 0.2z"/>
  <path d="M579.8 653.5 c1.1 -2.1 5.2 -6.3 5.2 -5.2 0 0.3 -1.4 2.1 -3.1 3.9 -1.7 1.8 -2.7 2.4 -2.1 1.3z"/>
  <path d="M463.5 646 c-0.3 -0.5 -0.1 -1 0.5 -1 0.6 0 0.8 -0.4 0.5 -1 -0.3 -0.5 0.1 -1 0.9 -1 1 0 1.3 -0.7 1.1 -2 -0.2 -1.1 0 -1.8 0.5 -1.5 0.4 0.3 0.7 1.3 0.5 2.3 -0.2 0.9 -0.4 2.5 -0.4 3.5 -0.1 1.8 -2.6 2.3 -3.6 0.7z"/>
  <path d="M293.3 641.9 c0.9 -0.6 1.5 -1.4 1.2 -1.9 -0.8 -1.4 1.3 -2.2 3.1 -1.2 1.1 0.6 1.3 1.1 0.5 1.6 -0.6 0.4 -1.1 0.4 -1.1 0.1 0 -0.4 -0.7 0.1 -1.6 0.9 -0.8 0.9 -2.1 1.6 -2.7 1.6 -0.7 0 -0.4 -0.5 0.6 -1.1z"/>
  <path d="M298.6 638.1 c-1.3 -0.5 -1.6 -1 -0.9 -1.4 0.7 -0.4 1.5 -0.2 1.9 0.4 0.5 0.9 1.1 0.7 2 -0.6 0.8 -1 1.6 -1.6 1.9 -1.3 1.1 1.1 -3.1 3.5 -4.9 2.9z"/>
  <path d="M357.3 635 c0.2 -0.8 1.6 -1.6 3.3 -1.7 2.5 -0.1 2.6 0 0.4 0.4 -1.4 0.3 -2.9 1 -3.3 1.7 -0.6 0.7 -0.7 0.6 -0.4 -0.4z"/>
  <path d="M482 634.2 c0 -0.7 0.4 -1.2 1 -1.2 0.5 0 0.7 -0.8 0.3 -1.7 -0.5 -1.5 -0.3 -1.6 0.8 -0.5 1.1 1 1 1.5 -0.4 2.9 -1.1 1.1 -1.7 1.3 -1.7 0.5z"/>
  <path d="M530 632 c2.7 -3.8 4 -4.6 4 -2.3 0 1 -1.4 2.6 -3.1 3.5 l-3 1.8 2.1 -3z"/>
  <path d="M695 630.4 c0 -1.9 3.8 -6.6 4.4 -5.5 0.4 0.6 0.2 1.1 -0.4 1.1 -0.6 0 -0.9 0.4 -0.6 0.9 0.3 0.4 -0.3 1.6 -1.4 2.6 -1.1 1 -2 1.4 -2 0.9z"/>
  <path d="M700 623.3 c0 -0.5 0.9 -1.8 2 -2.8 1.1 -1 2 -1.4 2 -0.8 0 0.5 -0.9 1.8 -2 2.8 -1.1 1 -2 1.4 -2 0.8z"/>
  <path d="M731.2 620.4 c-0.1 -1.3 0.2 -2.4 0.6 -2.4 0.4 0 0.8 -1.1 0.8 -2.4 0.1 -1.4 0.9 -3.5 1.8 -4.8 l1.7 -2.3 -0.6 2.6 c-1.1 4.4 -1.2 6.4 -0.6 6.9 0.4 0.3 -0.3 1.5 -1.4 2.7 l-2.1 2.2 -0.2 -2.5z"/>
  <path d="M557 612.5 c0 -0.9 0.7 -1.8 1.5 -2.2 2.3 -0.8 2.4 0 0.3 2 -1.5 1.4 -1.8 1.5 -1.8 0.2z"/>
  <path d="M221.3 612.4 c0.4 -0.7 0 -1.5 -0.9 -1.8 -1.3 -0.5 -1.4 -0.9 -0.4 -2.1 0.7 -0.8 1.9 -1.5 2.7 -1.5 0.8 0 1.2 -0.4 0.9 -0.8 -0.2 -0.4 0.3 -1.3 1.3 -1.9 1.4 -0.9 1.7 -0.7 1.8 0.9 0.1 1.1 0.9 2.9 1.9 3.9 1.6 1.7 1.5 1.9 -1.1 3.1 -2.3 1 -2.9 1 -3.3 0 -0.3 -1 -0.7 -1 -2 0 -0.9 0.8 -1.3 0.8 -0.9 0.2z"/>
  <path d="M232 609.8 c0 -0.3 1.4 -1.7 3 -3.3 1.7 -1.6 3 -2.4 3 -1.8 0 0.7 -1.3 2.1 -3 3.3 -1.6 1.2 -3 2 -3 1.8z"/>
  <path d="M313 608.5 c0.7 -0.8 1.6 -1.2 2.1 -0.9 0.5 0.3 0.9 0 0.9 -0.6 0 -0.6 0.5 -0.8 1 -0.5 0.6 0.3 1 0.1 1 -0.5 0 -0.6 0.5 -0.8 1.1 -0.4 1.5 0.9 -0.1 2.2 -4 3.4 -2.8 0.8 -3.1 0.7 -2.1 -0.5z"/>
  <path d="M384.5 604.1 c-0.3 -0.5 1.4 -1.2 3.7 -1.6 9.1 -1.5 8.5 -1.6 5.9 0.3 -2.6 1.8 -8.7 2.6 -9.6 1.3z"/>
  <path d="M435.6 603.3 c-0.4 -0.5 -1.2 -0.8 -1.7 -0.8 -0.5 0 -1 -0.4 -1.1 -0.9 -0.4 -1.1 3.9 -1.9 4.6 -0.8 0.7 1.2 -0.9 3.4 -1.8 2.5z"/>
  <path d="M600 598.2 c0 -0.4 3.2 -3.9 7.1 -7.7 3.9 -3.9 6.7 -6.1 6.1 -5 -0.5 1.1 -0.7 2.6 -0.4 3.4 0.7 2.1 -6.4 7.8 -9 7.3 -0.5 -0.1 -0.8 0.2 -0.8 0.7 0 0.5 -0.7 1.1 -1.5 1.5 -0.8 0.3 -1.5 0.2 -1.5 -0.2z"/>
  <path d="M417.6 589.6 c0.5 -1.4 4.4 -2.9 5.3 -2.1 0.2 0.3 -0.1 0.5 -0.7 0.5 -0.7 0 -1.2 0.7 -1.2 1.5 0 0.8 -0.9 1.5 -2 1.5 -1.2 0 -1.7 -0.5 -1.4 -1.4z"/>
  <path d="M491.3 589.5 c0.8 -0.8 1.4 -0.9 1.8 -0.3 0.4 0.6 0.9 0.5 1.2 -0.3 0.4 -1 0.6 -1 0.6 0.2 0.1 1.1 -0.7 1.7 -2.3 1.7 -1.9 0 -2.2 -0.3 -1.3 -1.3z"/>
  <path d="M495.9 588.2 c-1.5 -1.7 -1.4 -2 0.4 -3.5 2.4 -1.9 3.3 -1.5 2.2 1 -0.5 1 -0.7 2.4 -0.6 3.1 0.3 1.7 -0.2 1.5 -2 -0.6z"/>
  <path d="M285 587.1 c0 -1.6 2.3 -5.4 3.8 -6.4 0.7 -0.5 1 -1.2 0.8 -1.6 -0.3 -0.4 1.1 -2.3 3.2 -4.2 2.5 -2.3 2.9 -2.5 1.3 -0.6 -1.4 1.5 -2.1 2.7 -1.7 2.7 1 0 -0.7 2.8 -4.3 7.4 -1.7 2.1 -3.1 3.4 -3.1 2.7z"/>
  <path d="M451.1 586.7 c-1.4 -1.4 -1.5 -4 -0.1 -3.2 0.6 0.4 0.8 1.2 0.4 1.8 -0.3 0.7 0.1 0.4 1 -0.7 0.8 -1 1.9 -1.5 2.5 -1.1 0.6 0.3 1.1 0.2 1.1 -0.2 0 -1.4 2.9 -5 3 -3.7 0 0.6 -1.5 2.7 -3.4 4.7 -2.5 2.6 -3.6 3.3 -4.5 2.4z"/>
  <path d="M509 581.1 c1.2 -2.3 2.9 -3.5 3.7 -2.7 0.4 0.3 -0.4 1.5 -1.7 2.6 -2.9 2.5 -3.3 2.5 -2 0.1z"/>
  <path d="M510.7 574.6 c0.7 -3.6 3 -6.6 5 -6.6 0.8 0 1.1 0.4 0.8 1 -0.6 0.9 -1.1 3 -1.9 6.9 -0.1 0.8 -1.2 1.5 -2.4 1.6 -1.8 0.1 -2 -0.2 -1.5 -2.9z"/>
  <path d="M642.4 574.9 c-0.3 -0.6 -0.1 -1.6 0.5 -2.2 0.9 -0.9 1.1 -0.8 0.5 0.6 -0.5 1.3 -0.2 1.6 1 1.1 1 -0.4 1.5 -1.3 1.2 -2 -0.3 -0.7 -0.2 -1.5 0.2 -1.8 0.4 -0.3 0.9 0.4 0.9 1.5 0.2 2.2 -3.2 4.5 -4.3 2.8z"/>
  <path d="M219.9 574 c-2.1 -1.4 -0.2 -2.4 2.3 -1.3 1.7 0.7 1.9 1.1 0.6 1.5 -0.8 0.4 -2.1 0.2 -2.9 -0.2z"/>
  <path d="M412 572.9 c1.4 -1.1 4.4 -3.8 6.8 -6 2.4 -2.3 4.7 -3.7 5.4 -3.3 0.8 0.5 0.9 0.2 0.5 -0.9 -0.4 -1.1 -0.1 -1.7 0.8 -1.7 0.7 0 1.3 0.9 1.2 1.9 0 1.1 -0.4 1.9 -0.7 1.8 -0.3 -0.1 -0.6 0.3 -0.8 0.8 -0.7 2.1 -3.6 4.5 -5.6 4.6 -1.4 0 -1.6 0.3 -0.7 0.6 0.8 0.3 -0.6 1.3 -3.5 2.4 -6.1 2.4 -6.5 2.3 -3.4 -0.2z m10 -5.5 c0 -0.8 0.4 -1.3 0.8 -1 0.5 0.3 0.9 -0.1 0.9 -0.9 0 -2.3 -1.3 -1.8 -2.5 1 -0.7 1.5 -0.8 2.5 -0.2 2.5 0.6 0 1 -0.7 1 -1.6z"/>
  <path d="M220 569.1 c1.4 -2.7 3 -3.5 3 -1.6 0 1 -0.5 1.3 -1.2 0.9 -0.9 -0.5 -0.9 -0.2 0.1 0.9 1.2 1.5 1.1 1.7 -0.8 1.7 -1.8 0 -2 -0.3 -1.1 -1.9z"/>
  <path d="M255.5 559.5 c0.4 -1.1 1 -3 1.3 -4.3 0.2 -1.2 1.3 -2.7 2.2 -3.2 1.5 -0.8 1.4 -0.2 -0.7 3.8 -2.7 5.1 -4.1 6.9 -2.8 3.7z"/>
  <path d="M375 554.9 c1.2 -2.3 2.4 -3.8 2.7 -3.5 0.4 0.3 1.5 -0.2 2.6 -1.1 1.9 -1.8 2 -1.7 0.7 0.7 -1.5 3 -6 8 -7.2 8 -0.5 0 0.1 -1.8 1.2 -4.1z"/>
  <path d="M683.2 556.3 c1.4 -1.7 2.8 -1.6 2.8 0.1 0 0.8 -0.9 1.4 -1.9 1.3 -1.5 -0.1 -1.7 -0.4 -0.9 -1.4z"/>
  <path d="M278 554.6 c0 -2 2.2 -5.5 3.2 -5.1 0.8 0.3 1.4 -0.4 1.4 -1.9 0.2 -2.9 5.2 -9.8 6.5 -9 0.5 0.3 0.8 0.2 0.7 -0.3 -0.2 -0.4 0.2 -0.9 0.7 -1.1 0.6 -0.2 1.6 -1.4 2.3 -2.8 0.8 -1.4 1.6 -2.3 1.9 -2 0.7 0.6 -1.7 6.8 -3 7.7 -0.8 0.6 -1.5 2.9 -1.6 5.7 -0.1 0.7 -0.6 1 -1.2 0.6 -0.6 -0.3 -0.9 -1.4 -0.6 -2.4 0.2 -1 0.1 -2.3 -0.3 -3 -0.5 -0.8 -0.8 -0.4 -0.9 1.1 -0.1 1.3 -0.2 4.1 -0.4 6.1 -0.1 2 -0.8 4.3 -1.6 5 -1.1 1.1 -1.2 0.9 -0.7 -1.2 0.7 -2.3 0.6 -2.4 -0.8 -0.6 -0.8 1 -1.9 1.5 -2.5 1.1 -0.6 -0.3 -1.1 0.1 -1.1 0.9 0 0.9 -0.4 1.6 -1 1.6 -0.5 0 -1 -0.2 -1 -0.4z"/>
  <path d="M205.6 552.2 c-0.4 -0.7 -1.1 -1 -1.5 -0.8 -0.4 0.3 -0.8 -0.6 -0.9 -1.8 -0.2 -2.7 3 -6.1 5 -5.3 0.8 0.3 0.5 0.6 -0.7 0.6 -1.5 0.1 -1.7 0.4 -0.7 1 1 0.6 1.1 1.7 0.5 4.2 -0.6 2.1 -1.2 2.9 -1.7 2.1z"/>
  <path d="M590.4 551.8 c-0.3 -0.4 0.5 -0.8 1.8 -0.8 1.3 0 3 -0.6 3.8 -1.2 0.8 -0.7 0.7 -0.4 -0.3 0.8 -1.7 2.1 -4.4 2.7 -5.3 1.2z"/>
  <path d="M481 550 c0 -0.5 0.7 -1 1.5 -1 0.8 0 1.5 0.5 1.5 1 0 0.6 -0.7 1 -1.5 1 -0.8 0 -1.5 -0.4 -1.5 -1z"/>
  <path d="M730.7 549.3 c-0.4 -0.3 -0.7 -1 -0.7 -1.4 0 -1.1 2.9 -1.9 3.5 -1 0.6 1.1 -2 3.3 -2.8 2.4z"/>
  <path d="M438 547.5 c0.6 -0.7 2 -1.5 3.1 -1.8 1.6 -0.4 1.8 -0.3 0.9 0.8 -0.6 0.7 -2 1.5 -3.1 1.8 -1.6 0.4 -1.8 0.3 -0.9 -0.8z"/>
  <path d="M602.7 541.3 c0.4 -1.1 0.3 -1.4 -0.5 -0.9 -0.7 0.4 -1.2 0.2 -1.2 -0.3 0 -0.6 0.9 -1.1 2 -1.1 1.8 0 1.9 0.3 1 2 -1.3 2.4 -2.2 2.7 -1.3 0.3z"/>
  <path d="M327.3 538.9 c-0.1 -1 0.2 -1.9 0.8 -1.9 1.1 0 1.2 2.7 0.1 3.4 -0.4 0.2 -0.9 -0.4 -0.9 -1.5z"/>
  <path d="M389 538.4 c0.8 -0.8 2.3 -2 3.4 -2.6 1.9 -1 1.8 -0.8 -0.3 1.6 -2.6 2.7 -5.3 3.7 -3.1 1z"/>
  <path d="M714 535 c0.6 -1.1 1.5 -2 2.1 -2 0.6 0 0.8 -0.4 0.4 -0.9 -0.3 -0.6 0.4 -1.5 1.5 -2.1 1.3 -0.7 2 -0.7 2 0 0 0.5 -0.5 1 -1.1 1 -0.6 0 -0.9 0.6 -0.6 1.4 0.6 1.5 -0.6 2.9 -3.6 3.9 -1.5 0.6 -1.6 0.4 -0.7 -1.3z"/>
  <path d="M235 533.1 c0 -0.5 -0.5 -2.2 -1.2 -3.8 -1.6 -4 -1.7 -6.1 -0.3 -7.3 1 -0.8 1.5 -0.7 2.1 0.1 0.4 0.7 0.2 1.5 -0.4 1.7 -0.7 0.2 -1.2 0.8 -1.2 1.3 0 0.6 0.4 0.8 0.9 0.5 0.5 -0.4 0.9 1.4 0.9 3.9 0 2.5 -0.2 4.5 -0.4 4.5 -0.2 0 -0.4 -0.4 -0.4 -0.9z"/>
  <path d="M250 529.4 c0 -0.3 0.9 -1.7 2 -3.1 1.1 -1.4 2 -2.2 2 -1.7 0 0.5 0.5 0.2 1 -0.6 0.9 -1.3 1 -1.3 1 0 0 0.8 -0.4 2 -0.8 2.6 -0.9 1.4 -5.2 3.7 -5.2 2.8z"/>
  <path d="M123.2 524.3 c-0.6 -0.3 -1 -0.9 -0.7 -1.4 0.4 -0.5 -0.2 -0.6 -1.1 -0.2 -1.3 0.5 -1.6 0.3 -1.1 -1 0.3 -0.9 0.1 -1.9 -0.5 -2.3 -0.7 -0.4 -0.8 -0.3 -0.4 0.4 1.5 2.5 -2.1 1.1 -4.6 -1.8 -3.8 -4.4 -1.6 -4.7 3.8 -0.6 2.6 2 5.2 3.6 5.9 3.6 0.7 0 1.8 0.6 2.4 1.4 0.9 1.1 0.8 1.5 -0.6 1.8 -1 0.3 -2.4 0.3 -3.1 0.1z"/>
  <path d="M192.3 521.8 c-0.5 -0.7 -0.6 -2.4 -0.2 -3.8 0.4 -1.4 0.7 -1.9 0.8 -1.2 0.1 0.6 0.6 1.1 1.2 1 0.6 -0.2 1.6 0.5 2.2 1.5 1 1.4 0.9 2 -0.3 2.7 -2 1.3 -2.6 1.2 -3.7 -0.2z"/>
  <path d="M149.7 520.3 c0.3 -0.8 0 -1.3 -0.8 -1.1 -2.5 0.5 -1.5 -2.4 1.1 -3.3 2.4 -0.9 2.4 -0.8 0.5 0.6 -1.9 1.5 -1.9 1.6 0.3 2.1 2.7 0.8 2.9 2 0.3 2.7 -1.4 0.3 -1.8 0.1 -1.4 -1z"/>
  <path d="M807.1 521 c0 -0.3 0.6 -3 1.4 -6 1 -4 1.3 -4.7 1.4 -2.5 0 2.4 -2.6 10.5 -2.8 8.5z"/>
  <path d="M232.6 515.3 c0.7 -5.3 1.1 -6.3 2.4 -6.3 0.4 0 0.8 2.5 0.9 5.5 0 4.9 -0.2 5.5 -2 5.5 -1.8 0 -2 -0.4 -1.3 -4.7z"/>
  <path d="M739.2 518.1 c0.4 -1.3 1.8 -1.6 1.9 -0.4 0 0.4 -0.5 0.9 -1.1 1.2 -0.7 0.2 -1.1 -0.2 -0.8 -0.8z"/>
  <path d="M246 509.1 c0 -0.5 -0.3 -1.6 -0.6 -2.5 -0.3 -0.9 -0.2 -1.6 0.3 -1.6 0.5 0 1 1.1 1.1 2.5 0.1 1.4 0 2.5 -0.3 2.5 -0.3 0 -0.5 -0.4 -0.5 -0.9z"/>
  <path d="M617.3 508.5 c-1.7 -1.9 -1.6 -3 0 -1.6 0.8 0.6 1.7 0.8 2.1 0.4 0.4 -0.4 0.4 0 0 1 -0.7 2 -0.6 2 -2.1 0.2z"/>
  <path d="M516.4 502.2 c1 -1.2 2.4 -1.9 3 -1.5 0.6 0.3 0.8 0.2 0.3 -0.2 -0.9 -1.1 2.1 -4.5 4 -4.5 0.8 0 1.2 -0.4 0.9 -0.9 -0.3 -0.5 0.1 -1.5 1 -2.2 1.4 -1.2 1.4 -0.8 -0.1 2.6 -0.9 2.2 -1.9 4.5 -2.2 5.2 -0.2 0.6 -1.5 1.4 -2.8 1.7 -1.3 0.3 -3.1 0.9 -4.2 1.3 -1.7 0.6 -1.7 0.5 0.1 -1.5z"/>
  <path d="M411.7 502.3 c-1.1 -1 -0.9 -1.6 1.7 -4.6 l2.4 -2.7 0 2.4 c0 2.6 -3 6.1 -4.1 4.9z"/>
  <path d="M281.8 500.3 c-1.7 -2 -1.3 -4.1 1.1 -6.1 0.9 -0.8 1 -1.1 0.4 -0.7 -1.7 0.8 -1.6 0.3 0.3 -3.8 1.2 -2.6 2.1 -3.3 3.5 -3 2.5 0.7 2.4 1.6 -1 9.1 -2.6 5.8 -2.9 6.1 -4.3 4.5z"/>
  <path d="M770.7 489.4 c0.3 -0.7 1 -1.4 1.7 -1.4 0.7 0 0.6 -0.4 -0.3 -0.9 -0.9 -0.6 -1 -1.1 -0.2 -1.5 1.9 -1.2 3.1 0.3 1.9 2.4 -1.5 2.4 -3.9 3.5 -3.1 1.4z"/>
  <path d="M126.3 488.3 c-2.2 -0.8 -1.4 -2.3 1.2 -2.3 1.4 0 2.5 0.6 2.5 1.3 0 1.4 -1.4 1.7 -3.7 1z"/>
  <path d="M427.3 486.4 c-0.7 -0.7 -0.9 -1.5 -0.4 -1.8 0.5 -0.3 1.4 0.1 2 0.8 1.5 1.8 0 2.8 -1.6 1z"/>
  <path d="M575.6 484.5 c0.5 -1.3 0.4 -1.6 -0.4 -1.1 -0.8 0.5 -1 0.2 -0.6 -0.9 0.4 -0.9 0.9 -1.2 1.3 -0.8 0.3 0.4 1 1 1.4 1.4 0.4 0.3 0.1 1.2 -0.8 1.9 -1.3 1.1 -1.4 1 -0.9 -0.5z"/>
  <path d="M841 479.5 c0 -1.4 0.2 -2.5 0.4 -2.5 0.2 0 0.6 1.1 0.8 2.5 0.3 1.4 0.1 2.5 -0.3 2.5 -0.5 0 -0.9 -1.1 -0.9 -2.5z"/>
  <path d="M613.2 475.3 l-2.2 -0.4 2.7 -2.9 c1.5 -1.6 3.2 -2.6 3.7 -2.3 0.6 0.4 0.8 0.3 0.4 -0.2 -0.9 -0.9 0.9 -3.5 2.3 -3.5 1.9 0 0.8 4.1 -1.8 6.8 -1.9 1.9 -3.5 2.7 -5.1 2.5z"/>
  <path d="M103.5 472.8 c-0.4 -1 -1.1 -1.8 -1.7 -1.8 -0.5 0 -0.6 0.4 -0.3 1 0.4 0.6 -0.1 0.7 -1.1 0.3 -1.6 -0.6 -1.6 -0.7 0 -1.9 1 -0.7 2.6 -1.1 3.7 -0.9 1 0.2 1.9 -0.1 1.9 -0.7 0 -0.6 0.3 -0.9 0.6 -0.6 0.3 0.4 -0.1 1.9 -0.9 3.5 -1.3 2.4 -1.6 2.5 -2.2 1.1z"/>
  <path d="M133.5 472.1 c-0.3 -0.6 -1.4 -1.1 -2.3 -1.1 -1.1 0 -1.8 -0.8 -1.9 -2.2 0 -1.3 0.1 -1.7 0.4 -1 0.4 1 0.8 1 2.1 0 1.3 -1.1 1.4 -1.1 0.7 0.1 -0.5 0.9 -0.2 1.9 1 2.7 1 0.8 1.6 1.6 1.3 2 -0.3 0.3 -0.9 0.1 -1.3 -0.5z"/>
  <path d="M554.3 471.3 c-0.7 -0.2 -1.3 -1.3 -1.3 -2.4 0 -1 -0.5 -1.9 -1.1 -1.9 -0.5 0 -0.7 0.4 -0.4 1 0.3 0.6 -0.1 0.7 -0.9 0.4 -2.1 -0.8 -2 -1.8 0.1 -3.5 1.1 -1 1.4 -1 0.9 -0.1 -1 1.6 2.6 1.6 4.2 0 1.9 -1.9 1.4 -3.1 -0.9 -2.5 -1.4 0.4 -1.8 0.2 -1.2 -0.4 0.5 -0.5 3.2 -1.2 5.9 -1.6 4.4 -0.5 4.7 -0.4 3.5 1.1 -0.7 0.8 -1.7 1.3 -2.2 1.1 -0.4 -0.3 -0.6 0.4 -0.4 1.5 0.5 2.7 -0.4 2.6 -1.4 -0.2 -0.8 -2.1 -0.8 -2.1 -1.3 0.5 -0.3 1.4 -0.1 2.4 0.3 2.1 0.5 -0.3 0.9 0 0.9 0.5 0 0.6 -0.4 1.1 -1 1.1 -0.5 0 -1 0.9 -1 2 0 2 -0.5 2.3 -2.7 1.3z"/>
  <path d="M101.7 467.4 c0.3 -0.8 1 -1.3 1.5 -1.2 1.6 0.6 1.4 2.1 -0.4 2.4 -1.1 0.1 -1.5 -0.3 -1.1 -1.2z"/>
  <path d="M88.7 467.4 c-0.9 -0.9 0.4 -3.5 1.4 -2.8 0.5 0.3 0.9 -0.2 0.9 -1 0 -0.9 0.7 -1.6 1.5 -1.6 1.9 0 1.9 1 -0.1 3.8 -1.5 2.2 -2.6 2.7 -3.7 1.6z"/>
  <path d="M490.4 465.2 c1.6 -3.2 4.9 -5.6 6.7 -5 0.5 0.2 -1.1 2.1 -3.7 4.2 l-4.6 3.9 1.6 -3.1z"/>
  <path d="M769.8 461.3 c0.6 -1 1.3 -3.7 1.7 -6 0.7 -4.6 2 -6.2 3.7 -4.5 0.7 0.7 0.6 1.8 -0.3 3.3 -0.7 1.3 -1.4 2.6 -1.4 2.9 -0.4 1.8 -3 6 -3.7 6 -0.5 0 -0.5 -0.8 0 -1.7z"/>
  <path d="M111.6 458.8 c0.8 -2.8 1.2 -3.3 2 -2.5 0.9 0.8 -0.6 4.7 -1.7 4.7 -0.6 0 -0.7 -1 -0.3 -2.2z"/>
  <path d="M169.5 459.7 c-1.6 -2 -1.6 -3.7 0 -3.1 0.8 0.4 1.5 1.5 1.5 2.5 0 2.2 -0.1 2.3 -1.5 0.6z"/>
  <path d="M445.7 458.4 c-0.8 -0.8 0.1 -2.4 1.3 -2.4 0.4 0 1 0.7 1.4 1.5 0.5 1.5 -1.4 2.1 -2.7 0.9z"/>
  <path d="M75 449.6 c1.4 -0.8 2.7 -1.2 2.9 -1 0.6 0.6 -0.1 1.1 -2.9 1.8 l-2.5 0.7 2.5 -1.5z"/>
  <path d="M608.6 449.6 c0.5 -1.2 0.2 -1.5 -1 -1 -1.4 0.5 -1.4 0.2 -0.5 -2.6 0.7 -1.9 1.4 -2.7 1.9 -2.1 0.4 0.7 1.1 0.1 1.9 -1.5 1.1 -2.5 1.1 -2.6 -0.5 -1.3 -1.6 1.3 -1.6 1.2 -0.5 -0.9 0.7 -1.4 1.7 -2 2.4 -1.5 0.7 0.4 2 0.6 3 0.4 1.5 -0.2 1.7 0.1 0.9 1.6 -0.6 1 -2 2.8 -3.1 4 -1.2 1.2 -2.1 2.6 -2.1 3.1 0 0.5 -0.7 1.5 -1.5 2.2 -1.3 1.1 -1.4 1 -0.9 -0.4z"/>
  <path d="M706.6 446.1 c-0.4 -0.6 -0.3 -1.1 0.2 -1.1 0.6 0 0.8 -1 0.6 -2.2 l-0.5 -2.3 1.2 2.3 c1.3 2.4 -0.2 5.5 -1.5 3.3z"/>
  <path d="M316.9 442.3 c1.1 -2.2 3 -3.8 3.5 -3.2 0.2 0.2 -0.8 1.5 -2.1 2.9 -2.3 2.3 -2.4 2.3 -1.4 0.3z"/>
  <path d="M46.9 440 c-1.4 -1.1 -1.8 -1.9 -1.1 -2 0.7 0 1.1 -0.4 0.8 -0.9 -0.6 -0.9 2.6 -5.1 3.8 -5.1 0.4 0 0.5 2 0.2 4.5 -0.3 3.1 -0.1 4.3 0.6 3.9 0.7 -0.4 0.8 -0.2 0.4 0.4 -1 1.7 -2 1.5 -4.7 -0.8z"/>
  <path d="M174.3 439.6 c0.7 -1.4 1.5 -2.6 2 -2.6 1.3 0 0.7 1.7 -1.3 3.5 -1.9 1.7 -1.9 1.7 -0.7 -0.9z"/>
  <path d="M460.4 439.8 c-0.6 -0.9 1.4 -2 2.5 -1.3 0.5 0.3 1.3 0 1.7 -0.6 0.4 -0.8 0.3 -0.9 -0.4 -0.5 -0.7 0.4 -1.2 0.2 -1.2 -0.3 0 -2.1 3.5 -1.1 4.6 1.3 1.1 2.4 1 2.4 -2.8 2.3 -2.2 -0.1 -4.2 -0.5 -4.4 -0.9z"/>
  <path d="M613 438.2 c0 -0.5 1.1 -1.4 2.5 -2 2.1 -1 2.5 -0.9 2.5 0.5 0 0.9 -0.3 1.3 -0.6 1 -0.4 -0.3 -1.5 -0.2 -2.5 0.4 -1.1 0.5 -1.9 0.6 -1.9 0.1z"/>
  <path d="M708.4 438.2 c0.4 -0.7 1.3 -1.2 2.1 -1.2 1.2 0 3 -2.7 2.7 -4.2 -0.1 -0.5 0.3 -0.8 0.9 -0.8 0.6 0 0.8 0.6 0.5 1.3 -0.3 0.6 -0.9 2 -1.2 3 -0.4 0.9 -1 1.7 -1.4 1.7 -0.5 0 -1.6 0.3 -2.6 0.7 -1.2 0.4 -1.5 0.3 -1 -0.5z"/>
  <path d="M80.2 426.5 c1.5 -1.6 2.9 -2.7 3.1 -2.4 0.3 0.2 -1 1.5 -2.7 2.8 l-3.1 2.4 2.7 -2.8z"/>
  <path d="M330.6 427.8 c0.3 -0.4 1.4 -0.8 2.5 -0.8 1.1 0 1.8 0.4 1.4 0.9 -0.3 0.6 -1.4 0.9 -2.5 0.8 -1 -0.1 -1.6 -0.5 -1.4 -0.9z"/>
  <path d="M212.6 424.1 c-0.9 -1.5 0.4 -4 2.5 -4.6 1 -0.4 1.9 -1.1 1.9 -1.7 0 -0.5 0.7 -0.7 1.6 -0.4 0.8 0.3 1.2 0.2 0.9 -0.4 -0.3 -0.6 0.2 -1.3 1.2 -1.7 1 -0.4 2 -0.9 2.3 -1.2 0.3 -0.3 2.5 -2.1 5 -4 2.5 -1.9 5.1 -3.9 5.8 -4.4 0.8 -0.6 1.2 -0.6 1.2 0.1 0 1.3 -1.9 3.3 -11.8 12.5 -6.9 6.4 -9.4 7.8 -10.6 5.8z"/>
  <path d="M107.5 419 c-0.3 -0.5 -0.4 -1 -0.1 -1 0.2 0 1.2 -0.3 2 -0.6 1.2 -0.5 1.5 -0.2 1 1 -0.7 1.8 -2 2.1 -2.9 0.6z"/>
  <path d="M766 419.6 c0 -0.2 1.2 -2.9 2.6 -6.1 1.8 -3.9 2.9 -5.3 3.5 -4.4 0.4 0.7 0.5 1.7 0.2 2.3 -0.3 0.5 -0.1 0.6 0.4 0.3 0.6 -0.4 1.3 0.2 1.6 1.4 0.5 1.7 0.3 1.8 -0.9 0.8 -1.2 -1 -1.3 -0.9 -0.9 0.3 0.4 0.9 -0.1 1.8 -0.9 2.1 -0.9 0.4 -1.6 0.2 -1.6 -0.4 0 -0.6 -0.5 -0.7 -1.1 -0.4 -0.6 0.4 -0.8 1.3 -0.5 2 0.2 0.7 -0.2 1.6 -1 1.9 -0.8 0.3 -1.4 0.4 -1.4 0.2z"/>
  <path d="M112.7 416.3 c-1.2 -1.1 -0.8 -2.5 0.5 -1.7 0.7 0.5 0.9 0.2 0.5 -0.9 -0.4 -1.1 -0.2 -1.4 0.9 -1 1.2 0.4 1.2 0.8 0.2 2.2 -0.7 0.9 -1.3 1.7 -1.4 1.9 0 0.1 -0.4 -0.1 -0.7 -0.5z"/>
  <path d="M572.6 413.2 c-0.2 -0.4 0.9 -0.8 2.6 -0.9 2.1 0 2.6 0.2 1.7 0.8 -1.7 1.1 -3.6 1.1 -4.3 0.1z"/>
  <path d="M548.5 394 c0.3 -0.5 1.2 -1 2 -1 0.8 0 1.7 0.5 2 1 0.4 0.6 -0.5 1 -2 1 -1.5 0 -2.4 -0.4 -2 -1z"/>
  <path d="M614.4 389.4 c0.3 -0.8 0.6 -1.9 0.6 -2.4 0 -0.5 0.8 -0.8 1.9 -0.7 1.5 0.1 1.7 0.4 0.8 1.9 -1.5 2.4 -4.1 3.4 -3.3 1.2z"/>
  <path d="M163 385.1 c0 -0.5 1.2 -2.3 2.6 -4 2.6 -3.2 5.3 -4.1 5.5 -1.8 0 0.6 0.4 0.3 0.8 -0.7 0.4 -1.1 1.8 -2.1 3.2 -2.3 2.5 -0.4 6.2 -3.3 4.2 -3.3 -0.6 0 -1.4 0.6 -1.6 1.3 -0.4 0.9 -0.6 0.9 -0.6 -0.1 -0.1 -0.7 0.7 -1.5 1.7 -1.9 0.9 -0.3 2.4 -1.2 3.2 -1.9 1 -0.8 2.1 -1 3 -0.4 1.2 0.7 1.2 1.1 0 2.5 -1.3 1.6 -1.5 1.6 -2.1 -0.2 -0.7 -1.6 -0.8 -1.6 -0.8 0.4 -0.1 1.2 -1.9 3.7 -4.3 5.7 -3.4 2.9 -5 3.6 -8.5 3.6 -3.1 0 -4.3 0.4 -4.3 1.4 0 0.8 -0.4 1.8 -1 2.1 -0.5 0.3 -1 0.2 -1 -0.4z"/>
  <path d="M733.9 382.2 c0.6 -1.9 1.3 -2.6 2.7 -2.4 1.8 0.3 1.8 0.3 -0.1 -1.2 -1.7 -1.3 -1.7 -1.5 -0.4 -1.6 0.9 0 2 0.7 2.3 1.6 1 2.6 0.7 3.4 -1.1 2.7 -1 -0.4 -1.4 -0.2 -0.9 0.5 0.3 0.6 -0.2 1.6 -1.3 2.1 -1.7 1 -1.9 0.8 -1.2 -1.7z"/>
  <path d="M127.2 377.6 c0.7 -0.8 1.5 -1.2 1.7 -1 0.2 0.2 1.4 -0.6 2.5 -1.9 2.8 -2.8 9.9 -7.8 10.4 -7.2 1.2 1.2 -3.2 5.4 -8.7 8.3 -6.8 3.6 -7.8 3.9 -5.9 1.8z"/>
  <path d="M63 370.7 c0 -0.7 1.1 -1.3 2.5 -1.3 2.8 -0.2 2.5 1.1 -0.5 1.9 -1.1 0.3 -2 0 -2 -0.6z"/>
  <path d="M687.7 371.4 c-0.8 -0.9 0.5 -5.4 2.1 -6.6 1.3 -1.1 1.5 -1 1 0.9 -0.3 1.2 -0.1 2.4 0.6 2.7 0.6 0.2 0.2 0.5 -0.8 0.5 -1.9 0.1 -1.9 0.2 -0.2 1.4 1.6 1.2 1.6 1.3 -0.2 1.4 -1.1 0.1 -2.2 0 -2.5 -0.3z"/>
  <path d="M575.9 364.3 c0.5 -1 2.4 -3.4 4.1 -5.3 2.5 -2.8 2.9 -3 1.9 -1 -1.8 3.9 -4.9 8 -6 8 -0.6 0 -0.6 -0.6 0 -1.7z"/>
  <path d="M658.6 364.4 c-0.8 -2.1 -0.6 -9.5 0.3 -11.8 0.4 -1.1 1.4 -2 2.3 -2.2 1.2 -0.1 1.5 0.8 1.3 4.8 -0.2 2.8 -0.8 5.4 -1.4 5.7 -0.7 0.4 -0.9 1.5 -0.6 2.3 0.4 0.9 0.2 1.9 -0.3 2.2 -0.6 0.3 -1.3 -0.1 -1.6 -1z"/>
  <path d="M734.5 363.2 c-1.2 -0.8 -1.8 -6.8 -1 -9.9 0.6 -2.4 2.8 -3.3 2.4 -1 -0.2 0.6 0.1 3.2 0.5 5.5 0.8 4.4 0 6.7 -1.9 5.4z"/>
  <path d="M691 359.9 c0 -0.6 -0.7 -0.9 -1.5 -0.5 -0.8 0.3 -1.5 0.1 -1.5 -0.4 0 -0.6 0.5 -1 1.1 -1 0.5 0 0.7 -0.4 0.4 -1 -0.3 -0.5 0 -1 0.7 -1 0.8 0 1.5 1.1 1.6 2.5 0.1 1.4 0 2.5 -0.3 2.5 -0.3 0 -0.5 -0.5 -0.5 -1.1z"/>
  <path d="M628 355.8 c0 -0.3 0.9 -0.6 2 -0.5 1.1 0.1 2 0.5 2 0.9 0 0.3 -0.9 0.6 -2 0.5 -1.1 -0.1 -2 -0.5 -2 -0.9z"/>
  <path d="M709.8 351.5 c-0.3 -1.4 -0.2 -2.8 0.2 -3 0.4 -0.3 1 0.9 1.2 2.5 0.5 3.6 -0.8 4 -1.4 0.5z"/>
  <path d="M637.5 350 c-0.3 -0.5 -0.3 -1 0.2 -1 0.4 0 -0.4 -0.8 -1.7 -1.7 -1.4 -1 -2.9 -1.7 -3.3 -1.5 -0.5 0.1 -0.5 -0.3 -0.2 -0.9 0.5 -0.7 1.1 -0.7 1.7 -0.1 0.6 0.6 1.7 0.8 2.4 0.5 1.1 -0.4 3.4 3.1 3.4 5.3 0 0.8 -1.9 0.4 -2.5 -0.6z"/>
  <path d="M683 349 c0 -1 0.4 -2.1 0.9 -2.4 0.5 -0.4 1.2 -2.5 1.6 -4.7 0.4 -2.5 1 -3.7 1.5 -2.9 0.5 0.8 0.9 0.5 1.3 -0.9 0.3 -1.2 0.1 -1.9 -0.4 -1.6 -0.5 0.3 -0.6 -1.3 -0.3 -3.7 0.9 -6.3 1.7 -7.9 3.3 -6.9 1.6 1 2.8 9.3 1.3 8.9 -0.6 -0.2 -1 0.2 -1 0.7 0 0.6 0.4 0.9 0.9 0.8 0.5 -0.2 0.9 2.1 0.9 5 0 4 -0.5 5.8 -1.8 7 -1 1 -2.1 1.5 -2.4 1.2 -0.3 -0.3 -1.7 -0.1 -3.2 0.4 -2.2 0.9 -2.6 0.8 -2.6 -0.9z"/>
  <path d="M524.3 347.2 c-0.5 -1.1 -0.7 -1.1 -1.4 0 -0.6 0.9 -0.9 0.9 -0.9 0.1 0 -2.1 1.8 -2.4 3 -0.6 1 1.6 1 1.6 0.5 -0.4 -0.3 -1.2 -0.1 -2.4 0.5 -2.8 0.5 -0.3 1 0 1.1 0.7 0 0.7 0.2 2 0.4 2.9 0.3 1.9 -2.5 2.1 -3.2 0.1z"/>
  <path d="M528 344.5 c0 -1.3 2.1 -3.5 3.3 -3.5 0.5 0 0.7 0.5 0.5 1.1 -0.2 0.6 -0.7 1 -1.2 0.9 -0.5 -0.1 -1.3 0.4 -1.7 1.2 -0.5 0.7 -0.9 0.8 -0.9 0.3z"/>
  <path d="M635.4 340.5 c0 -2.5 0.3 -3.2 1.1 -2.5 0.7 0.5 1.5 0.7 1.8 0.3 0.4 -0.3 0.7 -0.1 0.7 0.5 0 0.5 -0.6 1.3 -1.2 1.5 -1 0.4 -0.9 0.6 0.1 0.6 1.1 0.1 1.1 0.4 0.1 1.6 -1.9 2.3 -2.5 1.8 -2.6 -2z"/>
  <path d="M150 342.1 c0 -1.1 8 -8.4 8.6 -7.8 1 1 -3 6.9 -5.3 7.8 -3 1.1 -3.3 1.1 -3.3 0z"/>
  <path d="M639.6 341.1 c-0.4 -0.5 -0.2 -1.2 0.4 -1.6 0.5 -0.3 1 -0.3 1 0.2 0 0.4 0.4 0.1 1 -0.7 0.5 -0.8 1.1 -1.2 1.5 -0.9 0.3 0.3 -0.3 1.4 -1.4 2.3 -1.1 1 -2.1 1.3 -2.5 0.7z"/>
  <path d="M533 339.5 c0 -1 0.3 -1.5 0.6 -1.2 0.4 0.3 1.5 0.2 2.5 -0.3 1.2 -0.7 2 -0.7 2.4 0 0.3 0.5 -0.2 1 -1.2 1 -1.1 0 -2.4 0.5 -3.1 1.2 -0.9 0.9 -1.2 0.8 -1.2 -0.7z"/>
  <path d="M142.8 335.5 c0.9 -1.8 1.9 -3.2 2.4 -2.9 0.4 0.3 0.8 0.1 0.8 -0.3 0 -0.5 1.4 -1.7 3 -2.6 1.7 -1 3 -1.7 3 -1.5 0 0.2 -2.4 2.7 -5.4 5.5 -5.2 5.1 -5.3 5.2 -3.8 1.8z"/>
  <path d="M449 335.7 c0 -2.1 0.8 -3.9 2.2 -5.1 1.9 -1.6 2 -1.6 1.5 -0.1 -0.9 2.2 1.6 4.7 3.9 3.8 1.2 -0.4 1.5 -0.3 1 0.6 -0.5 0.7 -1.7 1.1 -2.7 0.8 -1.2 -0.3 -2.3 0.2 -2.9 1.4 -1.6 2.9 -3 2.3 -3 -1.4z"/>
  <path d="M521.7 335.3 c-0.9 -1.4 0.8 -3.3 2.1 -2.4 1 0.6 1 1 -0.2 2 -0.8 0.7 -1.7 0.8 -1.9 0.4z"/>
  <path d="M170 333.1 c0 -1.9 2.3 -7.1 3.1 -7.1 0.5 0 0.9 -0.6 0.9 -1.4 0 -0.9 0.7 -1.3 2 -1.1 1.1 0.2 2.3 -0.1 2.6 -0.7 0.4 -0.6 0.3 -0.8 -0.3 -0.5 -0.6 0.4 -0.8 -0.4 -0.5 -2.1 0.3 -1.7 0.7 -2.1 1 -1.2 0.3 0.8 1 1.8 1.5 2.2 0.6 0.4 -0.6 2.2 -2.8 4.5 -2.2 2.1 -3.9 4 -3.9 4.3 0.1 0.3 -0.7 1.3 -1.7 2.3 -1.1 0.9 -1.9 1.3 -1.9 0.8z"/>
  <path d="M706.2 329.9 c-0.7 -1.1 -1.1 -2.3 -0.9 -2.5 0.7 -0.7 2.9 2.4 2.5 3.6 -0.2 0.6 -0.9 0.1 -1.6 -1.1z"/>
  <path d="M544 329.2 c0 -1.2 2.9 -3.6 6 -5.2 l2.5 -1.2 -2.5 2.5 c-1.4 1.3 -2.7 2.5 -3 2.5 -2 0 -2.3 0.4 -1 1.2 1.3 0.8 1.2 1 -0.2 1 -1 0 -1.8 -0.4 -1.8 -0.8z"/>
  <path d="M646.5 325 c-0.3 -0.5 -0.4 -1.4 -0.1 -1.9 0.3 -0.5 -0.2 -1.5 -1.1 -2.2 -1.5 -1.2 -1.6 -1.2 -1.1 0.3 0.4 0.9 0.1 1.9 -0.7 2.2 -1 0.3 -1.2 -0.2 -1 -1.6 0.3 -1.2 0.8 -2.4 1.3 -2.7 0.5 -0.3 0.8 -1.4 0.6 -2.3 -0.1 -1 0.2 -2 0.7 -2.4 0.5 -0.3 0.9 0.2 0.9 1.2 0 1.4 0.2 1.4 1.6 0.3 1 -0.8 1.2 -1.5 0.5 -1.7 -0.6 -0.2 -0.2 -1.3 1 -2.5 l2 -2.2 1.8 2.4 c1.4 1.9 1.6 2.8 0.7 4.7 -0.6 1.3 -1.5 2.4 -1.9 2.4 -0.5 0 -0.6 0.4 -0.3 0.9 1 1.6 -0.6 4.1 -2.6 4.1 -1 0 -1.6 0.5 -1.3 1 0.3 0.6 0.4 1 0.1 1 -0.3 0 -0.8 -0.4 -1.1 -1z m4.2 -5.9 c0.1 -1.1 -0.4 -2.2 -1.2 -2.5 -0.8 -0.3 -1.5 -0.1 -1.5 0.4 0 0.6 0.4 1 0.9 1 0.6 0 0.8 1 0.6 2.1 -0.3 1.2 -0.1 1.9 0.2 1.5 0.4 -0.4 0.8 -1.5 1 -2.5z m0.9 -6.6 c0.1 -0.8 -0.1 -1.5 -0.6 -1.5 -1 0 -2 2.6 -1.3 3.4 0.8 0.8 1.6 -0.1 1.9 -1.9z"/>
  <path d="M271 322.2 c0 -0.4 0.9 -1.3 2 -2 1.1 -0.7 2 -0.9 2 -0.4 0 0.4 -0.9 1.3 -2 2 -1.1 0.7 -2 0.9 -2 0.4z"/>
  <path d="M180 319.1 c0 -0.6 0.5 -1.3 1.1 -1.6 0.6 -0.4 0.8 -1.3 0.5 -2.1 -0.3 -0.8 0.4 -1.9 1.5 -2.5 1.9 -0.9 1.9 -0.9 1 1 -1.6 2.9 -1.3 3.3 0.7 1.4 1 -1 1.7 -2.3 1.5 -3 -0.3 -0.6 0.5 -1.6 1.6 -2.2 2.8 -1.5 4 -1.3 1.8 0.3 -1 0.8 -1.8 1.7 -1.7 2 0 0.4 -0.4 1.4 -0.9 2.4 -0.6 0.9 -1.1 1.3 -1.1 0.7 0 -0.5 -0.5 -0.3 -1 0.5 -0.5 0.8 -1.5 1.5 -2.2 1.5 -0.7 0.1 -1.2 0.6 -1 1.3 0.1 0.7 -0.2 1.2 -0.8 1.2 -0.5 0 -1 -0.4 -1 -0.9z"/>
  <path d="M217 317.4 c3.4 -3.8 5.3 -5.3 6.3 -4.7 0.4 0.2 0.6 0.1 0.5 -0.4 -0.2 -0.4 0 -0.9 0.4 -1.1 0.4 -0.1 1.9 -1.4 3.3 -2.8 2.2 -2.2 2.8 -2.4 4.2 -1.2 1.4 1.1 1.6 1.1 1 -0.4 -0.4 -1.2 -0.1 -1.6 1.3 -1.5 1.9 0.1 1.9 0.2 -0.2 2.4 -1.2 1.3 -2.6 2.3 -3.2 2.3 -0.6 0 -4.4 2.3 -8.6 5.1 -5.8 4 -6.9 4.5 -5 2.3z"/>
  <path d="M279.5 315.7 c2.2 -1.9 4.4 -3.3 4.8 -3 0.5 0.3 1.4 -0.3 2.2 -1.3 1.2 -1.6 1.6 -1.7 2.7 -0.5 0.7 0.8 0.8 1.1 0.2 0.8 -0.6 -0.3 -1.8 0.3 -2.7 1.3 -0.9 1.1 -2.3 1.7 -3.2 1.4 -1 -0.4 -1.5 0 -1.5 1 0 0.9 -0.3 1.5 -0.7 1.4 -0.5 -0.1 -1.9 0.4 -3.3 1.1 -1.6 0.8 -1.1 0 1.5 -2.2z"/>
  <path d="M66.5 310.9 c-1.1 -0.4 -1.4 -0.8 -0.7 -0.8 0.7 -0.1 1 -0.6 0.7 -1.1 -0.4 -0.6 -1.1 -0.7 -1.7 -0.4 -0.6 0.4 -0.6 -0.2 0.1 -1.5 0.7 -1.1 1.8 -2.1 2.5 -2.1 0.8 0 2.1 -1 3 -2.2 0.9 -1.3 1.4 -1.6 1 -0.8 -0.5 1 0.1 0.8 1.6 -0.5 1.3 -1.1 2 -1.4 1.5 -0.6 -0.6 1.1 -0.4 1.3 0.8 0.8 1 -0.3 1.7 -0.2 1.7 0.3 0 0.6 -0.4 1 -1 1 -0.5 0 -1 0.7 -1 1.5 0 0.8 -0.5 1.5 -1 1.5 -0.6 0 -1.5 1.1 -2.2 2.4 -1.3 3 -2.6 3.6 -5.3 2.5z"/>
  <path d="M623.1 308.8 c1.5 -2 2.5 -2.6 3.2 -1.9 1.3 1.3 -0.5 3.7 -3.3 4.4 -1.9 0.5 -1.9 0.4 0.1 -2.5z"/>
  <path d="M294.5 307 c1 -1.1 2.3 -2 2.9 -2 0.6 0 2.2 -1.4 3.6 -3 1.8 -2.2 3.1 -2.9 4.3 -2.5 0.9 0.4 1.4 1.1 1.1 1.6 -0.3 0.5 -0.9 0.7 -1.4 0.4 -0.5 -0.3 -2.2 0.9 -3.9 2.6 -1.7 1.6 -3.5 2.7 -4.1 2.4 -0.6 -0.3 -1.3 0.1 -1.6 0.9 -0.3 0.9 -1.1 1.6 -1.7 1.6 -0.5 0 -0.2 -0.9 0.8 -2z"/>
  <path d="M213 306.3 c0 -0.4 0.5 -1.5 1 -2.3 0.7 -1.1 1 -1.1 1 -0.2 0 0.7 0.5 1 1 0.7 0.6 -0.3 1 -0.4 1 -0.1 0 0.3 -0.9 1 -2 1.6 -1.1 0.6 -2 0.7 -2 0.3z"/>
  <path d="M235.5 304.1 c-1.9 -0.8 -1.9 -0.8 0.1 -1.9 1.6 -0.8 2.4 -0.8 3.3 0.1 1 0.9 1.1 0.9 0.6 -0.4 -0.3 -0.9 0.1 -2.2 1 -2.9 0.8 -0.7 1.5 -0.9 1.5 -0.4 0 0.5 0.5 0.2 1 -0.6 0.7 -1 1 -1.1 1 -0.2 0 0.7 -0.7 1.5 -1.5 1.8 -2.1 0.8 -1.9 2.5 0.3 1.7 1.1 -0.3 0.9 0 -0.6 1.2 -1.9 1.4 -2.5 1.5 -3.9 0.3 -1.5 -1.1 -1.6 -1.1 -1 0.5 0.3 0.9 0.5 1.7 0.4 1.6 -0.1 0 -1.1 -0.4 -2.2 -0.8z"/>
  <path d="M216.7 301.8 c-0.7 -1.9 2 -6.1 3.4 -5.3 1.3 0.9 1.1 2 -0.9 4.5 -1.6 1.9 -2 2 -2.5 0.8z"/>
  <path d="M491.9 301.8 c0.6 -0.7 1.6 -1.3 2.1 -1.3 0.5 0 1.6 -0.9 2.4 -2 0.9 -1.2 1.5 -1.5 1.6 -0.7 0 0.7 0.5 1 1 0.7 0.6 -0.3 1 -0.4 1 -0.1 0 0.6 -7.5 4.6 -8.7 4.6 -0.4 0 -0.1 -0.6 0.6 -1.2z"/>
  <path d="M577.6 302.2 c-0.6 -1 3 -4.6 5.8 -5.6 1.6 -0.5 1.7 -0.4 0.6 0.9 -0.7 0.9 -1.5 1.3 -1.8 1 -0.3 -0.3 -1.3 0.7 -2.3 2.1 -0.9 1.4 -1.9 2.2 -2.3 1.6z"/>
  <path d="M465 299.9 c0 -0.5 -0.4 -0.8 -0.9 -0.4 -0.6 0.3 -0.9 -0.4 -0.8 -1.5 0.1 -1.3 0.6 -1.9 1.5 -1.5 0.7 0.2 1.1 0.1 0.8 -0.4 -0.6 -1 2.6 -4.2 4.6 -4.5 0.7 -0.1 1.9 -0.5 2.7 -1 0.9 -0.6 1.2 -0.5 0.9 0.5 -0.3 0.8 -1.3 1.3 -2.2 1.3 -1.3 -0.2 -1.4 0.1 -0.6 1.1 0.8 1 0.6 1.7 -0.9 2.7 -1.2 0.8 -1.8 1.8 -1.4 2.1 0.3 0.4 -0.1 0.7 -1.1 0.7 -0.9 0 -1.4 0.5 -1.1 1 0.3 0.6 0.1 1 -0.4 1 -0.6 0 -1.1 -0.5 -1.1 -1.1z"/>
  <path d="M686.9 298.9 c-1.4 -2.7 0.4 -5 2.3 -3.1 0.8 0.8 0.9 1.2 0.1 1.2 -0.6 0 -0.9 0.9 -0.6 2 0.7 2.6 -0.3 2.6 -1.8 -0.1z"/>
  <path d="M220.5 296 c-0.4 -0.6 -0.2 -1.7 0.4 -2.4 1.5 -1.8 5.4 -2.8 4.8 -1.3 -0.3 0.7 -0.9 1.1 -1.5 1 -0.5 -0.1 -0.9 0.5 -0.8 1.4 0.1 1.9 -1.9 2.9 -2.9 1.3z"/>
  <path d="M308.5 296 c2.8 -1.2 3.7 -1.2 3 0 -0.3 0.6 -1.6 1 -2.8 0.9 -2.1 0 -2.1 -0.1 -0.2 -0.9z"/>
  <path d="M237.1 290.4 c7 -8.4 8.9 -9.9 8.9 -7.1 0 1.2 -2.4 3.4 -8.5 7.6 -1.9 1.4 -1.9 1.4 -0.4 -0.5z"/>
  <path d="M525.7 283.5 c-0.9 -0.9 -2 -1.6 -2.4 -1.6 -0.4 0 -1 -0.3 -1.2 -0.5 -0.3 -0.2 0.8 -0.3 2.3 -0.2 1.6 0.2 3.1 0.8 3.3 1.6 0.8 2 -0.3 2.4 -2 0.7z"/>
  <path d="M528.6 282.4 c-0.8 -2.1 -0.9 -2 3.9 -2.7 3.7 -0.6 3.8 -0.5 2 0.8 -1.1 0.8 -2.5 1.9 -3.2 2.5 -1.6 1.4 -2 1.3 -2.7 -0.6z"/>
  <path d="M174.2 281.1 c0.6 -1.1 1.7 -1.7 2.3 -1.4 0.5 0.3 0.5 0 -0.2 -0.7 -0.9 -1 -0.9 -1.6 0.2 -2.6 0.7 -0.8 1.5 -1.9 1.7 -2.6 0.7 -2 3.8 0 3.7 2.4 l-0.1 2.3 -0.7 -2.4 c-0.6 -2.1 -0.8 -2.2 -2 -0.7 -0.9 1 -1 1.6 -0.2 1.6 2.1 0 1.1 1.5 -2.4 3.8 -3.2 2 -3.4 2.1 -2.3 0.3z"/>
  <path d="M143 274.4 c0.1 -1.3 2.9 -4.8 3.4 -4.3 0.2 0.2 -0.4 1.5 -1.5 2.8 -1 1.3 -1.9 1.9 -1.9 1.5z"/>
  <path d="M288.7 271.3 c-0.4 -0.3 0.1 -1.9 0.9 -3.4 1.2 -2.5 1.8 -2.8 3.4 -1.9 2.4 1.3 2.5 1.7 0.5 1.7 -0.8 0 -1.5 -0.5 -1.5 -1.1 0 -0.6 -0.5 -0.4 -1 0.4 -1.4 2.2 -1.2 3 0.5 2.4 0.8 -0.4 1.5 -0.4 1.5 0 0 0.9 -3.7 2.6 -4.3 1.9z"/>
  <path d="M181.2 264.8 c0.2 -0.6 1 -1.4 1.6 -1.6 0.7 -0.2 1 0.2 0.6 1.2 -0.7 1.8 -2.8 2.2 -2.2 0.4z"/>
  <path d="M505.1 263.6 c1.6 -1.5 8.2 -4.5 8.9 -4.1 0.5 0.3 1.2 0 1.6 -0.6 0.4 -0.7 0.3 -0.9 -0.4 -0.5 -0.6 0.3 -1.3 0.2 -1.7 -0.4 -0.7 -1.1 1.7 -1.4 2.8 -0.4 0.9 0.9 -0.4 3.4 -1.8 3.4 -0.7 0 -1.5 0.4 -1.7 0.8 -0.1 0.5 -2 1.2 -4.2 1.5 -2.1 0.3 -3.7 0.5 -3.5 0.3z"/>
  <path d="M194 258.5 c0 -0.8 0.4 -1.5 1 -1.5 0.5 0 0.7 -0.7 0.4 -1.5 -0.4 -0.8 -0.1 -1.5 0.6 -1.5 0.6 0 0.9 0.4 0.5 0.9 -0.3 0.5 -0.1 1.3 0.5 1.6 0.8 0.5 0.7 1.1 -0.1 2.1 -1.5 1.8 -2.9 1.8 -2.9 -0.1z"/>
  <path d="M198 253 c0 -0.6 -0.6 -0.8 -1.2 -0.4 -0.7 0.4 -0.9 0.3 -0.5 -0.1 1 -1.2 3.7 -1.5 3.7 -0.5 0 0.5 -0.4 1.2 -1 1.5 -0.5 0.3 -1 0.1 -1 -0.5z"/>
  <path d="M338.5 243.1 c0.4 -0.7 0.8 -2.2 0.9 -3.2 0.1 -1.1 0.6 -2 1.1 -2 0.6 0 1.7 -0.6 2.5 -1.2 1.3 -1 1.3 -1 0.1 0.5 -0.7 1 -1.8 1.5 -2.3 1.2 -0.6 -0.4 -0.8 0.1 -0.4 1.3 0.4 1.3 0 2.5 -1.1 3.4 -1.4 1.2 -1.6 1.2 -0.8 0z"/>
  <path d="M322 220.5 c0.7 -0.9 1.5 -1.4 1.7 -1.1 0.3 0.2 1.7 -0.9 3.2 -2.5 1.6 -1.6 3.6 -2.9 4.5 -2.9 0.9 0 1.6 -0.7 1.6 -1.5 0 -0.8 0.5 -1.5 1 -1.5 2.1 0 0.9 2.1 -2.2 4 -1.8 1.1 -4.5 3.1 -6.1 4.5 -3 2.8 -5.8 3.5 -3.7 1z"/>
  <path d="M644 216.5 c1.3 -1.4 2.7 -2.5 3.2 -2.5 0.5 0 0.1 1.1 -0.8 2.5 -0.9 1.4 -2.3 2.5 -3.2 2.5 -1.2 0 -1 -0.6 0.8 -2.5z"/>
  <path d="M647 217.4 c0 -0.4 0.8 -1.6 1.8 -2.7 0.9 -1.1 1.1 -1.7 0.5 -1.3 -2.4 1.4 -1.3 -1.1 1.7 -3.7 3.2 -2.9 3.8 -2 2.1 2.6 -0.9 2.2 -6.1 6.6 -6.1 5.1z"/>
  <path d="M290.2 212.5 c-0.2 -2.4 0.5 -4.1 2.7 -6.4 1.6 -1.7 3.4 -3.1 3.9 -3.1 0.6 0 1.3 -0.6 1.5 -1.2 0.5 -1.1 1.1 1.5 0.9 3.3 -0.1 0.4 0.8 0.5 1.8 0.2 2.4 -0.6 2.5 0.4 0.4 4.6 -1.6 3.1 -3.9 4.6 -8.7 5.5 -2 0.3 -2.3 -0.1 -2.5 -2.9z m7.8 -0.8 c0.8 -0.3 0.3 -0.5 -1.2 -0.4 -1.7 0.1 -2.8 0.7 -2.8 1.5 0 1 0.4 1.1 1.3 0.5 0.6 -0.6 1.9 -1.3 2.7 -1.6z"/>
  <path d="M532 215.5 c0 -1 3.9 -4.3 4.4 -3.7 0.3 0.3 0.6 0 0.6 -0.6 0 -0.7 0.5 -1.2 1 -1.2 2 0 0.9 1.5 -2.5 3.8 -1.9 1.2 -3.5 2 -3.5 1.7z"/>
  <path d="M454.6 213.3 c-0.4 -0.9 -0.4 -1.4 0 -1 0.4 0.3 1.8 -0.6 3.1 -2.1 1.7 -1.9 2.2 -2.1 1.7 -0.8 -0.6 1.5 -0.4 1.7 0.7 1.1 1.2 -0.8 1.2 -0.6 0 0.8 -0.7 0.9 -1.7 1.4 -2.2 1.1 -0.5 -0.3 -0.8 0 -0.7 0.7 0.5 1.9 -1.9 2.1 -2.6 0.2z"/>
  <path d="M391 207.6 c0 -1.4 3.5 -3.6 5.6 -3.6 2.6 0 3.1 0.9 1.2 2.8 -1.1 1.1 -6.8 1.8 -6.8 0.8z"/>
  <path d="M252.5 198.8 c0.5 -0.7 1.4 -2 2.1 -2.8 0.7 -0.8 1.3 -1.9 1.4 -2.5 0.2 -0.5 0.6 -2 1.1 -3.3 0.5 -1.3 0.9 -2.5 0.9 -2.8 0 -0.3 0.7 -1.6 1.6 -3 1.3 -1.9 2 -2.2 3 -1.3 2.1 1.7 1.7 3.3 -1.3 6.4 -1.6 1.6 -2.2 2.5 -1.5 2.1 1.7 -1 1.5 0.6 -0.4 3 -0.8 1 -1.3 1.3 -0.9 0.7 0.3 -0.7 0.2 -1.3 -0.4 -1.3 -0.5 0 -1.2 0.8 -1.5 1.8 -0.3 0.9 -1.5 2.3 -2.7 3 -1.7 1.1 -2 1.1 -1.4 0z"/>
  <path d="M585.1 199.6 c0.2 -0.2 2.2 -1.1 4.3 -2 3.9 -1.6 3.9 -1.6 2.1 0.4 -1 1.1 -2.9 2 -4.3 2 -1.4 0 -2.3 -0.2 -2.1 -0.4z"/>
  <path d="M613.1 197 c1.2 -1.6 2.7 -2.6 3.2 -2.3 0.6 0.3 0.7 0.2 0.4 -0.4 -1 -1.5 5.1 -6.9 6.3 -5.7 0.8 0.8 0.5 1.5 -0.6 2.5 -1.5 1.2 -1.7 1.2 -0.9 0 0.5 -1 0.4 -1.2 -0.4 -0.7 -0.8 0.5 -0.9 1.2 -0.2 1.9 0.6 0.8 0.4 1.6 -0.4 2.4 -1.1 1 -1.5 1 -1.8 0 -0.4 -0.8 -0.6 -0.7 -0.6 0.3 -0.1 1.4 -4.8 5 -6.5 5 -0.4 0 0.3 -1.3 1.5 -3z"/>
  <path d="M385 192.5 c0 -0.3 1 -1.6 2.1 -2.8 l2.1 -2.2 -1.1 2.2 c-1.1 2.2 -3.1 4 -3.1 2.8z"/>
  <path d="M605.7 191.2 c-0.4 -0.4 0.3 -1.6 1.3 -2.5 2.5 -2.1 3.5 -0.5 1.1 1.7 -1.1 1 -2.1 1.3 -2.4 0.8z"/>
  <path d="M448.6 175.2 c-0.3 -0.5 1.3 -1.5 3.5 -2.1 4.6 -1.4 6.2 -0.9 2.9 0.9 -1.2 0.6 -2.4 0.9 -2.7 0.6 -0.4 -0.3 -1.2 -0.1 -1.9 0.5 -0.7 0.6 -1.5 0.6 -1.8 0.1z"/>
  <path d="M605.5 172 c0 -3.2 2.1 -6 4.4 -6 0.9 0 2.3 -0.6 3 -1.2 1 -1.1 1.1 -0.9 0.5 0.6 -0.6 1.6 -0.4 1.7 1.2 0.8 1 -0.5 2.4 -1.1 2.9 -1.2 0.6 -0.1 1.2 -0.4 1.5 -0.7 0.3 -0.4 -0.1 -0.3 -0.7 0.1 -0.7 0.4 -1.3 0.2 -1.3 -0.3 0 -1.7 2.8 -1.3 4.8 0.7 2 2.1 2.7 5.2 1.2 5.2 -0.6 0 -1.8 0.7 -2.6 1.5 -0.8 0.8 -2.1 1.2 -3 0.8 -0.9 -0.3 -1.4 0 -1.2 0.8 0.2 0.7 -0.4 1.4 -1.2 1.4 -2.1 0.2 -3.1 -0.5 -2.4 -1.6 0.3 -0.6 1.2 -0.5 2.2 0.3 1.2 0.9 1.1 0.6 -0.2 -1 -1.1 -1.2 -2.1 -2 -2.4 -1.7 -0.3 0.3 -1.2 -0.1 -2.1 -0.7 -1.2 -0.9 -1.1 -0.7 0.2 0.8 1.4 1.7 1.5 2.3 0.4 3.2 -2.4 2 -5.2 1.1 -5.2 -1.8z"/>
  <path d="M551.2 171.1 c-1 -0.6 -0.9 -1.1 0.4 -2.2 1 -0.8 1.5 -0.9 1.1 -0.2 -0.4 0.6 -0.2 1.3 0.5 1.5 0.7 0.3 0.8 0.7 0.2 1.1 -0.5 0.3 -1.6 0.2 -2.2 -0.2z"/>
  <path d="M566 170.5 c0 -0.2 1.2 -1.6 2.7 -3 1.5 -1.4 2.2 -2.5 1.5 -2.5 -0.6 0 -1.2 0.5 -1.2 1.1 0 0.5 -0.5 0.7 -1 0.4 -1.5 -0.9 1.8 -3.8 3.5 -3.1 0.8 0.3 1.5 0 1.5 -0.6 0 -0.6 0.3 -0.8 0.6 -0.5 0.4 0.3 1.6 0.1 2.8 -0.5 1.9 -1 2 -1 0.7 0.5 -0.7 1 -1.9 1.7 -2.7 1.7 -0.7 0 -1.6 0.5 -2 1.2 -0.4 0.7 -0.3 0.8 0.4 0.4 0.8 -0.5 1 -0.2 0.6 0.8 -0.3 0.9 -1.3 1.6 -2 1.6 -0.8 0 -1.7 0.7 -2 1.5 -0.5 1.3 -3.4 2.2 -3.4 1z"/>
  <path d="M489 166.1 c0 -1 2.6 -0.9 3.6 0.2 0.4 0.4 -0.2 0.7 -1.4 0.7 -1.2 0 -2.2 -0.4 -2.2 -0.9z"/>
  <path d="M266 163.4 c0 -1.6 3.4 -3.6 4.5 -2.6 0.5 0.4 0.5 0.2 0.1 -0.5 -0.4 -0.7 0.2 -1.7 1.3 -2.2 2.6 -1.5 3.1 -1.4 3.1 0.5 0 0.8 -0.4 1.2 -1 0.9 -0.5 -0.3 -1 0.3 -1 1.4 0 1.1 -0.9 2.3 -2.2 2.7 -3.9 1.3 -4.8 1.3 -4.8 -0.2z"/>
  <path d="M275.7 156.7 c-0.4 -1.2 3.3 -5.7 4.7 -5.7 0.3 0 0.1 1.1 -0.4 2.5 -0.5 1.4 -0.6 2.5 -0.2 2.5 0.8 0 -2 2 -2.9 2 -0.4 0 -0.9 -0.6 -1.2 -1.3z"/>
  <path d="M348.5 155 c0.4 -0.8 1.4 -2.2 2 -3 0.7 -0.8 1.5 -2.6 1.9 -4 0.4 -1.6 3.1 -4.1 7.3 -6.9 l6.6 -4.3 -3 3.8 c-3.6 4.5 -16.1 16.6 -14.8 14.4z"/>
  <path d="M581.8 150.1 c2.9 -1.9 3.7 -3.1 3.3 -5.3 0 -0.4 0.6 -0.5 1.4 -0.2 0.8 0.4 1.5 0.2 1.5 -0.3 0 -0.6 1.1 -1.5 2.4 -2.1 1.9 -0.8 2.8 -0.7 4.3 0.4 1 0.9 1.2 1.3 0.3 0.9 -1.1 -0.5 -1 -0.3 0.2 0.7 2.5 2.1 1 3.4 -6.2 5.2 -3.6 0.9 -7.4 1.9 -8.5 2.2 -1.1 0.3 -0.5 -0.4 1.3 -1.5z"/>
  <path d="M539.3 136.7 c0.2 -0.7 1.2 -1.2 2.2 -1.2 1 0 2.1 -0.7 2.4 -1.5 0.7 -1.7 3.1 -2.5 3.1 -1 0 0.6 0.4 1 1 1 0.5 0 0.7 -0.8 0.3 -1.7 -0.5 -1.5 -0.3 -1.4 1 0.2 1.5 1.8 1.6 1.8 1.7 0.3 0 -1.3 0.8 -1.8 2.6 -1.8 1.4 0 2.3 -0.4 2 -0.8 -0.8 -1.4 5.2 -0.1 6.4 1.3 0.9 1.1 0.6 1.2 -1.1 0.8 -1.7 -0.5 -2 -0.3 -1.4 0.8 0.5 0.8 0.5 1.1 0.1 0.8 -0.4 -0.4 -2.6 -0.2 -4.9 0.3 -2.3 0.5 -5.3 1.2 -6.7 1.4 -1.4 0.3 -4 0.9 -5.8 1.4 -2.4 0.6 -3.2 0.6 -2.9 -0.3z"/>
  <path d="M527.9 130.7 c0.6 -0.8 2.5 -1.4 4.2 -1.5 1.8 0 3.5 -0.6 3.9 -1.2 0.5 -0.8 0.9 -0.4 1.3 0.9 0.6 2.3 -1 3.2 -3.5 2 -1 -0.6 -1.9 -0.5 -2.3 0.1 -0.3 0.5 -1.5 1 -2.7 1 -1.6 0 -1.8 -0.3 -0.9 -1.3z"/>
  <path d="M538 128 c0 -1.6 3.8 -3.2 4.6 -1.8 0.4 0.7 0.3 0.8 -0.4 0.4 -0.7 -0.4 -1.2 -0.3 -1.2 0.2 0 0.6 -0.7 1.2 -1.5 1.6 -0.8 0.3 -1.5 0.1 -1.5 -0.4z"/>
  <path d="M390 127.1 c0 -0.4 1.9 -2.9 4.1 -5.5 3.4 -3.8 4.4 -4.4 5.6 -3.5 1.2 1 0.6 1.9 -3.4 5.5 -4.8 4.3 -6.3 5.2 -6.3 3.5z"/>
  <path d="M274.4 119.5 c-1.6 -1.2 -1.7 -1.6 -0.5 -2.4 1 -0.6 2.2 -0.4 3.7 0.7 1.5 1.2 1.8 1.9 1 2.4 -1.6 1.1 -2 1 -4.2 -0.7z"/>
  <path d="M428.3 108.2 c-1.8 -0.2 -3.3 -0.5 -3.3 -0.7 0 -1.8 1.6 -3.5 3.2 -3.5 1.3 0 1.7 -0.4 1.2 -1.2 -0.4 -0.7 0.4 -0.2 1.9 1.2 1.5 1.4 2.7 2.8 2.7 3.1 0 1.1 -2.2 1.5 -5.7 1.1z"/>
 </g>
</svg>